<svg xmlns="http://www.w3.org/2000/svg" viewBox="0 0 24 24">
  <g id="Phone">
    <path d="M4.37,2.16A4.12,4.12,0,0,0,2.25,5.25c-.2,1.64.46,3.66,2,6A30.45,30.45,0,0,0,8.09,16a30.42,30.42,0,0,0,4.35,3.65,10.77,10.77,0,0,0,5.69,2.22,4.06,4.06,0,0,0,3.64-2.17.89.89,0,0,0-.1-.22,13.22,13.22,0,0,0-2.81-2.9A8.44,8.44,0,0,0,16,14.83a2.5,2.5,0,0,0-1,.79,3.37,3.37,0,0,1-1.47,1.11l-.17.06h-.17c-.24,0-.85,0-2.31-1.17A16.34,16.34,0,0,1,8.51,13.2c-1-1.17-1.36-2.08-1.24-2.69l0-.07,0-.07a3.4,3.4,0,0,1,1.1-1.46,2.42,2.42,0,0,0,.78-1,5.07,5.07,0,0,0-1-1.88A23,23,0,0,0,6.12,3.57,5.36,5.36,0,0,0,4.37,2.16ZM18.13,24a12.72,12.72,0,0,1-6.87-2.58A32,32,0,0,1,6.58,17.5a31.82,31.82,0,0,1-4.16-5.1C.65,9.64-.12,7.14.14,5A6.35,6.35,0,0,1,3.35.27a1.86,1.86,0,0,1,1-.27c.87,0,1.89.63,3.2,2A22.89,22.89,0,0,1,9.92,4.83c1.24,1.77,1.61,2.87,1.29,3.8a4.52,4.52,0,0,1-1.39,1.89,4,4,0,0,0-.35.33,6.77,6.77,0,0,0,.69,1,12,12,0,0,0,3,2.7,4.09,4.09,0,0,0,.33-.35,4.37,4.37,0,0,1,1.87-1.4,1.89,1.89,0,0,1,.67-.11c1.18,0,2.89,1.18,4.13,2.17a15.17,15.17,0,0,1,3.38,3.55,2.19,2.19,0,0,1,.12,2.3A6.21,6.21,0,0,1,18.13,24Z" style="fill-rule: evenodd"/>
  </g>
</svg>
