<svg xmlns="http://www.w3.org/2000/svg" viewBox="0 0 24 24">
  <g id="Alarm_Clock" data-name="Alarm Clock">
    <path d="M17,13.11a1,1,0,0,1-1,1H12a1,1,0,0,1-1-1v-6a1,1,0,1,1,2,0v5h3A1,1,0,0,1,17,13.11ZM23.05,1a3.24,3.24,0,0,0-4.57,0c-1.27,1.26,3.31,5.84,4.57,4.58A3.23,3.23,0,0,0,23.05,1Zm-17.53,0A3.24,3.24,0,0,0,1,5.63C2.21,6.89,6.79,2.32,5.52,1.05ZM22,12.54A9.87,9.87,0,0,1,19.62,19l2,3.48a1,1,0,0,1-.36,1.36,1,1,0,0,1-.5.14,1,1,0,0,1-.87-.5l-1.76-3.05a9.92,9.92,0,0,1-12.26,0L4.11,23.44a1,1,0,0,1-.87.5,1,1,0,0,1-.5-.14,1,1,0,0,1-.36-1.36l2-3.48A10,10,0,0,1,12,2.56a10,10,0,0,1,10,10Zm-2,0A8,8,0,1,0,4,12.54a7.85,7.85,0,0,0,1.83,5.07c.16.2.33.38.5.56s.24.22.36.32a7.93,7.93,0,0,0,10.56,0c.12-.11.25-.21.36-.33a5.47,5.47,0,0,0,.51-.56A7.91,7.91,0,0,0,20,12.54Z"/>
  </g>
</svg>
