<svg xmlns="http://www.w3.org/2000/svg" viewBox="0 0 24 24">
  <g id="Apple">
    <g>
      <path d="M18,7.36A2.81,2.81,0,0,0,17,7.2a3.91,3.91,0,0,0-2.78,1.47,2,2,0,0,1-1.49.66,2,2,0,0,1-.48-.06l-.24.11a2,2,0,0,1-2.2-.59A4,4,0,0,0,7,7.2,2.81,2.81,0,0,0,6,7.36c-2,.67-3.29,3.25-3,6,.38,3.15,2.86,7,5.32,8.3a3.5,3.5,0,0,0,1.61.43,2.2,2.2,0,0,0,1-.26,2.25,2.25,0,0,1,2,0,2.27,2.27,0,0,0,1.05.26,3.54,3.54,0,0,0,1.57-.43c2.46-1.27,4.94-5.15,5.32-8.3C21.27,10.61,20,8,18,7.36Zm-7.24,7.42-.1.14-.06.06a1.47,1.47,0,0,1-1.91.28l-.08-.07-.07-.09a1.1,1.1,0,0,1-.23-.93,1.75,1.75,0,0,1,.57-1,2.56,2.56,0,0,1,1.43-.56.84.84,0,0,1,.91.89A2.39,2.39,0,0,1,10.74,14.78Zm5.19-.22-.07.09a1.43,1.43,0,0,1-2-.21l-.06-.06a2.5,2.5,0,0,1-.56-1.4.84.84,0,0,1,.91-.89,2.56,2.56,0,0,1,1.43.56,1.75,1.75,0,0,1,.57,1A1.1,1.1,0,0,1,15.93,14.56Z" fill="none"/>
      <path d="M8.73,2.91a2.77,2.77,0,0,0,2,.14,2.84,2.84,0,0,0-.86-1.71C9,.82,8.14.71,6.49,1A5,5,0,0,0,8.73,2.91Z"/>
      <path d="M14.16,12.09a.84.84,0,0,0-.91.89,2.5,2.5,0,0,0,.56,1.4l.06.06a1.43,1.43,0,0,0,2,.21l.07-.09a1.1,1.1,0,0,0,.23-.93,1.75,1.75,0,0,0-.57-1A2.56,2.56,0,0,0,14.16,12.09Z"/>
      <path d="M10.29,12.63a2.56,2.56,0,0,0-1.43.56,1.75,1.75,0,0,0-.57,1,1.1,1.1,0,0,0,.23.93l.07.09.08.07A1.47,1.47,0,0,0,10.58,15l.06-.06.1-.14a2.39,2.39,0,0,0,.46-1.26A.84.84,0,0,0,10.29,12.63Z"/>
      <path d="M18.62,5.46A4.89,4.89,0,0,0,17,5.2,5.65,5.65,0,0,0,13,7.14c.13-1.64.62-4,2.27-5.47A1,1,0,0,0,15.32.26,1,1,0,0,0,13.91.17,9.92,9.92,0,0,0,11,7.05,5.61,5.61,0,0,0,7,5.2a4.89,4.89,0,0,0-1.58.26c-2.94,1-4.76,4.4-4.31,8.13s3.32,8.26,6.38,9.84a5.56,5.56,0,0,0,2.49.65h0a4.34,4.34,0,0,0,2-.48.21.21,0,0,1,.18,0,4.25,4.25,0,0,0,2,.48,5.54,5.54,0,0,0,2.49-.65c3.06-1.58,5.93-6,6.38-9.84S21.56,6.44,18.62,5.46ZM21,13.35c-.38,3.15-2.86,7-5.32,8.3a3.54,3.54,0,0,1-1.57.43A2.27,2.27,0,0,1,13,21.82a2.25,2.25,0,0,0-2,0,2.2,2.2,0,0,1-1,.26,3.5,3.5,0,0,1-1.61-.43c-2.46-1.27-4.94-5.15-5.32-8.3-.32-2.74,1-5.32,3-6A2.81,2.81,0,0,1,7,7.2,4,4,0,0,1,9.85,8.79a2,2,0,0,0,2.2.59l.24-.11a2,2,0,0,0,.48.06,2,2,0,0,0,1.49-.66A3.91,3.91,0,0,1,17,7.2a2.81,2.81,0,0,1,.94.16C20,8,21.27,10.61,21,13.35Z"/>
    </g>
  </g>
</svg>
