<svg xmlns="http://www.w3.org/2000/svg" viewBox="0 0 24 24">
  <g id="Cardio">
    <path d="M17.57,3.61a2.84,2.84,0,0,0-.72.09l-.17,0h0a5.15,5.15,0,0,0-.85.36l-.22.12h0A8.73,8.73,0,0,0,14.53,5c-.3.24-.57.47-.81.7l-.17.17L12,7.33,10.49,5.85c-.31-.29-.65-.59-1.05-.91a8,8,0,0,0-.83-.59L8.4,4.23h0a4.8,4.8,0,0,0-.83-.39l-.22-.07h0a3,3,0,0,0-.9-.14,5.44,5.44,0,0,0-1.94.32,3.86,3.86,0,0,0-1.33.83,3.64,3.64,0,0,0-.81,1.3,5.69,5.69,0,0,0-.33,2,4,4,0,0,0,.16,1.13,6.92,6.92,0,0,0,.51,1.25c.16.3.35.61.57.57H6.71L7.89,9.44a1.23,1.23,0,0,1,.92-.56h.11a1.13,1.13,0,0,1,1,.62l.05.09,1.69,4.18,1.88-4a1.13,1.13,0,0,1,.94-.66h.11a1.32,1.32,0,0,1,.87.34l.09.09,1.74,1.92a.83.83,0,0,1-1.17,1.18l-.07-.06-1.31-1.45-2.13,4.54a1.1,1.1,0,0,1-.89.62h-.1a1.09,1.09,0,0,1-1-.58l0-.09L8.8,11.13,8,12.39a1.71,1.71,0,0,1-.21.26l-.08.08A1.11,1.11,0,0,1,7.1,13H4.7L12,20.18l7.53-7.39a11.21,11.21,0,0,0,.79-.88l.19-.23h0a8.39,8.39,0,0,0,.66-1l.15-.26h0a5.26,5.26,0,0,0,.42-1l.09-.26h0A3.81,3.81,0,0,0,22,8.05a5.85,5.85,0,0,0-.32-2A3.45,3.45,0,0,0,21,4.9l-.13-.13h0A3.63,3.63,0,0,0,19.74,4l-.2-.08h0A5.38,5.38,0,0,0,17.57,3.61ZM17.49,1.5A7.57,7.57,0,0,1,20.21,2a6,6,0,0,1,2.05,1.29,5.62,5.62,0,0,1,1.3,2.05A7.9,7.9,0,0,1,24,8a5.85,5.85,0,0,1-.25,1.71,7.49,7.49,0,0,1-.68,1.64,9.81,9.81,0,0,1-1,1.51,10.6,10.6,0,0,1-.92,1.06l-.24.24-8.19,8a1,1,0,0,1-.73.3,1.11,1.11,0,0,1-.67-.23l-.09-.07L3.05,14.13a13.53,13.53,0,0,1-1.16-1.31,11,11,0,0,1-1-1.5A8.74,8.74,0,0,1,.25,9.7,6,6,0,0,1,0,8,7.67,7.67,0,0,1,.45,5.3a5.75,5.75,0,0,1,1.3-2A6,6,0,0,1,3.8,2,7.37,7.37,0,0,1,6.49,1.5,5.17,5.17,0,0,1,8,1.74a7.43,7.43,0,0,1,1.47.64,9.62,9.62,0,0,1,1.32.9c.42.34.81.67,1.17,1a11.88,11.88,0,0,1,1.16-1,9.23,9.23,0,0,1,1.34-.9A8.1,8.1,0,0,1,16,1.74,5,5,0,0,1,17.49,1.5Z" style="fill-rule: evenodd"/>
  </g>
</svg>
