<svg xmlns="http://www.w3.org/2000/svg" viewBox="0 0 24 24">
  <g id="Coach">
    <path d="M6.66,1.39l0,.06.95,2.13a.72.72,0,0,1-.35.91.84.84,0,0,1-.89-.2l-.06-.12-1-2.12a.78.78,0,0,1,0-.6.68.68,0,0,1,.39-.35A.77.77,0,0,1,6.66,1.39Zm4.6-.31a.81.81,0,0,1,.41.83l0,.07-.84,2.17a.73.73,0,0,1-.89.4.87.87,0,0,1-.49-.77l0-.13.84-2.17a.77.77,0,0,1,.41-.42A.68.68,0,0,1,11.26,1.08ZM2.49,3.57l.06,0,2,1.26a.74.74,0,0,1,.21,1,.87.87,0,0,1-.85.32l-.13-.07L1.79,4.81a.76.76,0,0,1-.33-.5.69.69,0,0,1,.13-.52A.78.78,0,0,1,2.49,3.57ZM8,14.06a1,1,0,1,0,1,1A1,1,0,0,0,8,14.06Zm0-1.72a2.71,2.71,0,1,1-2.71,2.71A2.7,2.7,0,0,1,8,12.34ZM21.17,6H21.1L10.24,8.13V8.2A2,2,0,0,1,9,10l-.12.05A2.06,2.06,0,0,1,6.35,9l0-.09h0a6.21,6.21,0,0,0-4.37,5.73v.2a6.17,6.17,0,1,0,12.33,0,6.27,6.27,0,0,0-.16-1.43L14,13.16l-.29-1,7.92-4.79a.41.41,0,0,0,.19-.43l0-.07-.25-.65A.41.41,0,0,0,21.17,6Zm2.41-.73.31.83a1.8,1.8,0,0,1-.74,2.15l-7.37,4.61a8.24,8.24,0,0,1,.31,2.24A8,8,0,0,1,8,23a7.87,7.87,0,0,1-8-7.94A8,8,0,0,1,6.94,7v.1l.24.72a.88.88,0,0,0,1.12.57A.91.91,0,0,0,9,7.35l-.24-.7L21.54,4.07A1.8,1.8,0,0,1,23.58,5.22Z" fill-rule="evenodd"/>
  </g>
</svg>
