<svg xmlns="http://www.w3.org/2000/svg" viewBox="0 0 24 24">
  <g id="Lungs">
    <path d="M3.71,23.09c-1.62,0-3.16-.58-3.55-1.74-.6-1.8.56-10.42,2.26-13S5.94,4.81,7.91,5.15c1.7.3,1.89,2.55,1.89,4.22a1.24,1.24,0,0,1-.31.83,1,1,0,0,1-1.47,0,1.21,1.21,0,0,1-.31-.82,5.5,5.5,0,0,0-.22-1.93c-.75-.1-1.89.1-3.4,2.35C3,10.9,1.92,18.61,2.11,20.47c1.46.73,4.92.09,5.52-2.19a9.4,9.4,0,0,0,.09-4c-.16-1,1-1.74,1.66-1.11a1.22,1.22,0,0,1,.41.77C10.74,19.21,8.44,23,3.71,23.09Zm16.57,0a6.79,6.79,0,0,1-1.86-.26,5.67,5.67,0,0,1-4-3.67,11.31,11.31,0,0,1-.23-5.24,1.22,1.22,0,0,1,.41-.77,1,1,0,0,1,.78-.22,1.16,1.16,0,0,1,.88,1.33,9.37,9.37,0,0,0,.1,4A3.51,3.51,0,0,0,19,20.58a4.85,4.85,0,0,0,2.92-.11,32.5,32.5,0,0,0-.32-4.55A16.79,16.79,0,0,0,19.9,9.79c-1.52-2.25-2.66-2.45-3.41-2.35a.83.83,0,0,0,0,.12,6,6,0,0,0-.19,1.81,1.25,1.25,0,0,1-.3.82,1,1,0,0,1-.74.35,1,1,0,0,1-.74-.34,1.24,1.24,0,0,1-.31-.83c0-1.67.19-3.92,1.89-4.22,2-.34,3.83.75,5.51,3.24h0c1.71,2.54,2.87,11.16,2.27,13C23.45,22.51,21.9,23.09,20.28,23.09ZM15.92,10.7H14a1,1,0,0,1-1-1v-8a1,1,0,0,0-2,0v8a1,1,0,0,1-1,1H8.08a1,1,0,0,0,0,2H10a3,3,0,0,0,2-.78,3,3,0,0,0,2,.78h1.93a1,1,0,0,0,0-2Z" fill-rule="evenodd"/>
  </g>
</svg>
