<svg xmlns="http://www.w3.org/2000/svg" viewBox="0 0 24 24">
  <g id="Apple">
    <path d="M6.49,1C8.14.71,9,.82,9.85,1.34a2.84,2.84,0,0,1,.86,1.71,2.77,2.77,0,0,1-2-.14A5,5,0,0,1,6.49,1Zm7.67,11.09a.84.84,0,0,0-.91.89,2.5,2.5,0,0,0,.56,1.4l.06.06a1.43,1.43,0,0,0,2,.21l.07-.09a1.1,1.1,0,0,0,.23-.93,1.75,1.75,0,0,0-.57-1A2.56,2.56,0,0,0,14.16,12.09Zm-3.87.54a2.56,2.56,0,0,0-1.43.56,1.75,1.75,0,0,0-.57,1,1.1,1.1,0,0,0,.23.93l.07.09.08.07A1.47,1.47,0,0,0,10.58,15l.06-.06.1-.14a2.39,2.39,0,0,0,.46-1.26A.84.84,0,0,0,10.29,12.63Zm12.64,1c-.45,3.84-3.32,8.26-6.38,9.84a5.54,5.54,0,0,1-2.49.65,4.25,4.25,0,0,1-2-.48.21.21,0,0,0-.18,0,4.34,4.34,0,0,1-2,.48h0a5.56,5.56,0,0,1-2.49-.65c-3.06-1.58-5.93-6-6.38-9.84S2.44,6.44,5.38,5.46A4.89,4.89,0,0,1,7,5.2a5.61,5.61,0,0,1,4,1.85A9.92,9.92,0,0,1,13.91.17a1,1,0,0,1,1.41.09,1,1,0,0,1-.09,1.41C13.58,3.12,13.09,5.5,13,7.14A5.65,5.65,0,0,1,17,5.2a4.89,4.89,0,0,1,1.58.26C21.56,6.44,23.38,9.86,22.93,13.59ZM18,7.36A2.81,2.81,0,0,0,17,7.2a3.91,3.91,0,0,0-2.78,1.47,2,2,0,0,1-1.49.66,2,2,0,0,1-.48-.06l-.24.11a2,2,0,0,1-2.2-.59A4,4,0,0,0,7,7.2,2.81,2.81,0,0,0,6,7.36c-2,.67-3.29,3.25-3,6,.38,3.15,2.86,7,5.32,8.3a3.5,3.5,0,0,0,1.61.43,2.2,2.2,0,0,0,1-.26,2.25,2.25,0,0,1,2,0,2.27,2.27,0,0,0,1.05.26,3.54,3.54,0,0,0,1.57-.43c2.46-1.27,4.94-5.15,5.32-8.3C21.27,10.61,20,8,18,7.36Z"/>
  </g>
</svg>
