<svg xmlns="http://www.w3.org/2000/svg" viewBox="0 0 24 24">
  <g id="Carrot">
    <path d="M12.41,2.16V2.1c-.09-1.11-.84-1.11-.9,0a.4.4,0,0,1-.68.28c-.42-.37-1.5-.79-1.52.16,0,.53.41.73.85.73a.42.42,0,0,1,.07.83c-.4.18-1.34.22-1.08,1,.2.6,1.06.25,1.48,0a.42.42,0,0,1,.49,0l.08.07a2.2,2.2,0,0,1,.57,1.24h.38a2.12,2.12,0,0,1,.63-1.31l0,0,.06,0a.38.38,0,0,1,.33,0l.06,0c.33.22,1.1.62,1.41.16s-.33-.93-.83-1.08l-.07,0-.18,0a.42.42,0,0,1,.16-.82c.44,0,.85-.2.83-.73,0-.92-1-.54-1.45-.19L13,2.44A.41.41,0,0,1,12.41,2.16ZM11,8.16a2.26,2.26,0,0,0-1.56,1.89v.68h2.84a.23.23,0,0,1,0,.43H9.43l0,.39,0,.48c.07.74.17,1.64.3,2.59l.1.64.09.6h2.54a.22.22,0,0,1,0,.41H10.07l.11.65c.32,1.71,1,5,1.83,5.48.58-.35,1.12-2.24,1.39-3.38l.06-.26.07-.33H11.6a.22.22,0,0,1,0-.41h2l.1-.5c.23-1.18.43-2.42.57-3.56l0-.47H12.13a.21.21,0,0,1,0-.41h2.28l0-.43.06-.61c.06-.64.09-1.18.1-1.56v-.29A2.26,2.26,0,0,0,12.88,8.1a1.28,1.28,0,0,1-.71.31h-.32a1.26,1.26,0,0,1-.8-.28ZM10.59.8A1.54,1.54,0,0,1,13.21.66l.07.1.05.09.05,0,.16,0,.16,0,.15,0a1.72,1.72,0,0,1,2,1.78,1.92,1.92,0,0,1-.21,1l-.06.11,0,.06.06.06a1.71,1.71,0,0,1,.26,2l-.06.12-.07.1a1.8,1.8,0,0,1-2.07.71l-.08,0-.09,0-.09,0v0a3.78,3.78,0,0,1,2.79,3.51,16.9,16.9,0,0,1-.11,2.23l0,.45,0,.46,0,.11,0,.08v.22c-.15,1.44-.42,3.11-.75,4.69l0,.1,0,.1,0,.08v.13c-.14.68-.37,1.57-.61,2.33a4.43,4.43,0,0,1-1.66,2.69,1.62,1.62,0,0,1-1.62,0c-.94-.55-1.42-1.69-2-3.74C9,19.06,8.75,18,8.57,17l-.07-.42V16.4l0-.08,0-.1,0-.11C8.18,14.68,8,13.18,7.89,12l0-.28,0-.46V10.1a3.79,3.79,0,0,1,2.69-3.47l0-.06v0l-.13,0-.09,0-.09,0-.17,0A1.74,1.74,0,0,1,7.94,5.53a1.67,1.67,0,0,1,.25-1.78l.08-.08,0,0-.07-.11A1.88,1.88,0,0,1,8,2.8V2.53A1.77,1.77,0,0,1,10,.72l.29.05.15,0,.09,0Z" fill-rule="evenodd"/>
  </g>
</svg>
