<svg xmlns="http://www.w3.org/2000/svg" viewBox="0 0 24 24">
  <g id="Tooth">
    <path d="M8.59,3.43a.86.86,0,1,1,0,1.71A.85.85,0,0,0,7.74,6,.86.86,0,0,1,6,6,2.57,2.57,0,0,1,8.59,3.43ZM6.88,1.72A2.56,2.56,0,0,0,4.33,4.15v1A18,18,0,0,0,5,11.36l.12.38.07.2a13.56,13.56,0,0,1,.64,4.19v.65c0,.47,0,.92,0,1.52l-.05,1.06a21.12,21.12,0,0,0,0,2.51l0,.28,0,0a.93.93,0,0,0,.22.08l.11,0h.39l0-.16A13.54,13.54,0,0,0,6.9,20.6L7,20.22a14.64,14.64,0,0,1,.77-3.33,1.3,1.3,0,0,1,.08-.17c.24-.5.72-1.33,1.38-2.4L10,13.09l.52-.82,0,0a1.91,1.91,0,0,1,.34-.37,1.81,1.81,0,0,1,2.59.26,1.34,1.34,0,0,1,.18.28l.2.38a31.83,31.83,0,0,1,1.79,3.91l.79,2.39,1,3.1,0,0a.55.55,0,0,0,.36.05h.07a1.23,1.23,0,0,1,.32-.07.05.05,0,0,0,.05,0h0l0-.35c0-.47.06-1.06.09-1.93l.07-2A46.33,46.33,0,0,1,18.8,12a1.16,1.16,0,0,1,0-.18,32.47,32.47,0,0,0,.87-7.45,2.66,2.66,0,0,0-2.46-2.59h-.36a11.84,11.84,0,0,0-2.05.33l-.33.09a13.41,13.41,0,0,1-2.36.42H11.9a7.32,7.32,0,0,1-1.85-.37A11.39,11.39,0,0,0,6.88,1.72ZM17.16,0a4.39,4.39,0,0,1,4.28,4.28,33.84,33.84,0,0,1-.93,7.89,44.67,44.67,0,0,0-.34,5.66L20.11,20c0,1-.08,1.83-.15,2.45a1.79,1.79,0,0,1-1.56,1.45,2.3,2.3,0,0,1-2.46-.73L15.88,23l-.11-.32L14,17.23a35.47,35.47,0,0,0-1.87-4,.1.1,0,0,0-.17,0l-.71,1.13c-.18.28-.37.6-.57.93l-.24.39c-.44.72-.85,1.42-1,1.83a12.37,12.37,0,0,0-.69,2.93A15.08,15.08,0,0,1,8.12,23a1.7,1.7,0,0,1-1.58,1H6c-1.11-.13-1.88-.73-2-1.53a21.77,21.77,0,0,1,0-3.23l0-.62a16.81,16.81,0,0,0-.57-6.32,19.57,19.57,0,0,1-.94-6.83L2.6,5V4.28A4.28,4.28,0,0,1,6.88,0a12.67,12.67,0,0,1,3.67.57A6.71,6.71,0,0,0,12,.86,10.83,10.83,0,0,0,13.71.58L14,.5A14.3,14.3,0,0,1,17.16,0Z" fill-rule="evenodd"/>
  </g>
</svg>
