<svg xmlns="http://www.w3.org/2000/svg" viewBox="0 0 24 24">
  <g id="Cog">
    <path d="M12,9.58a2.43,2.43,0,1,0,1.75,4.14A2.33,2.33,0,0,0,14.47,12,2.45,2.45,0,0,0,12,9.58Zm0-2.12a4.6,4.6,0,0,1,3.28,1.32A4.44,4.44,0,0,1,16.62,12,4.62,4.62,0,1,1,12,7.46Zm1.83-5.35H10.22l-.27,3-.59.24a7,7,0,0,0-1.77,1l-.52.41L4.23,5.5,2.42,8.57,5,10.36,4.88,11a5.31,5.31,0,0,0,0,2l.09.65L4.43,14,2.32,15.44l1.81,3,2.81-1.27.52.37a8.23,8.23,0,0,0,1.8,1l.59.25.27,3h3.61l.27-3,.59-.24a7.54,7.54,0,0,0,1.77-1l.52-.42,2.84,1.28,1.81-3.08-2.39-1.79.08-.61a6.91,6.91,0,0,0,.1-1,6.64,6.64,0,0,0-.1-1l-.09-.64,2.55-1.79L19.81,5.52,17,6.79l-.51-.38a8.3,8.3,0,0,0-1.81-1l-.59-.25ZM14.32,0a1.65,1.65,0,0,1,1.59,1.32v.11l.21,2.27a9.66,9.66,0,0,1,1.13.64l2.06-.93A1.58,1.58,0,0,1,21.43,4L23.77,7.9A1.59,1.59,0,0,1,23.33,10h0l-1.88,1.32q0,.32,0,.66c0,.23,0,.46,0,.68L23.19,14a1.6,1.6,0,0,1,.43,2.12L21.34,20a1.65,1.65,0,0,1-2,.68l0,0-2.09-.95A8.52,8.52,0,0,1,16,20.3l-.2,2.24A1.61,1.61,0,0,1,14.21,24H9.63A1.64,1.64,0,0,1,8,22.68l0-.11L7.81,20.3a10.41,10.41,0,0,1-1.12-.64l-2.07.93a1.53,1.53,0,0,1-1.22.12A1.68,1.68,0,0,1,2.53,20L.23,16.1A1.58,1.58,0,0,1,.67,14l0,0,2-1.33a3.28,3.28,0,0,1,0-.64c0-.23,0-.45,0-.66L.77,10A1.59,1.59,0,0,1,.34,7.9L2.61,4.05a1.66,1.66,0,0,1,2-.67l.05,0,2.09.94A9.79,9.79,0,0,1,7.92,3.7l.2-2.24A1.61,1.61,0,0,1,9.74,0Z" fill-rule="evenodd"/>
  </g>
</svg>
