<svg xmlns="http://www.w3.org/2000/svg" viewBox="0 0 24 24">
  <g id="Dashboard">
    <path d="M12,1.53A12.13,12.13,0,0,1,24,13.78a12.32,12.32,0,0,1-3.54,8.69A20.72,20.72,0,0,0,12,20.78a20.87,20.87,0,0,0-8.46,1.68A12.35,12.35,0,0,1,0,13.78,12.13,12.13,0,0,1,12,1.53Zm0,2.19A9.7,9.7,0,0,0,5,6.67a10.21,10.21,0,0,0-.88,13.2A23.52,23.52,0,0,1,12,18.6a23.69,23.69,0,0,1,7.86,1.27A10.21,10.21,0,0,0,19,6.67,9.7,9.7,0,0,0,12,3.72Zm1.49,12.73a1.68,1.68,0,0,1-2.34.64,1.77,1.77,0,0,1-.63-2.39,1.71,1.71,0,0,1,1.23-.85l3.94-7a1.05,1.05,0,0,1,1.46-.4A1.1,1.1,0,0,1,17.54,8L13.6,15A1.76,1.76,0,0,1,13.49,16.45Z" fill-rule="evenodd"/>
  </g>
</svg>
