<svg xmlns="http://www.w3.org/2000/svg" viewBox="0 0 24 24">
  <g id="Document">
    <path d="M16.41,7.05a1.06,1.06,0,0,1,.94,1,1.05,1.05,0,0,1-.76,1.11l-.18,0H7.59a1.06,1.06,0,0,1-.18-2.09Zm0,4.36a1.06,1.06,0,0,1,.18,2.09l-.18,0H7.59a1.05,1.05,0,0,1-.18-2.08l.18,0Zm0,4.39a1.05,1.05,0,0,1,.18,2.08h-9a1.05,1.05,0,0,1-.18-2.06l.18,0Zm.37-13.69H4.1V21.89H19.9l0-16.57h-2a1,1,0,0,1-1-.84V4.29ZM17.91,0a1,1,0,0,1,.75.31l3,3.09a1,1,0,0,1,.3.73V23a1,1,0,0,1-1.05,1H3.07a1,1,0,0,1-1-1V1.05a1,1,0,0,1,1-1Z" fill-rule="evenodd"/>
  </g>
</svg>
