<svg id="Expand" xmlns="http://www.w3.org/2000/svg" viewBox="0 0 24 24">
  <path d="M1.06,23.81H5.74a1.07,1.07,0,0,0,0-2.13H3.62l6.27-6.27a1.06,1.06,0,0,0-1.5-1.5L2.13,20.18v-2.1A1.07,1.07,0,0,0,1.07,17a1,1,0,0,0-.75.32,1,1,0,0,0-.31.75v4.67A1.06,1.06,0,0,0,1.06,23.81ZM0,1.06V5.74a1.07,1.07,0,0,0,2.13,0V3.62L8.4,9.89a1.07,1.07,0,0,0,1.5,0,1.05,1.05,0,0,0,0-1.5L3.64,2.13h2.1A1.06,1.06,0,0,0,6.81,1.07,1,1,0,0,0,6.49.32,1,1,0,0,0,5.74,0H1.08A1.06,1.06,0,0,0,0,1.06ZM22.76,0H18.08A1.06,1.06,0,0,0,17,1.06a1.06,1.06,0,0,0,1.06,1.07h2.11L13.93,8.4a1.06,1.06,0,0,0,1.5,1.5l6.26-6.26v2.1a1.06,1.06,0,0,0,1.06,1.07,1,1,0,0,0,.75-.32,1,1,0,0,0,.31-.75V1.08A1.07,1.07,0,0,0,22.76,0Zm1,22.74V18.08a1.07,1.07,0,0,0-2.13,0v2.12l-6.27-6.26a1.06,1.06,0,0,0-1.5,1.5l6.26,6.26h-2.1a1.07,1.07,0,0,0-.76,1.82,1.08,1.08,0,0,0,.75.31h4.67A1.07,1.07,0,0,0,23.81,22.75Z" fill-rule="evenodd"/>
</svg>
