<svg xmlns="http://www.w3.org/2000/svg" viewBox="0 0 24 24">
  <g id="External">
    <path d="M16.83.09h5.85l.14,0-.17,0a1.3,1.3,0,0,1,.9.36L23.41.34l.08.08.06,0a1.33,1.33,0,0,1,.33.67v.06l0,.14V7.15a1.25,1.25,0,0,1-2.48.22l0-.22V4.36l-8.51,8.53A1.26,1.26,0,0,1,11.3,13l-.19-.14a1.26,1.26,0,0,1,0-1.78L19.64,2.6H16.83a1.26,1.26,0,0,1-1.22-1.14,1.26,1.26,0,0,1,1-1.34l.23,0h0ZM1.35.09h9.26a1.25,1.25,0,0,1,.22,2.48l-.22,0h-8V21.4H21.4V13.26A1.25,1.25,0,0,1,23.88,13l0,.23v9.4a1.25,1.25,0,0,1-1,1.22l-.23,0H1.35a1.26,1.26,0,0,1-1.23-1l0-.22V1.35a1.26,1.26,0,0,1,1-1.23l.23,0h0Z" fill-rule="evenodd"/>
  </g>
</svg>
