<svg xmlns="http://www.w3.org/2000/svg" viewBox="0 0 24 24">
  <g id="Heart_Hollow" data-name="Heart Hollow">
    <path d="M17.49,1.5a5.12,5.12,0,0,0-1.55.24,8,8,0,0,0-1.44.64,9.23,9.23,0,0,0-1.34.9A11.88,11.88,0,0,0,12,4.3c-.36-.35-.75-.68-1.17-1a9.62,9.62,0,0,0-1.32-.9A7.43,7.43,0,0,0,8,1.74,5.17,5.17,0,0,0,6.49,1.5,7.37,7.37,0,0,0,3.8,2a6,6,0,0,0-2,1.29A5.75,5.75,0,0,0,.45,5.3,7.67,7.67,0,0,0,0,8,6,6,0,0,0,.25,9.7a8.74,8.74,0,0,0,.66,1.62,11,11,0,0,0,1,1.5,13.53,13.53,0,0,0,1.16,1.31l8.19,8.07a1.15,1.15,0,0,0,.76.3,1,1,0,0,0,.73-.3l8.2-8a13.47,13.47,0,0,0,1.15-1.3,9.81,9.81,0,0,0,1-1.51,8,8,0,0,0,.68-1.64A5.85,5.85,0,0,0,24,8a7.9,7.9,0,0,0-.44-2.69,5.62,5.62,0,0,0-1.3-2A6,6,0,0,0,20.21,2,7.57,7.57,0,0,0,17.49,1.5Zm0,2.11a5.44,5.44,0,0,1,1.94.32h0a3.84,3.84,0,0,1,1.3.81h0A3.57,3.57,0,0,1,21.54,6a5.77,5.77,0,0,1,.32,2A3.73,3.73,0,0,1,21.7,9.1h0a5.71,5.71,0,0,1-.51,1.21h0a9.85,9.85,0,0,1-.8,1.22h0a11.38,11.38,0,0,1-1,1.1L12,19.94l-7.42-7.3a11.28,11.28,0,0,1-1-1.11,8.85,8.85,0,0,1-.79-1.2A7,7,0,0,1,2.3,9.1,3.87,3.87,0,0,1,2.14,8a5.75,5.75,0,0,1,.32-2,3.45,3.45,0,0,1,2.12-2.1,5.23,5.23,0,0,1,1.91-.32,2.91,2.91,0,0,1,.89.14h0a5.19,5.19,0,0,1,1,.45h0a7.52,7.52,0,0,1,1,.7c.39.31.72.61,1,.9L12,7.28l1.49-1.5a11.07,11.07,0,0,1,1-.85,8.09,8.09,0,0,1,1.05-.71h0a5.38,5.38,0,0,1,1-.47h0A2.74,2.74,0,0,1,17.49,3.61Z" fill-rule="evenodd"/>
  </g>
</svg>
