<svg xmlns="http://www.w3.org/2000/svg" viewBox="0 0 24 24">
  <g id="Home">
    <path id="_Compound_Path_" data-name="&lt;Compound Path&gt;" d="M23.69,11.68,12.76.86A1.1,1.1,0,0,0,12,.55a1.12,1.12,0,0,0-.76.31L.31,11.68a1.07,1.07,0,0,0,0,1.5,1.09,1.09,0,0,0,1.52,0l.53-.52v9.72a1.06,1.06,0,0,0,1.07,1.07H8.57a1.06,1.06,0,0,0,1.07-1.07v-7h4.72v7a1.06,1.06,0,0,0,1.07,1.06h5.14l.18,0h.05a1.07,1.07,0,0,0,.84-1V12.66l.53.52a1.09,1.09,0,0,0,1.52,0A1.07,1.07,0,0,0,23.69,11.68Zm-4.19-.94V21.31h-3v-7h0a1.07,1.07,0,0,0-1.07-1.06H8.57A1.07,1.07,0,0,0,7.5,14.31v7h-3V10.73a1.1,1.1,0,0,0,0-.18L12,3.11l7.52,7.44a1.23,1.23,0,0,0,0,.19Z" style="fill-rule: evenodd"/>
  </g>
</svg>
