<svg xmlns="http://www.w3.org/2000/svg" viewBox="0 0 24 24">
  <g id="Hourglass">
    <path d="M6.53,19.63a6.24,6.24,0,0,0-.85,2.15H18.33a6.57,6.57,0,0,0-1-2.34h0l-3.73-5.58L12.85,15a1,1,0,0,1-.85.45,1,1,0,0,1-.85-.45l-.77-1.15L6.56,19.58ZM11.62,12h0l.39.58,2.48-3.72h-5Zm6.7-9.78H5.68a6.55,6.55,0,0,0,1,2.34h0L8.1,6.74h7.8l1.54-2.32,0,0A6.24,6.24,0,0,0,18.32,2.22Zm2.17,20.49a.62.62,0,0,1,0,.13,1.07,1.07,0,0,1-1.06,1.07H4.56A1.07,1.07,0,0,1,3.5,22.84a1.23,1.23,0,0,1,0-.19,8.4,8.4,0,0,1,1.22-4l.06-.12L5,18.29H5L9.15,12,4.94,5.7h0A8.5,8.5,0,0,1,3.51,1.3a.66.66,0,0,1,0-.14A1.07,1.07,0,0,1,4.56.09H19.44A1.07,1.07,0,0,1,20.5,1.16c0,.05,0,.11,0,.16a8.51,8.51,0,0,1-1.22,4.05.75.75,0,0,1-.07.12l-.15.22h0L14.85,12l4.21,6.3h0A8.44,8.44,0,0,1,20.49,22.71Zm-8.55-2.13a2,2,0,1,1,2-2A2,2,0,0,1,11.94,20.58Z" fill-rule="evenodd"/>
  </g>
</svg>
