<svg xmlns="http://www.w3.org/2000/svg" viewBox="0 0 24 24">
  <g id="Key">
    <path d="M21.86,7.73a5.58,5.58,0,0,0-11.15,0,5.49,5.49,0,0,0,1,3.12l-1.54,1.54h0l-8,8v1.48H4.72V20.05s0-.07,0-.1h0l0-.1h0a1.05,1.05,0,0,1,.91-.75h2V17.28a.49.49,0,0,1,0-.12,1.07,1.07,0,0,1,1.07-1.07h1.93v-.82h0A1.07,1.07,0,0,1,11,14.5l1.5-1.5.17-.14.5-.5a5.57,5.57,0,0,0,8.66-4.63Zm2.14,0A7.72,7.72,0,0,1,13.6,15l-.75.74v1.46h0a1.07,1.07,0,0,1-.31.76,1.11,1.11,0,0,1-.65.31h-2v1.92h0a1.07,1.07,0,0,1-.31.76,1.11,1.11,0,0,1-.65.31h-2v1.67A1.07,1.07,0,0,1,5.79,24H1.07a1.06,1.06,0,0,1-.88-.47A1.08,1.08,0,0,1,0,22.91V19.86a.11.11,0,0,1,0-.05.28.28,0,0,1,0-.09H0a1.05,1.05,0,0,1,.32-.57l8.71-8.72A7.72,7.72,0,1,1,24,7.73Zm-5.57-.22a2,2,0,1,1-2-2A2,2,0,0,1,18.43,7.51Z" fill-rule="evenodd"/>
  </g>
</svg>
