<svg xmlns="http://www.w3.org/2000/svg" viewBox="0 0 24 24">
  <g id="Link">
    <path d="M16.31,14.53a6.8,6.8,0,0,0-.6-2.78l0-.05-.09-.18-.09-.18a4.47,4.47,0,0,0-.26-.43l0-.06a9.45,9.45,0,0,0-.71-.92,7.47,7.47,0,0,0-.81-.75A1.11,1.11,0,0,0,13.07,9,1.07,1.07,0,0,0,12,10.05a1.09,1.09,0,0,0,.42.85h0c.12.1.54.52.63.62a4.68,4.68,0,0,1-.17,6.22l-2.8,2.77a4.75,4.75,0,0,1-6.57-.1,4.65,4.65,0,0,1-.09-6.52l1.85-1.83.52-.52v0L5.57,8.92,5,9.33l-.31.28-2.83,2.8A6.75,6.75,0,0,0,0,17.1,6.87,6.87,0,0,0,11.58,22l2.84-2.82.37-.42A6.74,6.74,0,0,0,16.31,14.53Zm4.26-4.42a4.65,4.65,0,0,0-.09-6.52,4.75,4.75,0,0,0-6.57-.1L11.12,6.26a4.67,4.67,0,0,0-.18,6.22l.28.3.35.32h0A1.09,1.09,0,0,1,12,14,1.07,1.07,0,0,1,10.93,15a1.11,1.11,0,0,1-.62-.19c-.07-.06-.55-.47-.81-.75s-.35-.4-.5-.6-.44-.69-.45-.71l-.09-.17-.17-.34a6.75,6.75,0,0,1,.92-7s.12-.15.18-.21l.19-.21L12.42,2A6.87,6.87,0,0,1,24,6.9a6.75,6.75,0,0,1-1.89,4.69l-3,3a1.21,1.21,0,0,1-.13.12l-.54.41a16.12,16.12,0,0,0-.22-2.59v0Z" fill-rule="evenodd"/>
  </g>
</svg>
