<svg xmlns="http://www.w3.org/2000/svg" viewBox="0 0 24 24">
  <g id="Location">
    <path d="M12,4.3a4.57,4.57,0,1,0,4.59,4.57A4.58,4.58,0,0,0,12,4.3Zm0,2.14A2.43,2.43,0,1,1,9.56,8.87,2.43,2.43,0,0,1,12,6.44Zm-5.62,6.2h0L12,21l5.72-8.52,0-.05a6.66,6.66,0,0,0,1-3.55,6.77,6.77,0,1,0-12.4,3.74ZM12,24a1.08,1.08,0,0,1-.9-.48l-6.51-9.7v0a8.8,8.8,0,0,1-1.5-4.92,8.92,8.92,0,0,1,17.84,0,8.81,8.81,0,0,1-1.29,4.6.41.41,0,0,1-.07.11l-.15.24h0l-6.5,9.68A1.08,1.08,0,0,1,12,24Z" fill-rule="evenodd"/>
  </g>
</svg>
