<svg xmlns="http://www.w3.org/2000/svg" viewBox="0 0 24 24">
  <g id="Outbox">
    <path d="M16.06,3.65,12.75.31h0a1.4,1.4,0,0,0-.32-.22A1.12,1.12,0,0,0,12,0h0a1.06,1.06,0,0,0-.87.46L7.94,3.65a1.06,1.06,0,0,0,0,1.51,1.05,1.05,0,0,0,1.5,0l1.47-1.48V16.07a1.07,1.07,0,1,0,2.13,0V3.63l1.51,1.53a1.06,1.06,0,0,0,1.51,0A1.08,1.08,0,0,0,16.06,3.65Zm7.85,11.14v8.14s0,.07,0,.11a1.06,1.06,0,0,1-1.06,1H1.16A1.07,1.07,0,0,1,.09,22.93V14.79a1.07,1.07,0,0,1,1.07-1.08,1.07,1.07,0,0,1,1.06,1.08v7.07H21.78V14.79a1.07,1.07,0,1,1,2.13,0Z" fill-rule="evenodd"/>
  </g>
</svg>
