<svg xmlns="http://www.w3.org/2000/svg" viewBox="0 0 24 24">
  <g id="Phone">
    <path d="M4.31,2.08A4.14,4.14,0,0,0,2.18,5.2c-.2,1.65.46,3.68,2,6A31.4,31.4,0,0,0,8.06,16a31.12,31.12,0,0,0,4.39,3.68,10.79,10.79,0,0,0,5.72,2.23,4.09,4.09,0,0,0,3.68-2.18,1.07,1.07,0,0,0-.11-.22,12.94,12.94,0,0,0-2.83-2.92,8.58,8.58,0,0,0-2.86-1.76,2.38,2.38,0,0,0-1,.8,3.46,3.46,0,0,1-1.49,1.12l-.17.05h-.17c-.24,0-.86,0-2.33-1.17a16.14,16.14,0,0,1-2.45-2.44c-1-1.18-1.37-2.1-1.25-2.71l0-.07,0-.07A3.53,3.53,0,0,1,8.38,8.89a2.47,2.47,0,0,0,.79-1,5,5,0,0,0-1-1.9A22.71,22.71,0,0,0,6.08,3.5,5.54,5.54,0,0,0,4.31,2.08Zm13.86,22a12.83,12.83,0,0,1-6.92-2.59,33.7,33.7,0,0,1-4.71-3.95,32.45,32.45,0,0,1-4.2-5.15C.56,9.62-.21,7.11.05,4.94A6.38,6.38,0,0,1,3.28.18a1.91,1.91,0,0,1,1-.27c.88,0,1.91.63,3.24,2a24,24,0,0,1,2.4,2.88c1.25,1.79,1.62,2.9,1.29,3.84a4.43,4.43,0,0,1-1.4,1.9,4,4,0,0,0-.35.33,6.74,6.74,0,0,0,.7,1,12,12,0,0,0,3,2.72c.08-.08.19-.19.33-.35a4.41,4.41,0,0,1,1.88-1.41,2,2,0,0,1,.68-.12c1.19,0,2.92,1.19,4.16,2.19a15.23,15.23,0,0,1,3.41,3.58,2.2,2.2,0,0,1,.12,2.32A6.25,6.25,0,0,1,18.17,24.09Z" style="fill-rule: evenodd"/>
  </g>
</svg>
