<svg xmlns="http://www.w3.org/2000/svg" viewBox="0 0 24 24">
  <g id="Photograph">
    <path d="M7.28,8.93a2,2,0,1,0-2-2A2,2,0,0,0,7.28,8.93ZM2.14,21.86V19.1l5.49-5.49,5.79,5.78a1.07,1.07,0,0,0,.76.32,1,1,0,0,0,.75-.32,1.06,1.06,0,0,0,0-1.51L11,14l3.79-3.79,7.07,7.06v4.64ZM21.86,2.14v12l-6.31-6.3a1.05,1.05,0,0,0-1.51,0L9.49,12.43l-1.1-1.09a1.06,1.06,0,0,0-1.51,0L2.14,16.07V2.14ZM22.93,0H1.07A1.07,1.07,0,0,0,0,1.07V22.93A1.07,1.07,0,0,0,1.07,24H22.93A1.07,1.07,0,0,0,24,22.93V1.07A1.07,1.07,0,0,0,22.93,0Z" fill-rule="evenodd"/>
  </g>
</svg>
