<svg xmlns="http://www.w3.org/2000/svg" viewBox="0 0 24 24">
  <g id="Power">
    <path d="M18.15,3.72h0a10.59,10.59,0,0,0-1.07-.66L17,3l-.14-.07h0a1.06,1.06,0,0,0-.4-.08,1,1,0,0,0-1.06,1,1.08,1.08,0,0,0,.54.94,8.71,8.71,0,0,1,2.29,1.65l.22.22h0a9,9,0,0,1-.17,12.45,8.72,8.72,0,0,1-12.46,0A9,9,0,0,1,5.34,7c.15-.18.31-.35.48-.52A8.71,8.71,0,0,1,8.11,4.84a1.08,1.08,0,0,0,.54-.94A1.06,1.06,0,0,0,7.59,2.84a1.3,1.3,0,0,0-.4.09h0L7,3,7,3l-.09,0a11.1,11.1,0,0,0-1.18.74h0A11.08,11.08,0,0,0,12,23.91,11.09,11.09,0,0,0,18.15,3.72ZM11,10.94V1.16a1.05,1.05,0,1,1,2.1,0v9.78a1.05,1.05,0,1,1-2.1,0Z" fill-rule="evenodd"/>
  </g>
</svg>
