<svg xmlns="http://www.w3.org/2000/svg" viewBox="0 0 24 24">
  <g id="Shield">
    <path d="M12,21.53,7.36,17.92,20.63,5.39v9.4ZM3.37,3.86a17.1,17.1,0,0,1,3.5-1.17,24.2,24.2,0,0,1,10.26,0,17.36,17.36,0,0,1,2.4.71L5.6,16.55,3.37,14.8ZM22.3,2.28h0A22.41,22.41,0,0,0,12,0,23.31,23.31,0,0,0,1.71,2.27l-.05,0a1.08,1.08,0,0,0-.56.93V15.31a1.06,1.06,0,0,0,.43.84l9.66,7.55a1.16,1.16,0,0,0,.67.29h.26a1.16,1.16,0,0,0,.67-.29l9.63-7.52a1.07,1.07,0,0,0,.48-.88V3.22A1.05,1.05,0,0,0,22.3,2.28Z" fill-rule="evenodd"/>
  </g>
</svg>
