<svg xmlns="http://www.w3.org/2000/svg" viewBox="0 0 24 24">
  <g id="Supporter">
    <path id="_Compound_Path_" data-name="&lt;Compound Path&gt;" d="M16.05,14c5.05,0,8.67,5,7.83,7.78-.28.93-2,1.59-4.13,1.94l-.55.08a25.47,25.47,0,0,1-2.95.2H15.9c-3.52,0-7-.71-7.65-2.22C7,18.72,10.87,14.16,15.79,14Zm0,2.14h-.19c-3.35.11-6.18,3.08-5.68,4.69l0,.05v0h0l.08.05a5,5,0,0,0,1.23.46,17.53,17.53,0,0,0,3.94.48h.75a19.13,19.13,0,0,0,4.49-.53,4.8,4.8,0,0,0,1.1-.4l0,0v-.08a4.48,4.48,0,0,0-1.12-2.38l-.16-.18a6.2,6.2,0,0,0-4.26-2.12ZM6,9c3.78,0,6.5,3.48,5.87,5.45-.31.94-2.82,1.48-5.45,1.54H5.92C3.28,16,.67,15.5.19,14.45c-1-2.15,2-5.34,5.66-5.45Zm0,2H5.91c-2.12.06-3.85,1.61-3.93,2.4v0a5.59,5.59,0,0,0,.56.2l.18,0a12.93,12.93,0,0,0,2.8.32h.65a14.72,14.72,0,0,0,3.3-.36,3.17,3.17,0,0,0,.43-.13l.09,0,0-.09A4.66,4.66,0,0,0,6.25,11ZM16,2a5.5,5.5,0,0,1,.22,11H16a5.5,5.5,0,0,1-.22-11Zm0,2.14h-.13a3.37,3.37,0,0,0-.09,6.72h.35a3.36,3.36,0,0,0,.05-6.72ZM6,0a4,4,0,0,1,.16,8H6a4,4,0,0,1-.16-8ZM6,2H5.92a2,2,0,0,0-.1,4h.26a2,2,0,0,0,.07-4Z" style="fill-rule: evenodd"/>
  </g>
</svg>
