<svg xmlns="http://www.w3.org/2000/svg" viewBox="0 0 24 24">
  <g id="Sync">
    <path d="M3.22,12.73l.1,0-.06-.08ZM21,15.94a.86.86,0,0,1-.08.36h0l-.12.24A10,10,0,0,1,2.18,13.72l-.47.46A1,1,0,0,1,.36,12.83l2.18-2.17a1,1,0,0,1,.7-.28,1,1,0,0,1,.7.28l2.2,2.2a.94.94,0,0,1,0,1.35,1,1,0,0,1-1.35,0l-.7-.7A8,8,0,0,0,12,20a8,8,0,0,0,5.69-2.35,8.21,8.21,0,0,0,1.55-2.17h0a1,1,0,0,1,1.81.45ZM23.64,11l-2.18,2.17a.93.93,0,0,1-.7.27,1,1,0,0,1-.7-.27L17.86,11a.94.94,0,0,1,0-1.35,1,1,0,0,1,1.35,0l.63.62A8.05,8.05,0,0,0,12,4,8,8,0,0,0,4.75,8.51h0A1,1,0,0,1,3.9,9a1,1,0,0,1-1-1A.86.86,0,0,1,3,7.7H3l.12-.24a10,10,0,0,1,18.63,2.7l.52-.51A1,1,0,0,1,23.64,11Z" fill-rule="evenodd"/>
  </g>
</svg>
