<svg xmlns="http://www.w3.org/2000/svg" viewBox="0 0 24 24">
  <g id="Thumbs_Up" data-name="Thumbs Up">
    <path d="M13.5,2.24a2.94,2.94,0,0,1,1.13.25,1.05,1.05,0,0,1,.5.5,3.85,3.85,0,0,1,.27,1.69,4.15,4.15,0,0,1-.48,1.81l-1.5,3.07h6a1.42,1.42,0,0,1,1.09.47,1.35,1.35,0,0,1,.47,1v.07a2.13,2.13,0,0,1-.35,1.08l-.54.81.26.94a1.86,1.86,0,0,1,.05.42,1.82,1.82,0,0,1-.27,1l-.36.64.1.73a1.56,1.56,0,0,1,0,.31,2,2,0,0,1-.4,1.23l-.46.59v.74a1.9,1.9,0,0,1-.54,1.56,2.57,2.57,0,0,1-1.82.58H14.77a9.4,9.4,0,0,1-2.24-.27,28.68,28.68,0,0,1-2.93-.88,8.65,8.65,0,0,0-2.68-.68H3.06V11.39H7.37L7.9,11a11.61,11.61,0,0,0,2.49-2.69c.51-.66,1-1.23,1.38-1.65a4.34,4.34,0,0,0,1.08-2.32c.1-.5.23-1,.4-1.61a1.45,1.45,0,0,1,.25-.53M13.39.1a1.83,1.83,0,0,0-1.3.53,3.46,3.46,0,0,0-.9,1.55c-.18.62-.33,1.23-.44,1.8a2.44,2.44,0,0,1-.51,1.23A23.61,23.61,0,0,0,8.7,7a11.9,11.9,0,0,1-2,2.21H2.77a1.81,1.81,0,0,0-1.31.54,1.76,1.76,0,0,0-.54,1.29v9.16a1.76,1.76,0,0,0,.54,1.29,1.81,1.81,0,0,0,1.31.54H6.92a10.68,10.68,0,0,1,2,.57c1.19.41,2.23.72,3.13.94a12,12,0,0,0,2.73.32h1.86a4.6,4.6,0,0,0,3.27-1.15,4,4,0,0,0,1.23-3.14A4,4,0,0,0,22,17.06a4.08,4.08,0,0,0,0-.61,4.05,4.05,0,0,0,.55-2.06,3.58,3.58,0,0,0-.13-1,4.1,4.1,0,0,0,.71-2.33h0A3.49,3.49,0,0,0,22,8.51a3.55,3.55,0,0,0-2.6-1.09H16.85a6.24,6.24,0,0,0,.69-2.74A5.83,5.83,0,0,0,17,2,3.09,3.09,0,0,0,15.56.57,4.94,4.94,0,0,0,13.39.1Z"/>
  </g>
</svg>
