<svg xmlns="http://www.w3.org/2000/svg" viewBox="0 0 24 24">
  <g id="Transfer">
    <path d="M.34,18.43l3.6,3.67a1.15,1.15,0,0,0,1.63,0,1.18,1.18,0,0,0,0-1.65L3.93,18.77H22.85a1.17,1.17,0,0,0,0-2.34H3.94l1.63-1.64a1.18,1.18,0,0,0,0-1.66,1.16,1.16,0,0,0-.82-.34,1.12,1.12,0,0,0-.81.34L.34,16.77A1.19,1.19,0,0,0,.34,18.43ZM23.66,7.23l-3.61,3.64a1.12,1.12,0,0,1-.81.34,1.16,1.16,0,0,1-.82-.34,1.18,1.18,0,0,1,0-1.66l1.63-1.64H1.15a1.17,1.17,0,0,1,0-2.34H20.07L18.42,3.55a1.18,1.18,0,0,1,0-1.65,1.15,1.15,0,0,1,1.63,0l3.6,3.67A1.19,1.19,0,0,1,23.66,7.23Z" fill-rule="evenodd"/>
  </g>
</svg>
