<svg xmlns="http://www.w3.org/2000/svg" viewBox="0 0 24 24">
  <g id="User_Plus" data-name="User Plus">
    <path d="M21.54,1.6a.67.67,0,0,1,.67.68v1.1h1.11a.68.68,0,0,1,0,1.36H22.21V5.85a.68.68,0,1,1-1.35,0V4.74H19.75a.68.68,0,1,1,0-1.36h1.11V2.28A.67.67,0,0,1,21.54,1.6ZM10.4,9.25a1.88,1.88,0,1,0,1.88,1.88A1.89,1.89,0,0,0,10.4,9.25Zm0-2a3.9,3.9,0,1,1-3.9,3.9A3.9,3.9,0,0,1,10.4,7.23Zm0-3.61a8.38,8.38,0,0,0-5.1,15,5.71,5.71,0,0,1,5.1-3.18,5.61,5.61,0,0,1,5,3.28,8.38,8.38,0,0,0-5-15.13Zm0,13.87a3.77,3.77,0,0,0-3.33,2.06v.09l0,0,.39.13.16,0a12,12,0,0,0,2.88.28,11.82,11.82,0,0,0,2.83-.33l.15,0,.15,0,0-.07a3.9,3.9,0,0,0-3-2.12Zm0-15.89A10.4,10.4,0,1,1,0,12,10.4,10.4,0,0,1,10.4,1.6Z" fill-rule="evenodd"/>
  </g>
</svg>
