<svg xmlns="http://www.w3.org/2000/svg" viewBox="0 0 24 24">
  <g id="Volume">
    <path d="M10.23,5.58,6.84,9.66H2.14v4.68h4.7l.53.64h0l2.86,3.44Zm2.14-3V21.38a1.06,1.06,0,0,1-1.07,1.06,1.09,1.09,0,0,1-.84-.4L9.09,20.39h0L5.82,16.47H1.07A1.06,1.06,0,0,1,0,15.41V8.6a1.1,1.1,0,0,1,.08-.4v0l0-.07v0l0,0a1.08,1.08,0,0,1,.92-.52H5.82L10.46,2a1.07,1.07,0,0,1,1.91.65Zm9,3.08a9,9,0,0,0-4.64-2.45H16.5a1.06,1.06,0,0,0-.24,2.1h0a6.8,6.8,0,0,1,3.56,11.5,6.88,6.88,0,0,1-3.55,1.88h0a1.05,1.05,0,0,0-.86,1,1.07,1.07,0,0,0,1.07,1.07.83.83,0,0,0,.22,0h0A8.93,8.93,0,0,0,21.37,5.7Zm-4.55,8.13a2.56,2.56,0,0,0-.77-4.14h0a1,1,0,0,1-.6-1A1.07,1.07,0,0,1,16.5,7.66a1,1,0,0,1,.43.09h0a4.92,4.92,0,0,1,1.4,1,4.67,4.67,0,0,1,0,6.63,4.79,4.79,0,0,1-1.38.95h0a1.14,1.14,0,0,1-.45.1,1.06,1.06,0,0,1-.44-2h0A2.41,2.41,0,0,0,16.82,13.83Z" fill-rule="evenodd"/>
  </g>
</svg>
