<svg xmlns="http://www.w3.org/2000/svg" xmlns:xlink="http://www.w3.org/1999/xlink" viewBox="0 0 327 218">
  <defs>
    <symbol id="Backdrop" data-name="Backdrop" viewBox="0 0 327 218">
      <rect id="Rect" data-name="Rect" width="327" height="218" rx="8" fill="#fff"/>
    </symbol>
    <symbol id="Blob_4" data-name="Blob 4" viewBox="0 0 282 205">
      <path id="Blob" d="M222.92,188.31c68.7-40.08,70.86-73.58,40.13-116.36S167.2,38.38,116.57,7.77,0,41.87,0,117.41,154.21,228.39,222.92,188.31Z" fill="#fff1e8" fill-rule="evenodd"/>
    </symbol>
    <symbol id="Man_Celebrate" data-name="Man Celebrate" viewBox="0 0 127.58 179.38">
      <path id="Arm" d="M93.89,47.91l6.75-7.82a39.5,39.5,0,0,0,9-5.83c.51-.69,1-2-1.49-1.28s-5.22,1.32-5.74.51.82-2.15-.12-3.2q-.94-1-5.61,7.24l-4.61,5.21Z" fill="#d4a181" fill-rule="evenodd"/>
      <path id="Arm" data-name="Arm" d="M16.26,82.59Q9.69,93,7.87,95.43C7,96.63,5.57,102.81,5,106.87c-.21,1.64-1.53,1.68-2,1.36C-1.19,105.69.28,101.86.14,97.88c-.16-4.35,2.15-5.07,4-7.21q1.25-1.42,8.27-11Z" fill="#d4a181" fill-rule="evenodd"/>
      <path id="Coat-Back" d="M39.24,25.38,32.85,39.06C41.43,45.63,58.32,50.83,70,55c9.79,3.53,19.59-3.27,29.9-9.29l-3.31-8.86c-18.19,5.07-20.18,8.34-27.93,2.73C59.1,32.7,53.81,26.82,39.24,25.38Z" fill="#e87613" fill-rule="evenodd"/>
      <path id="Head-skin" data-name="Head-[skin]" d="M52.61,3.65c3.64,4.31,6,16.71,2.77,18.29-1.27.63-4.32.39-7.6-.74l4.58,12.55L41.56,36l0-18.12a12.44,12.44,0,0,1-5.1-8.07C35.11.08,49-.65,52.61,3.65Z" fill="#d4a181" fill-rule="evenodd"/>
      <path id="Path" d="M48.09,5.29C46.74,6.42,46,8.21,45.16,10.54a2.7,2.7,0,0,0-1,0,2.76,2.76,0,0,0-.91,5c-.43,1-.94,2.08-1.54,3.2-3.4-1.16-6.76-6-4.89-11.69a6.79,6.79,0,0,1,3.89-5.47A8,8,0,0,1,45.75.17a16.91,16.91,0,0,1,6.87.35c.61,2.87.24,3.84-4.53,4.77Z" fill="#191847" fill-rule="evenodd"/>
      <path id="Beard" d="M45.75,9c1.63,5.68,3.34,8.32,5.11,8,2.66-.57,4.56-2.74,5.73-3,.85-.18.89.93.49,1.84-.33.75-2.46,1.86-2.24,2.87s1.83-.15,2,.45c.21,1,.92,2.78-.8,3.15s-6.86.79-8.26-1.61Q46.33,18.25,44.33,10Z" fill="#191847" fill-rule="evenodd"/>
      <polygon id="Leg-skin" data-name="Leg-[skin]" points="36.98 69.38 53.91 127.47 61.87 171.09 69.86 171.09 61.89 69.38 36.98 69.38" fill="#d4a181" fill-rule="evenodd"/>
      <polygon id="Shadow" points="36.98 69.38 53.91 127.47 61.87 171.09 69.86 171.09 61.89 69.38 36.98 69.38" fill-opacity="0.1" fill-rule="evenodd"/>
      <path id="Leg-skin" data-name="Leg-[skin]" d="M29.14,69.38c1.19,30.18.72,46.64.45,49.38S27.82,139.87,17.53,172h8.36c13.62-30.83,18.38-49.2,19.94-53.25S52,98.25,58.75,69.38Z" fill="#d4a181" fill-rule="evenodd"/>
      <path id="Pant" d="M36.52,69.38q6.61,30,22.89,95.73H71.13c.86-45-2.82-74.6-9.19-95.73Z" fill="#1f28cf" fill-rule="evenodd"/>
      <path id="Pant" data-name="Pant" d="M29.17,69.38c1.16,30.18-1.85,59.91-11.18,96.19H30.52A405.22,405.22,0,0,0,60.6,69.38Z" fill="#313ae7" fill-rule="evenodd"/>
      <path id="Shoe" d="M16.6,178l.46-7.37q4,1.19,10.11-.92a39.09,39.09,0,0,0,15.31,6.08,2,2,0,0,1,1.59,2.34c0,.05,0,.11,0,.17l-.31,1.08H17.52Z" fill="#e4e4e4" fill-rule="evenodd"/>
      <path id="Shoe" data-name="Shoe" d="M60.14,178l.46-7.37q4,1.19,10.11-.92A39,39,0,0,0,86,175.79a2,2,0,0,1,1.59,2.34c0,.05,0,.11,0,.17l-.31,1.08H61.06Z" fill="#e4e4e4" fill-rule="evenodd"/>
      <path id="Shirt" d="M34.34,77.51l34.9-4.29c1.59-.19,1-2.46.63-3.59-4.3-13.08-16.46-26.26-18.8-45.34l-10.26-.35C34.13,38.35,33.27,55.19,34.34,77.51Z" fill="#dde3e9" fill-rule="evenodd"/>
      <path id="Coat-Front" d="M40.05,24A5.16,5.16,0,0,1,41,24l3.18-.21q19.2,44.28,15,60.4h0L27.77,88a120.71,120.71,0,0,1,1.52-24.88Q18.92,83.29,11.69,91.94h0l-7.47-1Q7.7,58.25,29.36,38.54A5.9,5.9,0,0,1,26,36.13c-4.49-6.18-3.61-10,.17-11.68S33.79,24.81,40.05,24Z" fill="#ff9b21" fill-rule="evenodd"/>
      <path id="Shade" d="M41.9,86.3,31.71,87.55q2-7,4-16.47Q38.39,81.76,41.9,86.3Z" fill="#e87613" fill-rule="evenodd"/>
      <path id="Path" data-name="Path" d="M118,18l-3.38,4.79a.64.64,0,0,1-.9.16.65.65,0,0,1-.16-.91l.19-.27-.36-.31c-.2-.18-.4-.34-.59-.5l.06-.09a5.55,5.55,0,0,0,.5-1.14l.26.21.53.44.35.31,2.43-3.45a.65.65,0,0,1,.91-.15A.65.65,0,0,1,118,18Z" fill="#ffbd94"/>
      <path id="Path" data-name="Path" d="M123.76,28.09a.69.69,0,0,1-.36.11.65.65,0,0,1-.55-.29,3.3,3.3,0,0,0-2.53-1.49,4.91,4.91,0,0,0-1.09,0,5.67,5.67,0,0,0-1.16.3,2.08,2.08,0,0,0-.47.26.64.64,0,0,1-.92,0,.66.66,0,0,1,0-.92,2.55,2.55,0,0,1,.63-.43l-.44-.55h0Q116,24.07,115,23l.43-.61.33-.47.07.07a26.35,26.35,0,0,1,2,2.26c.27.32.51.63.73.94a5.9,5.9,0,0,1,1.84-.1,4.61,4.61,0,0,1,3.49,2.06A.66.66,0,0,1,123.76,28.09Z" fill="#ffbd94"/>
      <path id="Path" data-name="Path" d="M123.64,16.44l-5.57,4.81a.65.65,0,0,0-.07.93.64.64,0,0,0,.49.22.62.62,0,0,0,.43-.16l5.57-4.81a.65.65,0,1,0-.85-1Z" fill="#ffbd94"/>
      <path id="Shape" d="M127.56,21.47a.5.5,0,0,0-.38-.32l-1.45-.21-.65-1.31a.47.47,0,0,0-.84,0l-.65,1.31-1.45.21a.47.47,0,0,0-.26.8l1.05,1-.25,1.45a.47.47,0,0,0,.19.45.46.46,0,0,0,.49,0l1.3-.68,1.3.68a.41.41,0,0,0,.21.05.47.47,0,0,0,.28-.09.46.46,0,0,0,.18-.45L126.39,23l1-1A.5.5,0,0,0,127.56,21.47Z" fill="#fd9757"/>
      <path id="Shape" data-name="Shape" d="M104,14.13l-.25,1.45a.47.47,0,0,0,.19.45.46.46,0,0,0,.49,0l1.3-.69,1.3.69a.54.54,0,0,0,.22.05.46.46,0,0,0,.27-.09.47.47,0,0,0,.19-.45l-.25-1.45,1-1a.47.47,0,0,0-.26-.8l-1.45-.21-.65-1.32a.47.47,0,0,0-.84,0l-.65,1.32-1.45.21a.47.47,0,0,0-.26.8Z" fill="#fd9757"/>
      <path id="Shape" data-name="Shape" d="M119.67,26.87a4.52,4.52,0,0,0-1.34.28,5.9,5.9,0,0,1,.59,1.29c0,.13,0,.22,0,.28h0a1,1,0,0,1-.27,0,5.36,5.36,0,0,1-1.41-.66,19.41,19.41,0,0,1-1.93-1.38c-.71-.59-1.44-1.24-2.15-2a25.69,25.69,0,0,1-2-2.16,16.12,16.12,0,0,1-1.38-1.93,5.57,5.57,0,0,1-.67-1.41,1.16,1.16,0,0,1,0-.27h0l.28.05a5.73,5.73,0,0,1,1.41.67.41.41,0,0,1,.11.07l.4.25a3,3,0,0,1-.31.48.65.65,0,0,0,.52,1.05.67.67,0,0,0,.53-.26,5.3,5.3,0,0,0,.62-1.09s0,0,0-.06l.09-.25a.42.42,0,0,0,0-.1l.06-.2v0h0a6.15,6.15,0,0,0,0-3.16,4.71,4.71,0,0,0-2.34-3.21.66.66,0,0,0-.87.31.65.65,0,0,0,.32.87,3.48,3.48,0,0,1,1.62,2.35,5,5,0,0,1,.09,2h0l-.27-.16a6.9,6.9,0,0,0-1.75-.81,1.54,1.54,0,0,0-1.57.26,1.12,1.12,0,0,0-.32.63L99.68,37.32a.65.65,0,0,0,.14.72.62.62,0,0,0,.46.19.58.58,0,0,0,.26,0L119.28,30a1.1,1.1,0,0,0,.64-.33,1.55,1.55,0,0,0,.26-1.57A5.87,5.87,0,0,0,119.67,26.87Z" fill="#ffbd94"/>
      <path id="Path" data-name="Path" d="M108.73,21.26a18.41,18.41,0,0,0,1.49,2.08c.61.75,1.3,1.51,2,2.26s1.51,1.43,2.26,2a17.55,17.55,0,0,0,2.08,1.49c.21.13.42.24.62.35l-1.92.83c-3.18.1-6.27-.9-8-2.63a3.69,3.69,0,0,1-1.12-2l2.2-5.05C108.48,20.84,108.6,21,108.73,21.26Z" fill="#fd9757"/>
      <path id="Path" data-name="Path" d="M107.73,33.61a5.27,5.27,0,0,1-3.64-1.16,1.92,1.92,0,0,1-.49-.86l2-4.63a5.78,5.78,0,0,0,1,1.38,11.15,11.15,0,0,0,6.67,2.84Z" fill="#fd9757"/>
      <path id="Path" data-name="Path" d="M103.11,32.72a2.72,2.72,0,0,0,.31.38A4.83,4.83,0,0,0,106,34.37l-4.47,2Z" fill="#fd9757"/>
      <path id="Shape" data-name="Shape" d="M121.72,13.82a1.31,1.31,0,1,0-1.31-1.31A1.31,1.31,0,0,0,121.72,13.82Z" fill="#fd9757"/>
      <path id="Shape" data-name="Shape" d="M115.38,15.23a1.32,1.32,0,1,0-1.32-1.32A1.32,1.32,0,0,0,115.38,15.23Z" fill="#fd9757"/>
      <path id="Shape" data-name="Shape" d="M123.33,30.32a1.32,1.32,0,1,0,1.31,1.32A1.32,1.32,0,0,0,123.33,30.32Z" fill="#fd9757"/>
    </symbol>
    <symbol id="Woman_Celebrate" data-name="Woman Celebrate" viewBox="0 0 104.75 181.04">
      <g id="Human">
        <path d="M51.6,16.1C48.24,20.09,46.1,31.56,49,33c1.17.58,4,.35,7-.7L51.81,44l9.94,2.11V29.3a11.58,11.58,0,0,0,4.71-7.47C67.72,12.78,55,12.12,51.6,16.1Z" fill="#b28b67" fill-rule="evenodd"/>
        <path d="M50.23,17.92a11.62,11.62,0,0,1,.91-1.66,8.76,8.76,0,0,1,1.46-1.74A15.17,15.17,0,0,1,56,12.09a9.27,9.27,0,0,1,7.16-.74,7.06,7.06,0,0,1,3.07,2.09c.75.88,1.39,2.09,2.54,2.41s2.64-.53,3.8-1a9.59,9.59,0,0,1,4-.78A6.25,6.25,0,0,1,82,17.54c1.22,2.31,1.81,5.44.18,7.81a3.4,3.4,0,0,1-1.09,1c-.41.24-1,.46-1.24.93s0,1.26.1,1.77a5,5,0,0,1-.08,2.21,5.63,5.63,0,0,1-2.35,2.82,5.7,5.7,0,0,1-3.21.87,8.28,8.28,0,0,1-2.21-.29,6.07,6.07,0,0,1-1-.43,1,1,0,0,0-.87,0,6.81,6.81,0,0,1-4.56.16,7.13,7.13,0,0,1-3.59-2.15c-1-1.26-.66-2.63-.07-4-.32.08-1.16,0-.55-.48a2.62,2.62,0,0,1,.91-.29,2.94,2.94,0,0,0,.94-.46c1.12-.85.66-3.17-.4-3.77-1.58-.88-2.47,1.44-3.81,1.81-.77.21-1.39-.43-1.81-1a8.2,8.2,0,0,1-1.06-2.79c-.18-.82-.33-1.64-.52-2.45-.09-.38-.44-1.47-.07-1.8a5.31,5.31,0,0,0-3.8.16,2.54,2.54,0,0,0-1.22.85c-.07.09-.24.38-.38.36s-.1-.31,0-.46" fill="#a24242" fill-rule="evenodd"/>
        <polygon points="56.14 86.04 41.52 136.21 34.64 173.88 27.74 173.88 34.63 86.04 56.14 86.04" fill="#b28b67" fill-rule="evenodd"/>
        <path d="M59.51,86c-1,26.06-3.4,30.47,0,41.33s13.85,16,39.23,20l-2.4,7.95c-16,0-43.25-15.83-44.6-19.33a495.58,495.58,0,0,1-14.4-50Z" fill="#b28b67" fill-rule="evenodd"/>
        <path d="M56.54,86q-5.72,25.89-19.77,82.67H26.65c-.75-38.85,2.43-64.42,7.93-82.67Z" fill="#010101" fill-rule="evenodd"/>
        <path d="M62.88,86c-.55,14.37-4.05,25.9,3.46,38.58,6.85,11.57,11,12.71,32.4,15.6l-9.28,17.87c-11.35,0-33-11.18-39.48-21.9-10.29-17-11.09-33-14.24-50.15Z" fill="#323337" fill-rule="evenodd"/>
        <path d="M103.71,147.14l-6.33-.71c.26,2.41-.5,5.23-2.3,8.46A33.46,33.46,0,0,1,98,168.45a2.08,2.08,0,0,0,2.13,2h.17l.57-.06h0l2.48-14.08,1.45-8.21Z" fill="#e4e4e4" fill-rule="evenodd"/>
        <path d="M36.14,179.84l-.4-6.36c-2.32.68-5.23.41-8.73-.79a33.35,33.35,0,0,1-12.85,5.17,2.09,2.09,0,0,0-1.64,2.45c0,.06,0,.12,0,.17l.16.56H35.35Z" fill="#e4e4e4" fill-rule="evenodd"/>
        <path d="M69.21,90.42l-5.95.18-2.73,6.19C57.45,97.9,56,99,56,100.18c-.34.92,3.51-1,3.31.74a11.67,11.67,0,0,1-1,2.68l-.21.48c-.72,1.61-1.43,3.19-1,3.56,1,1,3.73-.21,5-1.43,2.44-2.28,3.18-4,4-8.35A23.05,23.05,0,0,1,69.21,90.42ZM22.35,31.32c-1.69-5.08-2.86-7.39-3.49-6.91-1,.71-.05,2.05-.62,2.63s-2.26-.17-4-1l-.43-.21h0l-.22-.1c-2-1-1.75.16-1.44.81a33.36,33.36,0,0,0,6.55,6.3h0l8.09,13.1,5.08-5.26Z" fill="#b28b67" fill-rule="evenodd"/>
        <path d="M50,44.77A57.4,57.4,0,0,1,24.49,30.65L18.7,37.88C24.41,46.05,33.25,53.79,42,55.72,48.91,57.24,54,50.52,50,44.77Z" fill="#2026a2" fill-rule="evenodd"/>
        <path d="M63.24,96.28c-6.53-2.93-28.48-.79-30.25-9-3.5-16.21,13.94-33.51,19-49.72L62.54,40c1.15.27,5.52,17.1,3.27,26.86C63.76,75.76,70.75,83.34,63.24,96.28Z" fill="#1f28cf" fill-rule="evenodd"/>
        <path d="M54,56.12Q74.29,63,72.41,70.53T60.52,87.61q3,6,6.38,7.81C83.49,81,86.29,72,84.75,68c-3.17-8.27-11-22.75-25.45-24.5Z" fill="#1f28cf" fill-rule="evenodd"/>
      </g>
      <g id="Graphic">
        <path id="Path" data-name="Path" d="M10.43,7.69l1.83,5.57a.63.63,0,0,0,.42.42.68.68,0,0,0,.4,0,.67.67,0,0,0,.42-.83l-.11-.31.43-.2.72-.3,0-.1a5.59,5.59,0,0,1-.14-1.23l-.31.12-.64.27-.42.19-1.32-4a.65.65,0,0,0-.82-.42A.66.66,0,0,0,10.43,7.69Z" fill="#ffbd94"/>
        <path id="Path" data-name="Path" d="M1.94,15.62a.75.75,0,0,0,.32.21.66.66,0,0,0,.6-.12A3.32,3.32,0,0,1,5.72,15a4.54,4.54,0,0,1,1,.35,4.54,4.54,0,0,1,1,.62,1.81,1.81,0,0,1,.38.39.65.65,0,1,0,1.15-.62,2.59,2.59,0,0,0-.48-.59l.58-.4h0c.74-.49,1.54-1,2.39-1.43l-.24-.72-.17-.54-.09,0c-.93.5-1.81,1-2.62,1.57-.34.23-.66.46-1,.69A6,6,0,0,0,6,13.74,4.61,4.61,0,0,0,2,14.7.66.66,0,0,0,1.94,15.62Z" fill="#ffbd94"/>
        <path id="Path" data-name="Path" d="M5.46,4.51l3.92,6.23a.65.65,0,0,1-.2.9.66.66,0,0,1-.54.08.63.63,0,0,1-.36-.28L4.36,5.21a.67.67,0,0,1,.2-.91A.65.65,0,0,1,5.46,4.51Z" fill="#ffbd94"/>
        <path id="Shape" data-name="Shape" d="M.25,8.17A.46.46,0,0,1,.7,8l1.45.22,1-1.06A.46.46,0,0,1,3.63,7,.48.48,0,0,1,4,7.38l.23,1.45,1.33.62a.49.49,0,0,1,.27.42.47.47,0,0,1-.26.42L4.23,11,4,12.42a.47.47,0,0,1-.79.27l-1-1-1.44.27a.41.41,0,0,1-.22,0,.46.46,0,0,1-.24-.17.46.46,0,0,1,0-.49L.92,10,.22,8.67A.46.46,0,0,1,.25,8.17Z" fill="#fd9757"/>
        <path id="Shape" data-name="Shape" d="M25,8.05l-.18,1.46a.45.45,0,0,1-.31.38A.45.45,0,0,1,24,9.78l-1.05-1L21.49,9a.41.41,0,0,1-.22,0A.51.51,0,0,1,21,8.84a.48.48,0,0,1,0-.49L21.65,7l-.71-1.28a.5.5,0,0,1,0-.5.47.47,0,0,1,.45-.19l1.45.22,1-1.06a.48.48,0,0,1,.48-.13.45.45,0,0,1,.32.37l.24,1.45,1.32.62a.48.48,0,0,1,.27.42.46.46,0,0,1-.25.42Z" fill="#fd9757"/>
        <path id="Shape" data-name="Shape" d="M6.21,15.65a4.51,4.51,0,0,1,1.2.65,5.75,5.75,0,0,0-.94,1.07,1.21,1.21,0,0,0-.13.25h0a1.3,1.3,0,0,0,.27,0,5.47,5.47,0,0,0,1.55-.23,17.92,17.92,0,0,0,2.25-.75c.85-.35,1.74-.77,2.63-1.24s1.73-1,2.5-1.49a17.14,17.14,0,0,0,1.89-1.45,5.48,5.48,0,0,0,1-1.15,2.58,2.58,0,0,0,.12-.24v0a1.47,1.47,0,0,0-.28,0,5.71,5.71,0,0,0-1.54.22l-.13,0-.45.13a2.81,2.81,0,0,0,.15.55.65.65,0,0,1-.39.83.67.67,0,0,1-.42,0,.62.62,0,0,1-.42-.4,5.55,5.55,0,0,1-.28-1.22v-.06a2.45,2.45,0,0,1,0-.27v-.36h0a6.25,6.25,0,0,1,.89-3A4.77,4.77,0,0,1,18.9,5.11a.66.66,0,0,1,.18,1.3,3.49,3.49,0,0,0-2.24,1.77,4.92,4.92,0,0,0-.67,1.91h0l.3-.07a6.74,6.74,0,0,1,1.91-.27,1.54,1.54,0,0,1,1.42.71,1.13,1.13,0,0,1,.13.7l2.34,20.32a.64.64,0,0,1-.34.65.63.63,0,0,1-.5,0,.59.59,0,0,1-.23-.13L5.67,18.76a1.17,1.17,0,0,1-.52-.51,1.53,1.53,0,0,1,.21-1.57A6,6,0,0,1,6.21,15.65Z" fill="#ffbd94"/>
        <path id="Path" data-name="Path" d="M18.31,13.48a18.74,18.74,0,0,1-2,1.55,27.06,27.06,0,0,1-2.62,1.56,29.46,29.46,0,0,1-2.75,1.3,19.07,19.07,0,0,1-2.42.81l-.7.15,1.59,1.37c3,1,6.26,1,8.42-.19a3.72,3.72,0,0,0,1.66-1.56L18.83,13Z" fill="#fd9757"/>
        <path id="Path" data-name="Path" d="M15.65,25.58a5.28,5.28,0,0,0,3.83,0,1.84,1.84,0,0,0,.71-.67l-.58-5a5.44,5.44,0,0,1-1.37,1,11.15,11.15,0,0,1-7.21.77Z" fill="#fd9757"/>
        <path id="Path" data-name="Path" d="M20.33,26.08a2.33,2.33,0,0,1-.4.27,4.74,4.74,0,0,1-2.85.45L20.78,30Z" fill="#fd9757"/>
        <path id="Shape" data-name="Shape" d="M8.06,2.57A1.31,1.31,0,1,1,9.7,1.7,1.32,1.32,0,0,1,8.06,2.57Z" fill="#fd9757"/>
        <path id="Shape" data-name="Shape" d="M13.72,5.76a1.31,1.31,0,0,1,.77-2.51,1.32,1.32,0,0,1,.87,1.64A1.3,1.3,0,0,1,13.72,5.76Z" fill="#fd9757"/>
        <path id="Shape" data-name="Shape" d="M1.7,17.88a1.31,1.31,0,1,1-1.64.87A1.31,1.31,0,0,1,1.7,17.88Z" fill="#fd9757"/>
      </g>
    </symbol>
  </defs>
  <g id="Group_Celebrate" data-name="Group Celebrate">
    <use width="327" height="218" xlink:href="#Backdrop"/>
    <use width="282" height="205" transform="translate(22.5 6.5)" xlink:href="#Blob_4"/>
    <use width="127.58" height="179.38" transform="translate(40 23)" xlink:href="#Man_Celebrate"/>
    <use width="104.75" height="181.04" transform="translate(171 23)" xlink:href="#Woman_Celebrate"/>
  </g>
</svg>
