<svg xmlns="http://www.w3.org/2000/svg" xmlns:xlink="http://www.w3.org/1999/xlink" viewBox="0 0 327 218">
  <defs>
    <symbol id="Backdrop" data-name="Backdrop" viewBox="0 0 327 218">
      <rect id="Backdrop-3" data-name="Backdrop" width="327" height="218" rx="8" fill="#fff"/>
    </symbol>
    <symbol id="Group_Friends" data-name="Group Friends" viewBox="0 0 208.06 184.94">
      <path d="M13.61,80.49l3.69,3.1Q10.19,93.63,8.24,96c-1,1.15-2.68,7.25-3.42,11.28-.3,1.62-1.61,1.59-2.11,1.25-3-2-2.86-4.59-2.57-7.38l0-.47,0-.24.05-.47c.06-.63.11-1.28.12-1.93.08-4.36,2.42-5,4.39-7Q6.1,89.66,13.61,80.49ZM97.34,28.84l6.75,7.82a39.17,39.17,0,0,1,9,5.83c.51.68,1,2-1.49,1.27s-5.22-1.31-5.74-.51.82,2.16-.12,3.2q-.95,1-5.61-7.23L95.54,34Z" fill="#d4a181" fill-rule="evenodd"/>
      <path d="M42.54,51.52,36.15,37.84c8.58-6.57,25.47-11.77,37.1-16,9.79-3.53,19.59,3.27,29.9,9.29L99.84,40C81.65,35,79.65,31.71,71.91,37.31,62.4,44.2,57.11,50.08,42.54,51.52Z" fill="#e87613" fill-rule="evenodd"/>
      <polygon points="91.26 75.94 107.94 132.98 115.79 175.81 123.67 175.81 115.81 75.94 91.26 75.94" fill="#915b3c" fill-rule="evenodd"/>
      <polygon points="91.26 75.94 107.94 132.98 115.79 175.81 123.67 175.81 115.81 75.94 91.26 75.94" fill-opacity="0.1" fill-rule="evenodd"/>
      <path d="M83.53,75.94c1.17,29.63.71,45.8.45,48.49s-1.75,20.72-11.9,52.28h8.25C93.76,146.43,98.44,128.4,100,124.43s6.09-20.14,12.74-48.49Z" fill="#915b3c" fill-rule="evenodd"/>
      <path d="M90.8,75.94q6.53,29.44,22.57,94h11.55c.85-44.17-2.78-73.24-9.06-94Z" fill="#010101" fill-rule="evenodd"/>
      <path d="M83.56,75.94c1.15,29.63-1.82,58.82-11,94.45H84.89a396.41,396.41,0,0,0,29.65-94.45Z" fill="#222425" fill-rule="evenodd"/>
      <path d="M71.17,182.59l.45-7.23q4,1.14,10-.91a38.47,38.47,0,0,0,15,6,2,2,0,0,1,1.6,2.34c0,.06,0,.12,0,.18l-.29,1H72.08Z" fill="#e4e4e4" fill-rule="evenodd"/>
      <path d="M114.08,182.59l.46-7.23q4,1.14,10-.91a38.34,38.34,0,0,0,15,6,2,2,0,0,1,1.59,2.34c0,.06,0,.12,0,.18l-.29,1H115Z" fill="#e4e4e4" fill-rule="evenodd"/>
      <path d="M91.79,10.15c-2.35,4.36-2.07,15.43,1,16.21,1.21.31,3.78-.45,6.4-2L97.51,35.94h9.7l-3.34-15.55a10.9,10.9,0,0,0,2.92-7.86C106.18,3.89,94.13,5.79,91.79,10.15Z" fill="#915b3c" fill-rule="evenodd"/>
      <path d="M111,9.65a3.09,3.09,0,0,0,.63-1.17c.15-.44.3-.88.41-1.33a2.94,2.94,0,0,0-.45-2.66,3.06,3.06,0,0,0-2-.88,3.67,3.67,0,0,0-1.43.19c-.46.15-.85.44-1.3.63a5.68,5.68,0,0,0-.68-2.84A2.81,2.81,0,0,0,104.07.22a4.14,4.14,0,0,0-2.57.51c-.2.11-.4.22-.59.35a1.5,1.5,0,0,1-.51.28c-.2,0-.31-.07-.44-.22a3.37,3.37,0,0,0-.53-.47,3.09,3.09,0,0,0-2.89-.5A2.7,2.7,0,0,0,95.36,1c-.27.35-.46.91-.83,1.16-.16.1-.27,0-.42-.14s-.42-.32-.64-.47a3,3,0,0,0-1-.45C92,1,91.24,1,91.09,1.71a3,3,0,0,0,0,.79c0,.35.05.71.08,1.06a6.82,6.82,0,0,0,.1.79,1.11,1.11,0,0,1,0,.54c-.07.18-.42.08-.57.08a2.38,2.38,0,0,0-.86.19.94.94,0,0,0-.52.48.86.86,0,0,0,0,.45,1.25,1.25,0,0,1,0,.47c-.39-.2-1.76-.63-1.93.08a1.09,1.09,0,0,0,.17.7,7,7,0,0,0,.64,1,8.74,8.74,0,0,0,1.69,1.64,1.11,1.11,0,0,0-.29,1.86,1.4,1.4,0,0,0,1,.29,3,3,0,0,1,.41,0c.06,0,.12.06.19.06a5.44,5.44,0,0,0,1.55-.19,5.17,5.17,0,0,0,2.37-1.24.72.72,0,0,1,.54-.25c.21,0,.41.06.61.07a4.33,4.33,0,0,0,1.52-.43,5.56,5.56,0,0,0,.5,2c.22.5.69.57,1.15.61,1.48.14,3,0,4.44,0-1.43.32-2.91.45-4.33.83-.64.18-.15.61.12.91a5,5,0,0,1,1,1.74,3.09,3.09,0,0,1,3-1.23,2.15,2.15,0,0,1,1.29,3.12,4.08,4.08,0,0,1-1.93,1.24,7.05,7.05,0,0,1,1,2,1.42,1.42,0,0,0,.72.83c.13,0,.29,0,.39.16s.15.27.32.38a1.78,1.78,0,0,0,2.22-.17,1.46,1.46,0,0,0,0-1.9c.68-.28,1.94-.65,1.66-1.72,1.49-.1,5.1-2.51,3.11-4.27,1.09-.61,2.1-2.13,1.39-3.46A3.41,3.41,0,0,0,111,9.65" fill="#191847" fill-rule="evenodd"/>
      <path d="M72,40.33l7.56,6.17-7.73,5.17-.87.58-4.46,3-.74.5q-12.12,8.07-13.27,8.7c-2.52,1.4-3.31,6-3.93,8.33-3.37-.9.21-4.79-4.09-5.86-.64-.16-1.28-.28-1.92-.38l-.48-.08h0l-.48-.07c-2.91-.46-5.56-1-6.8-4.5-.21-.58.11-1.88,1.78-1.75,4.15.33,10.6.24,12-.39Q51.36,58.43,72,40.33Zm74.36-7,10.26,15.38A39.69,39.69,0,0,1,164.75,56c.4.76.72,2.14-1.7,1s-5-2.15-5.68-1.42.48,2.29-.63,3.18q-1.11.9-4.48-8.15L140.49,39.86Z" fill="#915b3c" fill-rule="evenodd"/>
      <path d="M96.55,43.35l3.34-13.8c7.94,0,28-2.92,36.54-1.33,8.3,1.54,22,11.29,24.11,18l-11.47,9.59c-4.58-13.7-7.63-14.44-16.47-14.49C122.58,41.3,109.05,46.68,96.55,43.35Z" fill="#222425" fill-rule="evenodd"/>
      <path d="M84.13,81.18h36q-12.5-30.38-12.5-51.62L96.75,27.94C88.22,41.65,85.81,58.54,84.13,81.18Z" fill="#1d7665" fill-rule="evenodd"/>
      <path d="M51.94,53.21q28.19-28.11,44.44-25l.14-.26h.71l3.87.16h0l2.62,7.49q.42,13.69,4.86,55.22H76.35C77.44,74.45,83.5,56.08,89.65,42Q78.94,45.69,65.37,64.48h0Z" fill="#323337" fill-rule="evenodd"/>
      <polygon points="90.25 76.51 101.88 71.11 101.88 76.51 90.25 76.51" fill="#fff" fill-opacity="0.2" fill-rule="evenodd"/>
      <path d="M64.87,9.4c2.22,5.18.81,17.71-2.7,18.29-1.4.24-4.24-.88-7.05-2.93l.71,13.34-11-1,5.33-17.32a12.47,12.47,0,0,1-2.52-9.21C49.19.86,62.65,4.21,64.87,9.4Z" fill="#d4a181" fill-rule="evenodd"/>
      <path d="M60.07,9.64c-1.62.68-2.84,2.18-4.33,4.17a2.82,2.82,0,0,0-1-.28,2.77,2.77,0,0,0-2.34,4.55c-.71.84-1.51,1.72-2.41,2.61-2.91-2.11-4.71-7.7-1.26-12.62A6.84,6.84,0,0,1,54.06,4a8,8,0,0,1,5.27.08A17,17,0,0,1,65.8,6.4c-.26,2.92-.9,3.74-5.73,3.24Z" fill="#191847" fill-rule="evenodd"/>
      <path d="M56.75,12.5q-.15,8.85,2.57,9.09c2.71.24,5.16-1.28,6.35-1.18.86.08.57,1.14-.07,1.9s-2.9,1.06-3,2.09,1.81.39,1.75,1c-.09,1,.07,2.93-1.68,2.78s-6.8-1.25-7.44-3.95Q54.6,21.52,55.1,13Z" fill="#191847" fill-rule="evenodd"/>
      <polygon points="32.43 73.94 49.36 132.04 57.32 175.66 65.31 175.66 57.34 73.94 32.43 73.94" fill="#d4a181" fill-rule="evenodd"/>
      <polygon points="32.43 73.94 49.36 132.04 57.32 175.66 65.31 175.66 57.34 73.94 32.43 73.94" fill-opacity="0.1" fill-rule="evenodd"/>
      <path d="M24.59,73.94c1.19,30.18.72,46.64.45,49.39S23.27,144.43,13,176.58h8.36c13.62-30.84,18.38-49.2,19.94-53.25s6.18-20.51,12.92-49.39Z" fill="#d4a181" fill-rule="evenodd"/>
      <path d="M32,73.94q6.62,30,22.9,95.73H66.58c.86-45-2.82-74.59-9.19-95.73Z" fill="#1f28cf" fill-rule="evenodd"/>
      <path d="M24.62,73.94c1.16,30.18-1.85,59.91-11.18,96.19H26A405.08,405.08,0,0,0,56.05,73.94Z" fill="#313ae7" fill-rule="evenodd"/>
      <path d="M12.05,182.56l.46-7.36q4,1.17,10.11-.92a39.09,39.09,0,0,0,15.31,6.07,2,2,0,0,1,1.59,2.34.85.85,0,0,1,0,.17l-.31,1.08H13Z" fill="#e4e4e4" fill-rule="evenodd"/>
      <path d="M55.59,182.56l.46-7.36q4,1.17,10.11-.92a39,39,0,0,0,15.31,6.07,2,2,0,0,1,1.59,2.34c0,.06,0,.12,0,.17l-.31,1.08H56.51Z" fill="#e4e4e4" fill-rule="evenodd"/>
      <path d="M24,75.84l34.38,7.31c1.57.34,1.76-2,1.77-3.19.19-13.77-7-30.19-3-49L47.54,27.3C36.53,38.75,30.24,54.39,24,75.84Z" fill="#dde3e9" fill-rule="evenodd"/>
      <path d="M46.79,27.14a6.06,6.06,0,0,1,.9.26l3.08.84q3.73,48.12-5.48,62h0l-26-5.53A91.38,91.38,0,0,1,12,93.89h0l-7.4-1.44q5.63-35.18,31.85-54c-3.64.11-5.92-1.37-6.85-4.42-2.24-7.31-.16-10.63,4-11S40.62,25.83,46.79,27.14Z" fill="#ff9b21" fill-rule="evenodd"/>
      <path d="M28.27,86.62l-9-1.91q3.67-5.2,8-12.19Q26.63,81.78,28.27,86.62Z" fill="#e87613" fill-rule="evenodd"/>
      <path d="M130.23,24.94c-2,4.79-.73,16.39,2.5,16.93,1.29.22,3.9-.82,6.49-2.71l-.65,12.34,10.13-.88-4.91-16a11.61,11.61,0,0,0,2.32-8.52C144.68,17.05,132.28,20.14,130.23,24.94Z" fill="#d4a181" fill-rule="evenodd"/>
      <path d="M129.46,27.08a11.8,11.8,0,0,1,.38-1.86,8.44,8.44,0,0,1,.89-2.09,15.18,15.18,0,0,1,2.55-3.32,9.27,9.27,0,0,1,6.63-2.8,7,7,0,0,1,3.55,1.1c1,.63,1.94,1.59,3.13,1.56s2.37-1.28,3.34-2.07a9.35,9.35,0,0,1,3.62-1.93,6.26,6.26,0,0,1,6.19,1.75c1.84,1.85,3.31,4.68,2.45,7.42a3.41,3.41,0,0,1-.73,1.32c-.32.35-.82.73-.92,1.25s.41,1.2.62,1.67a4.94,4.94,0,0,1,.57,2.13,5.59,5.59,0,0,1-1.43,3.38,5.7,5.7,0,0,1-2.81,1.78,8.17,8.17,0,0,1-2.2.36,6.49,6.49,0,0,1-1.07-.12.93.93,0,0,0-.81.28,6.8,6.8,0,0,1-4.32,1.48,7.07,7.07,0,0,1-4.07-1c-1.29-.91-1.39-2.32-1.24-3.84-.29.17-1.11.34-.67-.3.18-.26.54-.38.79-.55a2.81,2.81,0,0,0,.76-.7c.83-1.15-.29-3.24-1.48-3.49-1.77-.38-1.94,2.1-3.12,2.84-.67.42-1.45,0-2-.47a8,8,0,0,1-1.83-2.36c-.41-.72-.79-1.46-1.21-2.18-.2-.34-.85-1.28-.6-1.71a5.38,5.38,0,0,0-3.59,1.27,2.53,2.53,0,0,0-.91,1.17c0,.11-.12.43-.26.46s-.18-.28-.17-.43" fill="#a24242" fill-rule="evenodd"/>
      <polygon points="159.45 89.94 144.83 140.12 137.95 177.79 131.05 177.79 137.94 89.94 159.45 89.94" fill="#d4a181" fill-rule="evenodd"/>
      <polygon points="159.45 89.94 144.83 140.12 137.95 177.79 131.05 177.79 137.94 89.94 159.45 89.94" fill-opacity="0.1" fill-rule="evenodd"/>
      <path d="M162.82,89.94c-1,26.07-3.4,30.47,0,41.34s13.85,16,39.23,20l-2.4,8c-16,0-43.25-15.83-44.6-19.33a496.13,496.13,0,0,1-14.4-50Z" fill="#d4a181" fill-rule="evenodd"/>
      <path d="M159.85,89.94q-5.72,25.91-19.77,82.68H130c-.75-38.85,2.43-64.42,7.94-82.68Z" fill="#131415" fill-rule="evenodd"/>
      <path d="M166.2,89.94c-.56,14.38-4.06,25.91,3.45,38.59,6.85,11.56,11,12.71,32.4,15.6L192.77,162c-11.34,0-33-11.17-39.47-21.9-10.3-17-11.09-33-14.25-50.15Z" fill="#222425" fill-rule="evenodd"/>
      <path d="M207,151.05l-6.34-.71c.26,2.4-.5,5.22-2.3,8.46a33.28,33.28,0,0,1,2.87,13.55,2.08,2.08,0,0,0,2.13,2h.17l.57-.06h0l2.48-14.07,1.45-8.21Z" fill="#e4e4e4" fill-rule="evenodd"/>
      <path d="M139.45,183.75l-.39-6.36c-2.33.68-5.24.41-8.74-.79a33.5,33.5,0,0,1-12.85,5.17,2.08,2.08,0,0,0-1.64,2.45c0,.06,0,.11,0,.17l.16.55h22.63Z" fill="#e4e4e4" fill-rule="evenodd"/>
      <path d="M133.36,61.14,118.78,56.2a33.35,33.35,0,0,0-7.61-5c-.7-.16-1.88-.12-.47,1.59s2.81,3.58,2.37,4.27-1.95.1-2.43,1.19c-.32.72,2.19,1.34,7.52,1.84l11.22,7.15Z" fill="#d4a181" fill-rule="evenodd"/>
      <path d="M165.47,88l-.09,6.77q-3.62,3.33-2.82,4.87c.05,1,2.86-2.26,3.34-.61s-.28,6.72.6,7c1.3.49,3.35-1.66,4.07-3.29,1.35-3,1.35-5,.4-9.24a23.2,23.2,0,0,1-.09-8Z" fill="#d4a181" fill-rule="evenodd"/>
      <path d="M139.55,58.38a33.15,33.15,0,0,1-18.41-2.16l-1.58,6.26c5.37,3.73,12.45,6.33,18,5.18A5.15,5.15,0,0,0,139.55,58.38Z" fill="#2026a2" fill-rule="evenodd"/>
      <path d="M169.91,93.36c-7.16-.14-26.53,10.41-31.36,3.55-9.56-13.56-.26-36.29-1.91-53.21l10.63-1.87c1.16-.21,11.76,13.58,13.51,23.44C162.37,74.28,171.76,78.52,169.91,93.36Z" fill="#1f28cf" fill-rule="evenodd"/>
      <path d="M145.66,60q21.42-1.59,22.63,6.06T164,86.44q5.05,4.36,8.92,4.7c9.64-19.74,8.71-29.11,5.72-32.2-6.14-6.37-19.06-16.62-33-12.6Z" fill="#1f28cf" fill-rule="evenodd"/>
    </symbol>
  </defs>
  <g id="Group_Friendship" data-name="Group Friendship">
    <use width="327" height="218" xlink:href="#Backdrop"/>
    <path id="Blob" d="M22.94,126.58c-6.4-40,42.5-36.08,76-16.38S153,128.87,174.3,157.62s-18.57,53.89-52.68,52.44S29.34,166.59,22.94,126.58ZM195.31,7.88c44.1,0,109.32,21.23,109.32,90.11s-100.28,64.93-128.72,26.2-101.46-55.58-88.35-81S151.22,7.88,195.31,7.88Z" fill="#fff1e8" fill-rule="evenodd"/>
    <use width="208.06" height="184.94" transform="translate(65.58 26.06)" xlink:href="#Group_Friends"/>
  </g>
</svg>
