<svg xmlns="http://www.w3.org/2000/svg" xmlns:xlink="http://www.w3.org/1999/xlink" viewBox="0 0 327 218">
  <defs>
    <symbol id="Backdrop" data-name="Backdrop" viewBox="0 0 327 218">
      <rect id="Backdrop-3" data-name="Backdrop" width="327" height="218" rx="8" fill="#fff"/>
    </symbol>
    <symbol id="Blob_1" data-name="Blob 1" viewBox="0 0 293 184">
      <path id="Blob" d="M189.42,176.39C269.66,152.28,327,44.81,270,9.79S149.57,44.94,96.4,44.94,0,57.88,0,111,109.17,200.51,189.42,176.39Z" fill="#fff1e8" fill-rule="evenodd"/>
    </symbol>
    <symbol id="Wall_Shelf" data-name="Wall Shelf" viewBox="0 0 100 42">
      <g id="Wall_Shelf-3" data-name="Wall Shelf">
        <g id="Picture_Frame" data-name="Picture Frame">
          <path id="Frame" d="M42.43,0H40.72L37.79,29.83H60.94L63.87,0Zm1.45,25.83H42.21L44.35,4H59.46L57.32,25.83Z" fill="#ffcbab"/>
          <polygon id="Picture" points="43.33 24.5 56.38 24.5 58.33 5.33 45.29 5.33 43.33 24.5" fill="#ffcbab" fill-rule="evenodd"/>
        </g>
        <g id="Picture_Frame-2" data-name="Picture Frame">
          <path id="Frame-2" data-name="Frame" d="M67.83,8.33h-2l-2.21,21.5H91.67l2.21-21.5Zm2.22,17.5h-2l1.39-13.5h20l-1.39,13.5Z" fill="#ffcbab"/>
          <polygon id="Picture-2" data-name="Picture" points="86.83 13.83 85.73 24.67 71 24.67 72.1 13.83 86.83 13.83" fill="#ffad7a" fill-rule="evenodd"/>
        </g>
        <g id="Book">
          <path d="M28,22a1.25,1.25,0,1,1,0-2.5h7.77l0,.05V22l0,.05H28m8.66-3.33H13.42a2.5,2.5,0,1,0,0,5H36.67v-5" fill="#ffae7c"/>
          <path d="M28,19.5A1.25,1.25,0,1,0,28,22h7.77a0,0,0,0,0,0-.05v-2.4a0,0,0,0,0,0-.05Z" fill="#ffcbab"/>
        </g>
        <g id="Book-2" data-name="Book">
          <path d="M33.29,22.83h-25V24.5H18.55a1.26,1.26,0,1,1,0,2.5H8.33v.83h25a2.5,2.5,0,1,0,0-5Z" fill="#ffae7c"/>
          <path d="M20,25.75a1.36,1.36,0,0,0-1.45-1.25H8.33V27H18.55A1.36,1.36,0,0,0,20,25.75Z" fill="#ffcbab"/>
        </g>
        <g id="Shelf">
          <g id="Shade_2" data-name="Shade 2">
            <rect x="85.83" y="28.67" width="14.17" height="3.33" fill="#ffa770"/>
            <polygon points="27.5 42 27.5 32 21.06 32 27.5 42" fill="#ffa770" fill-rule="evenodd"/>
            <polygon points="76.67 42 76.67 32 70.23 32 76.67 42" fill="#ffa770" fill-rule="evenodd"/>
          </g>
          <polyline id="Shade_1" data-name="Shade 1" points="85.83 28.67 0 28.67 0 32 17.5 32 23.94 42 27.5 42 21.06 32 66.67 32 73.11 42 76.67 42 70.23 32 85.83 32 85.83 28.67" fill="#ffbf97"/>
        </g>
      </g>
    </symbol>
    <symbol id="Clock" data-name="Clock" viewBox="0 0 33.08 30">
      <g>
        <path d="M18.08,0c-.52,0-1,0-1.54.08h.22a14.92,14.92,0,0,1,7.72,3.28h0l0,0a15,15,0,0,1-8,26.51c.5,0,1,.08,1.54.08a15,15,0,0,0,0-30" fill="#ffb07e"/>
        <path d="M15,26.15a11.15,11.15,0,0,1,0-22.3c.29,0,.57,0,.86,0h0l.37,0a11.16,11.16,0,0,1,9.87,10,8.71,8.71,0,0,1,0,1V15a9.29,9.29,0,0,1,0,1.06,11.16,11.16,0,0,1-9.87,10l-.37,0A11.23,11.23,0,0,1,6.15,15h0a11.23,11.23,0,0,0,9.71,11.11c-.29,0-.57,0-.86,0M15,0a15,15,0,0,0,0,30c.52,0,1,0,1.54-.08a15,15,0,0,0,8-26.51l0,0h0A14.92,14.92,0,0,0,16.76.1h-.22C16,0,15.52,0,15,0" fill="#ffbe95"/>
        <path d="M15,3.85a11.15,11.15,0,0,0,0,22.3c.29,0,.57,0,.86,0A11.23,11.23,0,0,1,6.15,15h0A11.23,11.23,0,0,1,15.86,3.89c-.29,0-.57,0-.86,0" fill="#ffb181"/>
        <path d="M17.13,14.72,14.47,8.88l1.83-.83,2.3,5.07.66-.72,1.48,1.35L19.5,15.1l.64,1.41-1.82.83L18,16.7,12.28,23,10.8,21.63l6.33-6.91M15.86,3.89h0A11.23,11.23,0,0,0,6.15,15h0a11.23,11.23,0,0,0,9.71,11.11l.37,0a11.16,11.16,0,0,0,9.87-10,9.29,9.29,0,0,0,0-1.06V15a8.71,8.71,0,0,0,0-1,11.16,11.16,0,0,0-9.87-10l-.37,0" fill="#ffc6a2"/>
        <path d="M17.13,14.72,10.8,21.63,12.28,23,18,16.7l-.9-2m2.13-2.32-.66.72.9,2,1.24-1.35L19.26,12.4" fill="#ffb181"/>
        <polyline points="16.3 8.05 14.47 8.88 17.13 14.72 18.03 16.7 18.32 17.34 20.14 16.51 19.5 15.1 18.6 13.12 16.3 8.05" fill="#ffb181"/>
      </g>
    </symbol>
    <symbol id="Office_chair" data-name="Office chair" viewBox="0 0 55.23 99.91">
      <g id="Office_chair-3" data-name="Office chair">
        <path id="Chair" d="M55.23,49.17v.35a5.23,5.23,0,0,1-5.11,5.34h-40C4,54.86-.75,48.94.1,42.3l4.51-37A5.88,5.88,0,0,1,10.25,0H22.1a5.88,5.88,0,0,1,5.64,5.34l4.52,37c0,.27.06.53.07.79h0s.84,6.08,8.6,6.08Z" fill="#ffcbab" fill-rule="evenodd"/>
        <path id="Wheel" d="M12.68,96.5a3.41,3.41,0,1,1-3.41-3.42,3.41,3.41,0,0,1,3.41,3.42" fill="#ff8032" fill-rule="evenodd"/>
        <g id="Legs">
          <path d="M43.8,92.48H28.68V59.33L38.8,54.72H15.1l10.12,4.61V92.48H10.1a2.35,2.35,0,1,0,0,4.7H22.83a2.35,2.35,0,0,1,0-4.7h4.37a2.35,2.35,0,0,1,0,4.7H43.8a2.35,2.35,0,0,0,0-4.7Z" fill="#ffa871"/>
          <path d="M29.56,94.83a2.36,2.36,0,0,0-2.35-2.35H22.84a2.35,2.35,0,0,0,0,4.7h4.39A2.36,2.36,0,0,0,29.56,94.83Z" fill="#ffa065"/>
        </g>
        <path id="Wheel-2" data-name="Wheel" d="M24.34,96.5a3.41,3.41,0,1,1-3.41-3.42,3.41,3.41,0,0,1,3.41,3.42" fill="#ff8032" fill-rule="evenodd"/>
        <path id="Wheel-3" data-name="Wheel" d="M48.26,96.5a3.41,3.41,0,1,1-3.41-3.42,3.41,3.41,0,0,1,3.41,3.42" fill="#ff8032" fill-rule="evenodd"/>
      </g>
    </symbol>
    <symbol id="Woman_Healthworker_Sitting" data-name="Woman Healthworker Sitting" viewBox="0 0 130.72 164.42">
      <g id="Human">
        <g id="Bottom_Sitting_Crossed-Legs" data-name="Bottom/Sitting/Crossed-Legs">
          <g id="Group-15">
            <g id="Shoes">
              <path d="M84.84,151l-.64,5.58s11.85,3.12,16.3,7.76l-22.08,0,.83-16Zm25.41-25.95,2.55,5s11.63-4,17.92-2.57l-18.26,12.18L104.13,126Z" fill="#e4e4e4"/>
            </g>
            <g id="Skin-color">
              <path id="Skin" d="M78.92,150.05l5.84,2.33L84.71,157l-6-.22Zm25.58-22.63,6.16-1.3,2.5,3.89-5.11,3.14Z" fill="#784931" fill-rule="evenodd"/>
            </g>
            <g id="Pants">
              <path d="M93.9,120.48l-3.05,33H76.73l.63-47.92-26.95.19c-7.69,0-15.13-6.59-14.59-14.24l.83-7.8L77.81,71.59c7.62-1.72,10.26.55,15.2,9.32l21.81,44.59-12,8Z" fill="#222425"/>
            </g>
            <g id="Overlay">
              <path id="Fill-13" d="M81.06,86.57h0L50.24,105.78l26.93-.19-.63,47.95H90.65l4.84-52.44c1.19-9.54-4.79-14.53-14.43-14.53" fill="#18181c" fill-rule="evenodd"/>
            </g>
          </g>
        </g>
        <g id="Head_Front_Chongo" data-name="Head/Front/Chongo">
          <g id="Head">
            <path id="Head-_skin_" data-name="Head-[skin]" d="M59.77,15.29c2.47,4.57,2.17,16.16-1,17-1.27.32-4-.48-6.75-2.13l1.73,12.17H43.5L47,26A11.46,11.46,0,0,1,44,17.78C44.59,8.73,57.29,10.72,59.77,15.29Z" fill="#784931" fill-rule="evenodd"/>
          </g>
          <path id="hair" d="M55.72,10.31a13.46,13.46,0,0,0-4.28-.47A7.16,7.16,0,0,0,52,6.15a11,11,0,0,0-1.21-3.34,4.54,4.54,0,0,0-.89-1.38A3,3,0,0,0,48.41.66a3.87,3.87,0,0,0-1.66,0c-.24,0-.46.16-.7.23s-.36-.09-.54-.24A3,3,0,0,0,43.93,0a4.13,4.13,0,0,0-1.81.22,3.43,3.43,0,0,0-1.5,1,2.37,2.37,0,0,0-.45.68c-.05.11-.05.17-.16.21s-.21,0-.31.06a3.93,3.93,0,0,0-2.24,2,6.31,6.31,0,0,0-.35,2.63,11.34,11.34,0,0,0,2,5A6.19,6.19,0,0,0,42.3,13.6a9.31,9.31,0,0,0-1.69,3.13,15.83,15.83,0,0,0-.77,3.8A12.34,12.34,0,0,0,40,24.27a4.08,4.08,0,0,0,1.83,2.65,8.54,8.54,0,0,0,1.41.65,8.42,8.42,0,0,0,1.45.46,2.93,2.93,0,0,0,2.76-.58,5.5,5.5,0,0,0,.74-.93c.06-.12.11-.2,0-.31a2.22,2.22,0,0,0-.39-.36,3.64,3.64,0,0,1-1.3-2.41,2.58,2.58,0,0,1,1.13-2.7c1.2-.54,2.52.08,3.58.65a5.77,5.77,0,0,1,2.84-3.74c1.62-.81,3.47-.9,5.12-1.59a3,3,0,0,0,1.19-.75,1.41,1.41,0,0,0,.34-.56.88.88,0,0,0-.23-.69A13.05,13.05,0,0,0,55.72,10.31Z" fill="#191847" fill-rule="evenodd"/>
        </g>
        <g id="Group">
          <path id="Arms-_skin_" data-name="Arms-[skin]" d="M19.78,66.61l6.92,1.13q-10.15,21.06-12,24.73l-.13.26-.24.43c-1.25,2.08.11,5.75.63,7.7-2.82.76-1.85-3.57-5.42-2.55-.52.15-1,.33-1.52.52L7.55,99c-2.45,1-4.69,1.89-7.21-.27-.39-.33-.7-1.41.57-2,3.15-1.51,7.8-4.27,8.53-5.31q1.5-2.12,10.34-24.79Zm53.46,5.27L84.89,82.11a33,33,0,0,1,8.16,4.14c.5.53,1.06,1.58-1.15,1.21s-4.54-.65-4.91.08.89,1.76.18,2.72q-.7,1-5.4-5.63L69.9,78.44Z" fill="#784931" fill-rule="evenodd"/>
          <path id="Coat-Back" d="M49.27,38.84l4.32-1.35c5.58,14.67,14,28.91,28.35,41.07l-3.7,6.13C65.6,77,53.62,70.9,48.91,59.52,47.33,55.71,49.06,43.36,49.27,38.84Z" fill="#c5cfd6" fill-rule="evenodd"/>
          <path id="Shirt" d="M33.79,79.57q18.43,2.28,29.07.51c.88-.15,1-1.61.66-2.62-6.06-15.61-10.16-29.21-10-40-1.17.56-3.2.62-6.1.15C39.46,48.6,35.65,61.27,33.79,79.57Z" fill="#323337" fill-rule="evenodd"/>
          <path id="Coat-Front" d="M45.54,36.48v.2l3.25.06c.67,4.42,2,63.58,8.83,84l.21.6L18,120.67c1.18-18,8.37-39.63,15.6-57.67q-9.31,8.23-16.47,28.14h0l-7.43-2q9-35.74,35.17-52.16l.11-.26h.29Z" fill="#dde3e9" fill-rule="evenodd"/>
        </g>
      </g>
    </symbol>
    <symbol id="Man_Sitting_Alt" data-name="Man Sitting Alt" viewBox="0 0 120.96 161.78">
      <path d="M65.25,5.45c-2.82,5.3-2.48,18.73,1.15,19.68,1.45.38,4.54-.55,7.68-2.46l-2,14.1H83.76l-4-18.89a13.34,13.34,0,0,0,3.49-9.54C82.52-2.16,68.06.15,65.25,5.45Z" fill="#fedaca" fill-rule="evenodd"/>
      <path d="M70.27,6.15C71.91,7,73.06,8.73,74.44,11a2.92,2.92,0,0,1,4,2.74,3,3,0,0,1-.88,2.11c.68,1,1.43,2,2.3,3,3.25-2,5.66-7.74,2.48-13.28A7.22,7.22,0,0,0,77.11.71,8.36,8.36,0,0,0,71.56.29a18,18,0,0,0-7,1.89c0,3.13.6,4.06,5.72,4Z" fill="#a24242" fill-rule="evenodd"/>
      <path d="M73.5,9.5q-.66,9.41-3.54,9.41c-2.87,0-5.3-1.84-6.56-1.84-.92,0-.71,1.16-.1,2s2.94,1.4,2.94,2.5-1.93.25-1.93.9c0,1.08-.34,3.11,1.52,3.11s7.25-.69,8.18-3.51q.92-2.81,1.17-11.86Z" fill="#a24242" fill-rule="evenodd"/>
      <path d="M22.31,86.56l-.15-.08c-4.28-2.41-11.28.86-11.28,4.48,0,6.91,4,30,7.06,47l.29,1.6c1.68,9.19,3,16.27,3.2,17.41.53,3.27,6.13,4.13,6.46,0,.28-3.62.71-12.18.86-20.88l0-1.25c.11-6.63,0-13.22-.37-17.64s-.82-8.47-1.24-12.16Q35,119.23,51.54,145.76l6-2.73q-7-23.18-11.53-32.72C40.84,99.42,36,90.09,34,86.8,30.8,81.63,25.25,83.43,22.31,86.56Z" fill="#fedaca" fill-rule="evenodd"/>
      <path d="M57.29,139.19,36.57,85.87c-4.91-7.9-18.67,1.6-17,6.18,3.8,10.39,26.27,46.41,27.41,49.5Z" fill="#222425" fill-rule="evenodd"/>
      <path d="M59,140.61a8.33,8.33,0,0,1,1.65,1.86,25,25,0,0,1,1.64,3.78L37,160.86c-1.92-1.8-2.21-3.19-.9-4.18s2.41-1.83,3.26-2.51l8.45-11.63a1,1,0,0,1,1.39-.23l0,0,1.42,1.1h0a9.49,9.49,0,0,0,3.73-.93,6.75,6.75,0,0,0,1.72-1.65h0a2,2,0,0,1,2.81-.32Z" fill="#e4e4e4" fill-rule="evenodd"/>
      <path d="M29.55,155.25a8.72,8.72,0,0,1,.5,2.44,25.08,25.08,0,0,1-.47,4.09H.36Q-.78,158,1.68,157.71c1.63-.2,3-.38,4.07-.54l13.13-5.85a1,1,0,0,1,1.32.5l0,0,.68,1.66h0a9.26,9.26,0,0,0,3.69,1.06,6.77,6.77,0,0,0,2.32-.56h0a2,2,0,0,1,2.59,1.13Z" fill="#e4e4e4" fill-rule="evenodd"/>
      <path d="M9.33,94.67c0,13.78,9.88,54,9.88,57L28.82,150q-2-49.39-1.05-49.86c.9-.46,36.86,3.59,47.65,3.59,15.55,0,22-9.8,22.51-28H67.12c-6.28.67-39,7.27-51.15,9.54C10.76,86.28,9.33,90.87,9.33,94.67Z" fill="#323337" fill-rule="evenodd"/>
      <path d="M105.28,69.12l-9.61,0q8.89,28.71,9.61,30.46c1.06,2.64-1.19,6.65-2.15,8.81,3.13,1.4,2.8-3.79,6.75-2,.74.34,1.44.74,2.12,1.13l.41.24c2.51,1.46,4.84,2.72,8,.77.51-.31,1.07-1.5-.28-2.43-3.38-2.32-8.25-6.38-8.91-7.71q-1.35-2.73-5.93-29.36ZM49,68.75,34.35,79.51a39.61,39.61,0,0,0-10,4c-.62.57-1.39,1.73,1.23,1.53s5.37-.29,5.73.6-1.22,2-.5,3.16q.73,1.2,6.89-6l14.51-6Z" fill="#fedaca" fill-rule="evenodd"/>
      <path d="M78,28.83l-4-.68c-14.74,12.74-20.8,37.2-38.87,50.16L39.5,83.7C70.85,79.82,78.62,50,78,28.83Z" fill="#1f28cf" fill-rule="evenodd"/>
      <path d="M95.31,78.76H60.15c-1.6,0-1.3-2.32-1.07-3.49C61.76,61.76,72.22,47.2,72.22,28l10.14-1.59C90.75,39.87,93.65,56.48,95.31,78.76Z" fill="#c5cfd6" fill-rule="evenodd"/>
      <path d="M83.52,36.08q11.3,7.29,15,.6c3.71-6.69,2.37-10.37-1.59-11.58s-7.49,1.28-13.8,1.28Q76.82,26.38,83.52,36.08Z" fill="#313ae7" fill-rule="evenodd"/>
      <path d="M103.12,88.41H71.48Q65.35,72.93,79,26.63l4.31-.25C90.82,39.91,101.64,66.06,103.12,88.41Z" fill="#313ae7" fill-rule="evenodd"/>
      <path d="M83.13,26.38q29.64,27.12,28.26,71.68h-7.54Q94,80.95,80.15,29Z" fill="#313ae7" fill-rule="evenodd"/>
      <path d="M88.88,88.41H99.14q-2.86-6.69-6-15.85Q91.82,83.48,88.88,88.41Z" fill-opacity="0.1" fill-rule="evenodd"/>
    </symbol>
  </defs>
  <g id="Group_Counsel_Alt" data-name="Group Counsel Alt">
    <use width="327" height="218" xlink:href="#Backdrop"/>
    <use id="Blob_1-3" data-name="Blob 1" width="293" height="184" transform="translate(17 17)" xlink:href="#Blob_1"/>
    <use width="100" height="42" transform="translate(177 41.99)" xlink:href="#Wall_Shelf"/>
    <use width="33.08" height="30" transform="translate(144 4.99)" xlink:href="#Clock"/>
    <use width="55.23" height="99.91" transform="translate(32 102.99)" xlink:href="#Office_chair"/>
    <use width="130.72" height="164.42" transform="translate(22.53 47.69)" xlink:href="#Woman_Healthworker_Sitting"/>
    <use width="55.23" height="99.91" transform="matrix(-1, 0, 0, 1, 304.04, 102.99)" xlink:href="#Office_chair"/>
    <use width="120.96" height="161.78" transform="translate(189.04 51.23)" xlink:href="#Man_Sitting_Alt"/>
  </g>
</svg>
