<svg xmlns="http://www.w3.org/2000/svg" xmlns:xlink="http://www.w3.org/1999/xlink" viewBox="0 0 327 218">
  <defs>
    <symbol id="Backdrop" data-name="Backdrop" viewBox="0 0 327 218">
      <rect id="Backdrop-3" data-name="Backdrop" width="327" height="218" rx="8" fill="#fff"/>
    </symbol>
    <symbol id="Plant_3" data-name="Plant 3" viewBox="0 0 51.19 132">
      <g id="Plant">
        <path id="Fill-1" d="M25.6,103.73C11.12,103.73,0,94.23,0,77.2,0,41.34,16.34,0,25.6,0S51.19,41.34,51.19,77.2C51.19,94.23,40.08,103.73,25.6,103.73Z" fill="#ffcbab" fill-rule="evenodd"/>
        <polygon points="37.85 84.2 35.03 81.37 27.6 88.8 27.6 76.27 27.75 76.11 27.6 75.96 27.6 66.17 34.49 59.27 31.66 56.45 27.6 60.51 27.6 49.87 23.6 49.87 23.6 64.51 23.44 64.66 23.6 64.82 23.6 71.96 17.51 65.88 14.69 68.7 23.6 77.62 23.6 92.8 22.77 93.63 23.6 94.45 23.6 132 27.6 132 27.6 94.45 37.85 84.2" fill="#ffe9db"/>
      </g>
    </symbol>
    <symbol id="Lamp_Post" data-name="Lamp Post" viewBox="0 0 19.21 159.98">
      <g id="Lamp-Post">
        <path id="Fill-1-2" data-name="Fill-1" d="M10.39,6.12H8.82A1.38,1.38,0,0,0,7.44,7.5V121.42h4.33V7.5a1.38,1.38,0,0,0-1.38-1.38" fill="#ffd6bd" fill-rule="evenodd"/>
        <polygon id="Fill-3" points="6.14 131.9 13.07 131.9 13.07 120.15 6.14 120.15 6.14 131.9" fill="#ffcbab" fill-rule="evenodd"/>
        <polygon id="Fill-5" points="4.26 159.84 14.95 159.84 14.95 125.5 4.26 125.5 4.26 159.84" fill="#ffd6bd" fill-rule="evenodd"/>
        <path id="Fill-6" d="M14.06,155.29H5.15a3.26,3.26,0,0,0-3.26,3.26V160H17.32v-1.43a3.26,3.26,0,0,0-3.26-3.26" fill="#ffcbab" fill-rule="evenodd"/>
        <path id="Fill-7" d="M15,125.18H4.26a1.6,1.6,0,0,0-1.6,1.6v.2a1.6,1.6,0,0,0,1.6,1.6H15a1.6,1.6,0,0,0,1.6-1.6v-.2a1.6,1.6,0,0,0-1.6-1.6" fill="#ffcbab" fill-rule="evenodd"/>
        <path id="Fill-8" d="M9.61,0h0A2.88,2.88,0,0,0,6.72,2.88v.36a2.89,2.89,0,0,0,5.77,0V2.88A2.88,2.88,0,0,0,9.61,0" fill="#ffcbab" fill-rule="evenodd"/>
        <path id="Fill-9" d="M13.87,33.63H5.34a1.6,1.6,0,0,0-1.6,1.6v.2A1.61,1.61,0,0,0,5.34,37h8.53a1.61,1.61,0,0,0,1.6-1.61v-.2a1.6,1.6,0,0,0-1.6-1.6" fill="#ffcbab" fill-rule="evenodd"/>
        <path id="Fill-10" d="M12.7,37H6.51a1.06,1.06,0,0,0-1.06,1.05v.13a1.06,1.06,0,0,0,1.06,1.05H12.7a1.06,1.06,0,0,0,1.06-1.05v-.13A1.06,1.06,0,0,0,12.7,37" fill="#ffcbab" fill-rule="evenodd"/>
        <polygon id="Fill-11" points="17.79 11.06 13.11 33.63 6.11 33.63 1.42 11.06 17.79 11.06" fill="#ffe9db" fill-rule="evenodd"/>
        <polygon id="Fill-12" points="19.21 12.26 17.16 8.21 2.05 8.21 0 12.26 19.21 12.26" fill="#ffcbab" fill-rule="evenodd"/>
      </g>
    </symbol>
    <symbol id="Man_Support" data-name="Man Support" viewBox="0 0 125.82 182.65">
      <g id="Human">
        <polygon id="Neck" points="52.19 34.5 56.83 12.87 60.17 12.87 63.23 34.5 52.19 34.5" fill="#d4a181" fill-rule="evenodd"/>
        <path id="Head" d="M68.64,23.58c-3.45.89-16.66-5.91-16-15.76S67.07.14,69.73,5.11,72.08,22.69,68.64,23.58Z" fill="#d4a181" fill-rule="evenodd"/>
        <path id="Path" d="M65,5.77C63.42,6.6,62.33,8.19,61,10.3a2.87,2.87,0,0,0-1-.19,2.76,2.76,0,0,0-2.76,2.76,2.72,2.72,0,0,0,.83,2c-.64.9-1.36,1.84-2.18,2.81-3.08-1.85-5.36-7.26-2.35-12.46A6.85,6.85,0,0,1,58.49.66,8,8,0,0,1,63.75.28a17,17,0,0,1,6.64,1.77c0,2.93-.56,3.8-5.42,3.72Z" fill="#191847" fill-rule="evenodd"/>
        <path id="Beard" d="M61.91,8.91q.63,8.84,3.35,8.83c2.72,0,5-1.72,6.22-1.72.87,0,.68,1.09.1,1.89s-2.79,1.31-2.79,2.34,1.83.24,1.83.85c0,1,.32,2.92-1.44,2.92s-6.88-.65-7.75-3.29q-.87-2.64-1.11-11.13Z" fill="#191847" fill-rule="evenodd"/>
        <polygon id="Leg-_skin_" data-name="Leg-[skin]" points="48.01 72.65 64.94 130.74 72.9 174.36 80.89 174.36 72.91 72.65 48.01 72.65" fill="#d4a181" fill-rule="evenodd"/>
        <polygon id="Shadow" points="48.01 72.65 64.94 130.74 72.9 174.36 80.89 174.36 72.91 72.65 48.01 72.65" fill-opacity="0.1" fill-rule="evenodd"/>
        <path id="Leg-_skin_2" data-name="Leg-[skin]" d="M40.16,72.65c1.19,30.18.72,46.64.46,49.38s-1.78,21.11-12.07,53.25h8.36c13.63-30.83,18.39-49.2,20-53.25S63,101.52,69.77,72.65Z" fill="#d4a181" fill-rule="evenodd"/>
        <path id="Pant" d="M47.54,72.65q6.63,30,22.9,95.73H82.15c.87-45-2.81-74.6-9.19-95.73Z" fill="#1f28cf" fill-rule="evenodd"/>
        <path id="Pant-2" data-name="Pant" d="M40.2,72.65c1.16,30.18-1.85,59.91-11.18,96.19H41.55A405.22,405.22,0,0,0,71.63,72.65Z" fill="#313ae7" fill-rule="evenodd"/>
        <path id="Shoe" d="M27.63,181.27l.46-7.37q4,1.18,10.11-.92a39,39,0,0,0,15.3,6.08,2,2,0,0,1,1.59,2.34,1.36,1.36,0,0,1,0,.17l-.3,1.08H28.55Z" fill="#e4e4e4" fill-rule="evenodd"/>
        <path id="Shoe-2" data-name="Shoe" d="M71.16,181.27l.46-7.37q4,1.18,10.12-.92A39,39,0,0,0,97,179.06a2,2,0,0,1,1.59,2.34,1.36,1.36,0,0,1,0,.17l-.31,1.08H72.08Z" fill="#e4e4e4" fill-rule="evenodd"/>
        <path id="Arm" d="M108.39,22.65l7.58-7a39.38,39.38,0,0,1,5.51-9.21c.67-.54,1.94-1.11,1.33,1.44s-1.13,5.26-.31,5.76,2.12-.9,3.2,0q1.06.9-7,5.85l-5,4.79Z" fill="#d4a181" fill-rule="evenodd"/>
        <path id="Arm-2" data-name="Arm" d="M20.26,59.11Q12.48,85,10.8,87.53C10,88.77,4.65,92.2,1,94.09c-1.46.76-1,2-.57,2.39,3.82,3.06,6.92.37,10.7-.85,4.15-1.35,3.18,3.77,6.47,2.76-.7-2.26-2.44-6.52-1.06-9q.91-1.67,13.24-29.07Z" fill="#d4a181" fill-rule="evenodd"/>
        <path id="Coat-Back" d="M55.11,46.8,52.74,32.27C70.37,24,95.18,28.4,114.36,17.16l3.16,6.17C93.92,45.22,80.07,49.92,55.11,46.8Z" fill="#e87613" fill-rule="evenodd"/>
        <path id="Shirt" d="M41.28,76.64H76.44c1.6,0,1.3-2.32,1.07-3.49-2.68-13.51-13.14-28.07-13.14-47.3L54.23,24.26C45.84,37.75,42.94,54.36,41.28,76.64Z" fill="#dde3e9" fill-rule="evenodd"/>
        <path id="hood" d="M53.07,34q-11.3,7.29-15,.6C34.36,27.87,35.7,24.19,39.66,23s7.49,1.28,13.8,1.28Q59.78,24.26,53.07,34Z" fill="#ff9b21" fill-rule="evenodd"/>
        <path id="Clothes-Body" d="M33.47,86.29H65.11q6.14-15.48-7.53-61.78l-4.31-.25C45.77,37.79,35,63.94,33.47,86.29Z" fill="#ff9b21" fill-rule="evenodd"/>
        <path id="Clothes-Front" d="M55.87,27.92Q19.6,45.17,7.89,88.2l7.21,2.2Q29.5,76.91,58,31.33Z" fill="#ff9b21" fill-rule="evenodd"/>
        <path id="Shade" d="M42.43,50.45q.12,27.18,5.28,35.84H37.15Z" fill-opacity="0.1" fill-rule="evenodd"/>
      </g>
    </symbol>
    <symbol id="Nonbinary_Support" data-name="Nonbinary Support" viewBox="0 0 104.66 182.94">
      <polygon points="70.45 74.94 53.77 131.98 45.92 174.81 38.04 174.81 45.91 74.94 70.45 74.94" fill="#915b3c" fill-rule="evenodd"/>
      <path d="M78.18,74.94c-1.17,29.63-.71,45.8-.44,48.49s1.75,20.72,11.89,52.28H81.39C68,145.43,63.27,127.4,61.73,123.43S55.64,103.29,49,74.94Z" fill="#915b3c" fill-rule="evenodd"/>
      <path d="M70.91,74.94q-6.52,29.44-22.57,94H36.79c-.85-44.17,2.78-73.24,9.06-94Z" fill="#010101" fill-rule="evenodd"/>
      <path d="M78.15,74.94c-1.14,29.63,1.82,58.82,11,94.45H76.82A396.41,396.41,0,0,1,47.17,74.94Z" fill="#222425" fill-rule="evenodd"/>
      <path d="M90.54,181.59l-.45-7.23q-4,1.14-10-.91a38.41,38.41,0,0,1-15.05,6,2,2,0,0,0-1.59,2.34,1.16,1.16,0,0,0,0,.18l.29,1H89.63Z" fill="#e4e4e4" fill-rule="evenodd"/>
      <path d="M47.63,181.59l-.46-7.23q-4,1.14-10-.91a38.45,38.45,0,0,1-15.06,6,2,2,0,0,0-1.59,2.34c0,.06,0,.12.05.18l.29,1H46.72Z" fill="#e4e4e4" fill-rule="evenodd"/>
      <polygon points="66.82 35.94 62.74 16.96 59.8 16.96 57.12 35.94 66.82 35.94" fill="#915b3c" fill-rule="evenodd"/>
      <path d="M52.36,26.36c3,.78,14.64-5.19,14-13.83s-12.65-6.74-15-2.38S49.33,25.58,52.36,26.36Z" fill="#915b3c" fill-rule="evenodd"/>
      <path d="M70.63,9.65a3.09,3.09,0,0,0,.63-1.17,12.68,12.68,0,0,0,.4-1.33,2.91,2.91,0,0,0-.44-2.66,3.06,3.06,0,0,0-2-.88,3.67,3.67,0,0,0-1.43.19c-.46.15-.86.44-1.3.63a5.68,5.68,0,0,0-.68-2.84A2.81,2.81,0,0,0,63.68.22a4.14,4.14,0,0,0-2.57.51c-.2.11-.4.22-.59.35a1.5,1.5,0,0,1-.51.28c-.21,0-.31-.07-.44-.22A3.37,3.37,0,0,0,59,.67a3.09,3.09,0,0,0-2.89-.5A2.7,2.7,0,0,0,55,1c-.27.35-.46.91-.84,1.16-.15.1-.26,0-.41-.14s-.42-.32-.64-.47a3.06,3.06,0,0,0-1-.45C51.57,1,50.85,1,50.7,1.71a3,3,0,0,0,0,.79c0,.35,0,.71.08,1.06a6.82,6.82,0,0,0,.1.79,1.11,1.11,0,0,1,0,.54c-.07.18-.42.08-.57.08a2.34,2.34,0,0,0-.86.19.94.94,0,0,0-.52.48.86.86,0,0,0,0,.45,1.49,1.49,0,0,1,0,.47c-.39-.2-1.76-.63-1.93.08a1.09,1.09,0,0,0,.17.7,7,7,0,0,0,.64,1,8.74,8.74,0,0,0,1.69,1.64,1.11,1.11,0,0,0-.29,1.86,1.37,1.37,0,0,0,1,.29,3.31,3.31,0,0,1,.42,0c.06,0,.12.06.19.06a5.44,5.44,0,0,0,1.55-.19,5.09,5.09,0,0,0,2.36-1.24.76.76,0,0,1,.55-.25c.2,0,.4.06.61.07a4.39,4.39,0,0,0,1.52-.43,5.56,5.56,0,0,0,.5,2c.22.5.69.57,1.15.61,1.48.14,3,0,4.44,0-1.43.32-2.91.45-4.33.83-.64.18-.15.61.12.91a5.15,5.15,0,0,1,1,1.74,3.09,3.09,0,0,1,3-1.23,2.16,2.16,0,0,1,1.29,3.12,4.08,4.08,0,0,1-1.93,1.24,7.05,7.05,0,0,1,1,2,1.39,1.39,0,0,0,.72.83c.13,0,.28,0,.39.16s.15.27.31.38a1.8,1.8,0,0,0,2.23-.17,1.46,1.46,0,0,0,0-1.9C68,20.36,69.23,20,69,18.92c1.49-.1,5.1-2.51,3.1-4.27,1.1-.61,2.11-2.13,1.4-3.46a3.41,3.41,0,0,0-2.83-1.54" fill="#191847" fill-rule="evenodd"/>
      <path d="M17.31,23.09,10,16.63A40,40,0,0,0,4.41,7.26c-.67-.54-2-1.12-1.34,1.47s1.14,5.35.31,5.85-2.16-.92-3.25,0q-1.09.91,7.15,5.95l6.84,6.85Z" fill="#915b3c" fill-rule="evenodd"/>
      <path d="M88.71,71.39q4.67,27.06,6,29.83c.67,1.36,5.62,5.48,9.06,7.84,1.38,1,.81,2.16.29,2.48-4.24,2.61-7-.48-10.7-2.18-4-1.87-3.68,3.4-6.86,2,1-2.19,3.26-6.27,2.18-9q-.72-1.78-9.76-31Z" fill="#915b3c" fill-rule="evenodd"/>
      <path d="M66.58,46.26l.1-14.1q-28.05-.9-56.94-18l-3.89,16C30.76,39.53,46.6,54.21,66.58,46.26Z" fill="#131415" fill-rule="evenodd"/>
      <path d="M78.58,81.18h-36q12.5-30.38,12.5-51.62L66,27.94C74.49,41.65,76.9,58.54,78.58,81.18Z" fill="#1d7665" fill-rule="evenodd"/>
      <path d="M86.36,90.81H54.13Q58.57,49.29,59,35.59l2.62-7.49,3.87-.16h.71C73.83,41.65,84.85,68.16,86.36,90.81Z" fill="#323337" fill-rule="evenodd"/>
      <path d="M66.2,27.94Q91,52.23,94.93,96.6H77.4q2.73-37.36-14.23-66Z" fill="#323337" fill-rule="evenodd"/>
      <path d="M76.48,54.56Q76.36,82.19,71.11,91H81.85Z" fill="#131415" fill-rule="evenodd"/>
      <path d="M66.2,27.94Q91,52.23,94.93,96.6H77.4q2.73-37.36-14.23-66Z" fill-opacity="0.1" fill-rule="evenodd"/>
      <polygon points="72.46 76.51 60.84 71.11 60.84 76.51 72.46 76.51" fill="#131415" fill-rule="evenodd"/>
    </symbol>
    <symbol id="Pop" data-name="Pop" viewBox="0 0 31 15.1">
      <path id="_Compound_Path_" data-name="&lt;Compound Path&gt;" d="M15.5,0A1.49,1.49,0,0,1,17,1.36V9.5a1.5,1.5,0,0,1-3,.14V1.5A1.5,1.5,0,0,1,15.5,0Z" fill="#fd6"/>
      <path id="_Compound_Path_2" data-name="&lt;Compound Path&gt;" d="M30.25,5.37a1.51,1.51,0,0,1,.62,1.92l-.07.13-4,6.93A1.5,1.5,0,0,1,24.13,13l.07-.13,4-6.93A1.5,1.5,0,0,1,30.25,5.37Z" fill="#fd6"/>
      <path id="_Compound_Path_3" data-name="&lt;Compound Path&gt;" d="M.75,5.37a1.5,1.5,0,0,1,2,.43l.08.12,4,6.93a1.5,1.5,0,0,1-2.52,1.62l-.08-.12L.2,7.42A1.5,1.5,0,0,1,.75,5.37Z" fill="#fd6"/>
    </symbol>
  </defs>
  <g id="Group_Support" data-name="Group Support">
    <use width="327" height="218" xlink:href="#Backdrop"/>
    <path id="Blob" d="M245.42,194.81c68.7-40.08,70.86-73.58,40.13-116.36S189.7,44.88,139.07,14.27,22.5,48.37,22.5,123.91,176.71,234.89,245.42,194.81Z" fill="#fff1e8" fill-rule="evenodd"/>
    <use width="51.19" height="132" transform="translate(253.4 49.25)" xlink:href="#Plant_3"/>
    <use width="19.21" height="159.98" transform="translate(22.4 10.25)" xlink:href="#Lamp_Post"/>
    <use width="125.82" height="182.65" transform="translate(41.78 25.1)" xlink:href="#Man_Support"/>
    <use width="104.66" height="182.94" transform="translate(161.74 24.81)" xlink:href="#Nonbinary_Support"/>
    <use width="31" height="15.1" transform="translate(149.34 11.25)" xlink:href="#Pop"/>
  </g>
</svg>
