<svg xmlns="http://www.w3.org/2000/svg" xmlns:xlink="http://www.w3.org/1999/xlink" viewBox="0 0 327 218">
  <defs>
    <symbol id="Backdrop" data-name="Backdrop" viewBox="0 0 327 218">
      <rect id="Backdrop-3" data-name="Backdrop" width="327" height="218" rx="8" fill="#fff"/>
    </symbol>
    <symbol id="Blob_5-2" data-name="Blob 5" viewBox="0 0 232.17 185.29">
      <path id="Blob" d="M58.52,26.61C-1.66,65.47-23.4,167.72,31.69,183.16c31.4,8.8,56.42-11.1,80.23-32.16l3.74-3.33h0l3.74-3.33h0l2.48-2.2c14.47-12.81,28.74-24.59,44-29C209.56,100.6,242,79.71,229.45,35.84S118.7-12.24,58.52,26.61Z" fill="#fff1e8" fill-rule="evenodd"/>
    </symbol>
    <symbol id="Table" data-name="Table" viewBox="0 0 119.44 112.14">
      <g id="Table-3" data-name="Table">
        <rect x="69.41" y="37.99" width="8.96" height="73.51" fill="#ffb78a"/>
        <polygon points="31.71 35.15 31.71 21.99 0 21.99 0 34.15 0 37.99 0 111.14 8.96 111.14 8.96 37.99 31.71 37.99 31.71 35.15 31.71 35.15" fill="#ffb78a"/>
        <polygon points="31.71 21.99 31.71 35.15 31.71 37.99 31.71 37.99 31.71 112.14 40.67 112.14 40.67 37.99 69.41 37.99 78.36 37.99 109.28 37.99 109.28 112.14 118.24 112.14 118.24 37.99 119.44 37.99 119.44 21.99 31.71 21.99" fill="#ffcbab"/>
        <rect x="31.71" y="35.14" height="2.85" fill="#ffcbab"/>
        <g>
          <rect x="17.56" y="65" width="14.15" height="4" fill="#ffcbab" opacity="0.55" style="isolation: isolate"/>
          <rect x="40.67" y="65" width="28.74" height="4" fill="#ffcbab" opacity="0.55" style="isolation: isolate"/>
          <rect x="78.36" y="65" width="30.92" height="4" fill="#ffcbab" opacity="0.55" style="isolation: isolate"/>
          <polygon id="_Path_" data-name="&lt;Path&gt;" points="17.56 69 8.96 69 8.96 65 17.56 65 17.56 69" fill="#ffb78a" fill-opacity="0.75" fill-rule="evenodd"/>
        </g>
        <polygon id="_Path_2" data-name="&lt;Path&gt;" points="114.27 34.5 39.5 34.5 39.5 25.5 114.27 25.5 114.27 34.5" fill="#ffe9db" fill-rule="evenodd"/>
      </g>
      <g id="Items">
        <g>
          <path d="M66.39,0V19.3A5.3,5.3,0,0,0,66.81,21a2.19,2.19,0,0,0,2.07,1,2.41,2.41,0,0,0,2.25-.75,4.26,4.26,0,0,0,.24-1.94V0Zm4,18.17a5.31,5.31,0,0,1-.15,1.67,1.19,1.19,0,0,1-1.34.65,1.17,1.17,0,0,1-1.24-.83,6.2,6.2,0,0,1-.26-1.49V1.5h3Z" fill="#ffbd94" opacity="0.94" style="isolation: isolate"/>
          <path d="M67.41,18.17a6.2,6.2,0,0,0,.26,1.49,1.17,1.17,0,0,0,1.24.83,1.19,1.19,0,0,0,1.34-.65,5.31,5.31,0,0,0,.15-1.67V1.5h-3Z" fill="#ffbd94" opacity="0.94" style="isolation: isolate"/>
          <path d="M67.41,18.17a6.2,6.2,0,0,0,.26,1.49,1.17,1.17,0,0,0,1.24.83,1.19,1.19,0,0,0,1.34-.65,5.31,5.31,0,0,0,.15-1.67V1.5h-3Z" fill="#ffe9db" opacity="0.94" style="isolation: isolate"/>
        </g>
        <path d="M107.8,7.5h-2v-5h-6v5h-2A1.5,1.5,0,0,0,96.32,9v8.46a5,5,0,0,0,4.91,5h3.14a5,5,0,0,0,4.91-5V9A1.5,1.5,0,0,0,107.8,7.5Z" fill="#ffdeca" fill-rule="evenodd"/>
        <path id="_Path_3" data-name="&lt;Path&gt;" d="M81.38,19.88,82.74,6.5H87l1.36,13.38A2.37,2.37,0,0,1,86,22.5H83.72a2.37,2.37,0,0,1-2.34-2.62" fill="#ffc19a" fill-rule="evenodd"/>
        <path d="M52.48,9.13V6.5h1v-3h-8v3h1V9.12a8.55,8.55,0,0,0-5,7.92,8.84,8.84,0,0,0,1.85,5.46H55.6A8.89,8.89,0,0,0,57.44,17,8.55,8.55,0,0,0,52.48,9.13Z" fill="#ffb78a" fill-rule="evenodd"/>
      </g>
      <g id="Book">
        <path d="M88.67,59.54H81.4l-.05,0V57.25l.05,0h7.27a1.17,1.17,0,1,1,0,2.34m-8.1-3.12V61.1h21.76a2.34,2.34,0,1,0,0-4.68H80.57" fill="#ffae7c"/>
        <path d="M88.67,57.2a1.17,1.17,0,1,1,0,2.34H81.4a0,0,0,0,1-.05,0V57.25a0,0,0,0,1,.05,0Z" fill="#ffcbab"/>
      </g>
      <g id="Book-2" data-name="Book">
        <path d="M83.73,60.32H107.1v1.56H97.53a1.18,1.18,0,1,0,0,2.34h9.57V65H83.73a2.34,2.34,0,1,1,0-4.68Z" fill="#ffae7c"/>
        <path d="M96.17,63.05a1.27,1.27,0,0,1,1.36-1.17h9.57v2.34H97.53A1.27,1.27,0,0,1,96.17,63.05Z" fill="#ffcbab"/>
      </g>
      <g id="Book-3" data-name="Book">
        <path d="M60.92,60.85h5.53l0,0V59.1l0,0H60.92a.89.89,0,1,0,0,1.78m6.17-2.38V62H50.53a1.78,1.78,0,1,1,0-3.56H67.09" fill="#ffae7c"/>
        <path d="M60.92,59.07a.89.89,0,1,0,0,1.78h5.53a0,0,0,0,0,0,0V59.1s0,0,0,0Z" fill="#ffcbab"/>
      </g>
      <g id="Book-4" data-name="Book">
        <path d="M64.68,61.44H46.91v1.19h7.28a.9.9,0,1,1,0,1.78H46.91V65H64.68a1.78,1.78,0,1,0,0-3.56Z" fill="#ffae7c"/>
        <path d="M55.22,63.52a1,1,0,0,0-1-.89H46.91v1.78h7.28A1,1,0,0,0,55.22,63.52Z" fill="#ffcbab"/>
      </g>
    </symbol>
    <symbol id="Woman_Healthworker" data-name="Woman Healthworker" viewBox="0 0 105.68 171.83">
      <g id="Human">
        <path id="Head-_skin_" data-name="Head-[skin]" d="M67.12,7.58c2.59,4.78,2.29,16.89-1.06,17.75-1.34.34-4.18-.5-7.08-2.22L60.8,35.83H50.07l3.69-17a11.91,11.91,0,0,1-3.22-8.61C51.21.72,64.53,2.8,67.12,7.58Z" fill="#b28b67" fill-rule="evenodd"/>
        <path id="hair" d="M68.14,9.72a12.5,12.5,0,0,0-.58-1.89,8.9,8.9,0,0,0-1.13-2.08,15.66,15.66,0,0,0-3-3.2A9.81,9.81,0,0,0,56.22.25,7.41,7.41,0,0,0,52.6,1.71c-1,.73-1.9,1.82-3.16,1.89s-2.61-1.1-3.7-1.84a10,10,0,0,0-4-1.66,6.65,6.65,0,0,0-6.35,2.37c-1.77,2.08-3,5.14-1.89,7.9a3.59,3.59,0,0,0,.89,1.3c.37.33.93.68,1.08,1.21s-.32,1.28-.5,1.78a5.17,5.17,0,0,0-.4,2.27,5.84,5.84,0,0,0,1.81,3.36,6.07,6.07,0,0,0,3.12,1.59,8.81,8.81,0,0,0,2.35.17A6.23,6.23,0,0,0,43,21.83a1,1,0,0,1,.88.22,7.32,7.32,0,0,0,4.67,1.14,7.5,7.5,0,0,0,4.19-1.41c1.28-1.06,1.25-2.52,1-4.09.32.16,1.2.26.67-.37a3,3,0,0,0-.87-.49,3.23,3.23,0,0,1-.87-.66c-1-1.11,0-3.37,1.24-3.75,1.83-.55,2.23,2,3.54,2.66.75.38,1.53-.14,2.09-.67a8.51,8.51,0,0,0,1.71-2.6c.36-.79.7-1.59,1.07-2.38.17-.36.78-1.4.47-1.81a5.67,5.67,0,0,1,3.89,1,2.65,2.65,0,0,1,1.07,1.13c0,.11.17.44.31.45s.17-.3.15-.46" fill="#191847" fill-rule="evenodd"/>
        <path id="Arms-_skin_" data-name="Arms-[skin]" d="M21.79,63.83l7.85,1.11Q19,87.47,16.66,92.11l-.11.23c-.23.45-.39.75-.47.89-1.37,2.32.24,6.35.87,8.48-3.19.9-2.17-3.89-6.2-2.7-3.67,1.09-6.7,3.57-10.35.63C0,99.27-.42,98.09,1,97.4c3.55-1.72,8.75-4.86,9.56-6Q12.21,89,21.79,63.83Zm60.64,4.78,13.4,11.07a38.4,38.4,0,0,1,9.32,4.41c.57.58,1.23,1.72-1.28,1.36s-5.15-.63-5.56.18,1,1.92.26,3q-.78,1.08-6.22-6.11l-13.58-6.6Z" fill="#b28b67" fill-rule="evenodd"/>
        <path id="Coat-Back" d="M55.7,31.47l4.9-1.64c6.64,16.82,16.56,33.09,33.11,46.84l-4.09,7.16C75.07,75.14,61.29,68.39,55.7,55.36,53.83,51,55.55,36.7,55.7,31.47Z" fill="#c5cfd6" fill-rule="evenodd"/>
        <polygon id="Leg-_skin_" data-name="Leg-[skin]" points="50.45 76.83 65.02 127 71.88 164.67 78.76 164.67 71.89 76.83 50.45 76.83" fill="#b28b67" fill-rule="evenodd"/>
        <path id="Leg-_skin_2" data-name="Leg-[skin]" d="M43.69,76.83c1,26.06.62,40.28.39,42.65s-1.53,18.22-10.38,46h7.2c11.73-26.64,15.82-42.5,17.17-46s5.32-17.72,11.12-42.65Z" fill="#b28b67" fill-rule="evenodd"/>
        <path id="Pant" d="M50.05,76.83q5.7,25.89,19.71,82.67H79.85c.74-38.85-2.43-64.42-7.91-82.67Z" fill="#0f0f0f" fill-rule="evenodd"/>
        <path id="Pant-2" data-name="Pant" d="M43.72,76.83c1,26.06-1.59,51.74-9.62,83.07H44.88a350.45,350.45,0,0,0,25.9-83.07Z" fill="#222425" fill-rule="evenodd"/>
        <path id="Shoe" d="M32.9,170.63l.4-6.36q3.47,1,8.7-.79a33.23,33.23,0,0,0,12.9,5.19A2,2,0,0,1,56.47,171a.94.94,0,0,1,0,.16l-.18.65H33.69Z" fill="#e4e4e4" fill-rule="evenodd"/>
        <path id="Shoe-2" data-name="Shoe" d="M70.38,170.63l.4-6.36q3.48,1,8.71-.79a33.18,33.18,0,0,0,12.89,5.19A2,2,0,0,1,94,171s0,.11,0,.16l-.19.65H71.18Z" fill="#e4e4e4" fill-rule="evenodd"/>
        <path id="Shirt" d="M38.88,78.7q20.94,2.25,33,0c1-.19,1.15-1.88.69-3C65.36,57.82,60.44,42.23,60.44,29.83c-1.31.67-3.62.77-6.91.3C44.69,42.91,40.63,57.58,38.88,78.7Z" fill="#323337" fill-rule="evenodd"/>
        <path id="Coat-Front" d="M55,28.4c.85,5.06,3.53,73.58,11.83,96H21.93c1-20.24,8.43-44.49,16.08-64.95Q27.92,69,20.37,91.36h0L12,89.19Q21.28,48.75,50.13,29.6c.17-.4.34-.81.51-1.2H55Z" fill="#dde3e9" fill-rule="evenodd"/>
      </g>
    </symbol>
    <symbol id="Expression_NRT" data-name="Expression NRT" viewBox="0 0 115.22 70.38">
      <path id="_Compound_Path_" data-name="&lt;Compound Path&gt;" d="M66.14,61.91c2.83,0,6.29.61,8.87-.74a13,13,0,0,0,3.26-2.58c.45-.51,1-1.6,1.47-1.71.79-.21,1.54,1.43,2.27,2.12a15.14,15.14,0,0,0,3.18,2.17c1.62,1,5.47,1.33,8.84.74,1.49-.26,3.66-1.95,6.13-2.91.61-.24,5-5.09,5-6.17s.25-1.74.2-2.17c-.07-.63-.37-1-.2-1,.84,0,1.43.18,1.79,0a18.58,18.58,0,0,0,6.74-6.5,14.33,14.33,0,0,0,1.56-5.51c0-4.08,0-5.26-.87-7.11a13.24,13.24,0,0,0-2.49-3.87A12.43,12.43,0,0,0,109.39,25c-.47-.27.61-1.18.91-2.92a12.69,12.69,0,0,0-.42-5.3,20.9,20.9,0,0,0-3.6-5.24,15.64,15.64,0,0,0-5.41-3,28.43,28.43,0,0,0-4.82-1.07c-1.67-.22-3.38,0-4.65-.29C90.79,7,89.1,3.6,87.35,2.25A6.78,6.78,0,0,0,83.81.49,59.94,59.94,0,0,0,77.55,0a10.53,10.53,0,0,0-6.1,2.24c-1.71,1.42-1.64,1.86-2.56,1.86-2.51,0-4-2.26-6.49-2.89a11.79,11.79,0,0,0-5.6,0c-4.16.63-8.6,4.89-10.32,9.66-.46,1.27-1.7.44-2.84.32a23.74,23.74,0,0,0-5.54-.32,10.67,10.67,0,0,0-6.29,3.06,12,12,0,0,0-3.4,8.91A19.92,19.92,0,0,0,30,28.67c.71,1.31,1.12,1.5,1.12,2.24s-.48.79-.8,1.17a11.34,11.34,0,0,0-1.95,2.47,11.7,11.7,0,0,0-1.27,3.07c-.51,2.19-.16,6.39,1.27,8.32A8.88,8.88,0,0,0,30.66,48c.44.24,2.74,0,2.35,1.24a14.38,14.38,0,0,0-.62,3.31,4.13,4.13,0,0,0,1.12,3.22C34.83,56.89,35.79,58,37,59a15.16,15.16,0,0,0,9.44,2.91c3.12-.3,3.12.15,5.7-1.32,1.16-.66,3.22-2.93,4.06-2.15a14.8,14.8,0,0,0,2.34,1.49C60.41,61.17,64.19,61.91,66.14,61.91Z" fill="#ffdbc5" fill-opacity="0.99" fill-rule="evenodd"/>
      <path id="_Compound_Path_2" data-name="&lt;Compound Path&gt;" d="M10.57,70.38A7.45,7.45,0,0,0,13.1,70a7.72,7.72,0,0,0,2.47-1.49,2.36,2.36,0,0,0,.53-1.22c.07-.21.13-.83.24-.9s.75,0,1.12-.12A3.83,3.83,0,0,0,19.77,65,9.38,9.38,0,0,0,21.21,63c.6-1.14-.06-3.34-.29-4a3,3,0,0,0-1.15-1.48L19,57.14c-.4-.15-.83-.32-1.13-.45-.64-.28.43-.5.71-1a3.17,3.17,0,0,0-.71-3.94,5.25,5.25,0,0,0-2.57-1.67,7.13,7.13,0,0,0-2,0c-.26,0-.52.15-1.37.72-.37.25-.74.72-1.1.73-1,0-1.7-.58-2.39-.73a3.06,3.06,0,0,0-2.1,0A3.47,3.47,0,0,0,4.69,52a8.57,8.57,0,0,0-1.16,1.32c-.27.45-.41.3-.41,1.42s.87,1.54.41,1.7c-1.56.55-1.06.16-1.92.71a3.32,3.32,0,0,0-1.16,1.1c-.23.46-.16,1-.39,1.61a4.4,4.4,0,0,0,1.55,4,11.71,11.71,0,0,0,1.14.89,5.86,5.86,0,0,1,1.5.85,3.55,3.55,0,0,0,1.1.33c.56,0,.73,1.31,1.05,1.93A4.05,4.05,0,0,0,10.57,70.38Z" fill="#ffdbc5" fill-rule="evenodd"/>
      <path id="_Compound_Path_3" data-name="&lt;Compound Path&gt;" d="M90.45,40.33a7.33,7.33,0,1,1-7.29,7.33A7.31,7.31,0,0,1,90.45,40.33ZM85.66,7A2.75,2.75,0,0,1,88.4,9.75v22a2.74,2.74,0,0,1-2.74,2.74H67.1L75.71,43a6.71,6.71,0,0,1,0,9.55l0,0a6.89,6.89,0,0,1-9.65,0l-14.15-14a6.74,6.74,0,0,1,0-9.6,6.92,6.92,0,0,1,7.37-1.52V9.75A2.74,2.74,0,0,1,62,7Zm4.79,36.67a4,4,0,1,0,4,4A4,4,0,0,0,90.45,43.67ZM66.93,38l-5.7,5.86,6.38,6.38c1.76,1.74,4.1,2,5.87.26l0,0a4.18,4.18,0,0,0-.2-6.09ZM85,10.43H62.65V30.06l1,1H85Zm-5.87,3.9a2,2,0,0,1,2,2v8.82a2,2,0,0,1-2,2H68.52a2,2,0,0,1-2-2V16.33a2,2,0,0,1,2-2Zm-8.64,7.34A1.33,1.33,0,1,0,71.8,23,1.33,1.33,0,0,0,70.47,21.67Zm6.65,0A1.33,1.33,0,1,0,78.45,23,1.32,1.32,0,0,0,77.12,21.67ZM70.47,17a1.34,1.34,0,1,0,1.33,1.33A1.34,1.34,0,0,0,70.47,17Zm6.65,0a1.34,1.34,0,1,0,1.33,1.33A1.33,1.33,0,0,0,77.12,17Z" fill="#fd9757" fill-rule="evenodd"/>
    </symbol>
  </defs>
  <g id="Individual_Woman_Healthworker_Quit_Aids" data-name="Individual Woman Healthworker Quit Aids">
    <use width="327" height="218" transform="translate(0.32)" xlink:href="#Backdrop"/>
    <use width="232.17" height="185.29" transform="translate(47.42 16.35)" xlink:href="#Blob_5-2"/>
    <use width="119.44" height="112.14" transform="translate(167 94)" xlink:href="#Table"/>
    <use id="Woman_Healthworker-3" data-name="Woman Healthworker" width="105.68" height="171.83" transform="translate(45.5 34) scale(0.99 1)" xlink:href="#Woman_Healthworker"/>
    <use width="115.22" height="70.38" transform="translate(123.02 4.1)" xlink:href="#Expression_NRT"/>
  </g>
</svg>
