<svg xmlns="http://www.w3.org/2000/svg" xmlns:xlink="http://www.w3.org/1999/xlink" viewBox="0 0 327 218">
  <defs>
    <symbol id="Backdrop" data-name="Backdrop" viewBox="0 0 327 218">
      <rect id="Backdrop-3" data-name="Backdrop" width="327" height="218" rx="8" fill="#fff"/>
    </symbol>
    <symbol id="Man_Device_Alt" data-name="Man Device Alt" viewBox="0 0 104.36 181.81">
      <g id="Device">
        <path d="M81.73,45.25,97.32,32.71l7,5.91c-1,.77-12.87,9.62-16.43,12.49Z" fill="#5e93d1" fill-rule="evenodd"/>
        <path d="M95.74,36.88c-.22-.27,0-.82.53-1.23s1.1-.53,1.32-.26,0,.82-.54,1.23S96,37.14,95.74,36.88Z" fill-rule="evenodd"/>
      </g>
      <path d="M54.11,5.09C56.77,10,56.45,22.59,53,23.47c-1.37.35-4.3-.51-7.28-2.3L47.6,34.34h-11l3.8-17.64a12.35,12.35,0,0,1-3.31-8.91C37.74-2,51.44.14,54.11,5.09Z" fill="#fedaca" fill-rule="evenodd"/>
      <path d="M49.35,5.75c-1.56.82-2.65,2.41-4,4.51a2.59,2.59,0,0,0-1-.19,2.74,2.74,0,0,0-1.93,4.71c-.64.9-1.35,1.84-2.17,2.8-3.08-1.84-5.37-7.23-2.36-12.4A6.8,6.8,0,0,1,42.87.66,8,8,0,0,1,48.12.28,17.1,17.1,0,0,1,54.77,2c0,2.92-.57,3.78-5.42,3.71Z" fill="#a24242" fill-rule="evenodd"/>
      <path d="M46.28,8.87q.63,8.79,3.36,8.79c2.72,0,5-1.72,6.22-1.72.87,0,.67,1.09.1,1.89s-2.8,1.3-2.8,2.33S55,20.39,55,21c0,1,.33,2.91-1.43,2.91s-6.88-.65-7.76-3.28Q44.93,18,44.69,9.55Z" fill="#a24242" fill-rule="evenodd"/>
      <polygon points="32.38 72.32 49.31 130.15 57.27 173.57 65.26 173.57 57.28 72.32 32.38 72.32" fill="#fedaca" fill-rule="evenodd"/>
      <path d="M24.54,72.32c1.18,30,.72,46.43.45,49.15s-1.78,21-12.06,53h8.36c13.62-30.69,18.38-49,19.94-53s6.18-20.41,12.92-49.15Z" fill="#fedaca" fill-rule="evenodd"/>
      <path d="M31.92,72.32q6.61,31,22.89,99H66.53c.86-46.53-2.82-77.15-9.19-99Z" fill="#222425" fill-rule="evenodd"/>
      <path d="M24.57,72.32c1.16,31.05-1.85,61.65-11.18,99H25.92A426.1,426.1,0,0,0,56,72.32Z" fill="#323337" fill-rule="evenodd"/>
      <path d="M12,180.44l.46-7.33q4,1.17,10.11-.92a39,39,0,0,0,15.3,6.05,2,2,0,0,1,1.6,2.34c0,.06,0,.12,0,.17l-.3,1.06H12.92Z" fill="#e4e4e4" fill-rule="evenodd"/>
      <path d="M55.54,180.44l.46-7.33q4,1.17,10.11-.92a39,39,0,0,0,15.3,6.05A2,2,0,0,1,83,180.58a.85.85,0,0,1,0,.17l-.3,1.06H56.46Z" fill="#e4e4e4" fill-rule="evenodd"/>
      <path d="M15.69,66.7l9.6,0Q18,90.19,16.2,95.57l-.08.27c-.21.63-.36,1-.43,1.22-1.06,2.62,1.18,6.61,2.15,8.76-3.14,1.4-2.8-3.77-6.76-1.94-.73.34-1.43.74-2.12,1.13l-.4.24c-2.51,1.45-4.85,2.7-8,.77-.51-.32-1.07-1.5.29-2.43,3.38-2.31,8.25-6.35,8.91-7.67a9.72,9.72,0,0,0,.47-1.35l.09-.3q1.57-5.64,5.37-27.57ZM84.26,51q3.93-8.61,5-7.66c1,.95-.2,2.41.4,3.16s3.21-.09,5.67-1,2,.41,1.6,1.14a36.63,36.63,0,0,1-6.82,5.52c-.53.35-1.08.7-1.66,1h0l-4.29,5.88-3.47-4.66Z" fill="#fedaca" fill-rule="evenodd"/>
      <path d="M35.36,34.69l9.77-9.21c9.28,3.33,9.72,20.09,18.42,26.83,8.35,6.47,14.87-1.13,21.24-3.15q.13,0,5.74,10.27C76,63,61.33,68.47,55,63.15,51.11,59.93,39,45.12,35.36,34.69Z" fill="#2026a2" fill-rule="evenodd"/>
      <path d="M25.65,76.29H60.81c1.61,0,1.3-2.31,1.07-3.47C59.2,59.37,48.74,44.88,48.74,25.73L38.6,24.15C30.21,37.58,27.31,54.11,25.65,76.29Z" fill="#dde3e9" fill-rule="evenodd"/>
      <path d="M37.44,33.8q-11.29,7.26-15,.6C18.73,27.74,20.07,24.08,24,22.87s7.49,1.28,13.81,1.28Q44.14,24.15,37.44,33.8Z" fill="#313ae7" fill-rule="evenodd"/>
      <path d="M17.84,85.9H49.49Q55.61,70.48,42,24.4l-4.3-.25C30.15,37.62,19.33,63.65,17.84,85.9Z" fill="#313ae7" fill-rule="evenodd"/>
      <path d="M37.83,24.15Q8.19,51.14,9.57,95.5h7.54q9.83-17,23.71-68.71Z" fill="#313ae7" fill-rule="evenodd"/>
      <path d="M32.09,85.9H21.82q2.87-6.66,6-15.78Q29.15,81,32.09,85.9Z" fill="#2026a2" fill-rule="evenodd"/>
    </symbol>
  </defs>
  <g id="Individual_Man_Device_Alt" data-name="Individual Man Device Alt">
    <use width="327" height="218" xlink:href="#Backdrop"/>
    <path id="Blob" d="M22.94,126.58c-6.4-40,42.5-36.08,76-16.38S153,128.87,174.3,157.62s-18.57,53.89-52.68,52.44S29.34,166.59,22.94,126.58ZM195.31,7.88c44.1,0,109.32,21.23,109.32,90.11s-100.28,64.93-128.72,26.2-101.46-55.58-88.35-81S151.22,7.88,195.31,7.88Z" fill="#fff1e8" fill-rule="evenodd"/>
    <use width="104.36" height="181.81" transform="translate(111.32 18.09)" xlink:href="#Man_Device_Alt"/>
  </g>
</svg>
