<svg xmlns="http://www.w3.org/2000/svg" xmlns:xlink="http://www.w3.org/1999/xlink" viewBox="0 0 327 218">
  <defs>
    <symbol id="Backdrop" data-name="Backdrop" viewBox="0 0 327 218">
      <rect id="Backdrop-3" data-name="Backdrop" width="327" height="218" rx="8" fill="#fff"/>
    </symbol>
    <symbol id="Blob_4-2" data-name="Blob 4" viewBox="0 0 282 205">
      <path id="Blob" d="M222.92,188.31c68.7-40.08,70.86-73.58,40.13-116.36S167.2,38.38,116.57,7.77,0,41.87,0,117.41,154.21,228.39,222.92,188.31Z" fill="#fff1e8" fill-rule="evenodd"/>
    </symbol>
    <symbol id="Expression_Thinking" data-name="Expression Thinking" viewBox="0 0 121.52 62.38">
      <g>
        <path d="M39.34,61.91c2.84,0,6.31.61,8.9-.74a12.89,12.89,0,0,0,3.27-2.58c.45-.51,1-1.6,1.47-1.71.79-.21,1.55,1.43,2.28,2.12a15.17,15.17,0,0,0,3.19,2.17c1.62,1,5.49,1.33,8.87.74C68.82,61.65,71,60,73.47,59c.61-.24,5-5.09,5-6.17s.25-1.74.2-2.17c-.07-.63-.37-1-.2-1,.85,0,1.44.18,1.8,0A18.63,18.63,0,0,0,87,43.13a14.33,14.33,0,0,0,1.56-5.51c0-4.08,0-5.26-.87-7.11a13.32,13.32,0,0,0-2.5-3.87A12.43,12.43,0,0,0,82.73,25c-.48-.27.6-1.18.91-2.92a12.49,12.49,0,0,0-.43-5.3,21,21,0,0,0-3.61-5.24,15.65,15.65,0,0,0-5.43-3,28.33,28.33,0,0,0-4.83-1.07c-1.67-.22-3.39,0-4.66-.29C64.07,7,62.37,3.6,60.61,2.25A6.78,6.78,0,0,0,57.07.49,60.31,60.31,0,0,0,50.78,0a10.58,10.58,0,0,0-6.11,2.24C43,3.67,43,4.11,42.1,4.11c-2.52,0-4-2.26-6.51-2.89a11.87,11.87,0,0,0-5.62,0c-4.17.63-8.63,4.89-10.35,9.66-.46,1.27-1.7.44-2.85.32a23.82,23.82,0,0,0-5.55-.32,10.67,10.67,0,0,0-6.31,3.06A12,12,0,0,0,1.5,22.85a19.34,19.34,0,0,0,1.64,5.82c.71,1.31,1.12,1.5,1.12,2.24s-.48.79-.8,1.17a11,11,0,0,0-2,2.47A11.38,11.38,0,0,0,.22,37.62C-.29,39.81.06,44,1.5,45.94A8.88,8.88,0,0,0,3.76,48c.44.24,2.75,0,2.35,1.24a14.38,14.38,0,0,0-.62,3.31,4.13,4.13,0,0,0,1.12,3.22C7.94,56.89,8.9,58,10.15,59a15.25,15.25,0,0,0,9.47,2.91c3.13-.3,3.13.15,5.72-1.32,1.16-.66,3.23-2.93,4.07-2.15a14.85,14.85,0,0,0,2.35,1.49C33.6,61.17,37.39,61.91,39.34,61.91Z" fill="#ffdbc5" fill-opacity="0.99" fill-rule="evenodd"/>
        <path d="M110.6,62.38a7.47,7.47,0,0,0,2.54-.38,7.88,7.88,0,0,0,2.48-1.49,2.45,2.45,0,0,0,.53-1.22c.07-.21.13-.83.24-.9s.75,0,1.12-.12A3.86,3.86,0,0,0,119.83,57,9.05,9.05,0,0,0,121.27,55c.6-1.14,0-3.34-.28-4a3.08,3.08,0,0,0-1.16-1.48l-.75-.31c-.4-.15-.83-.32-1.13-.45-.64-.28.43-.5.71-1a3.17,3.17,0,0,0-.71-3.94,5.33,5.33,0,0,0-2.58-1.67,7.2,7.2,0,0,0-2,0c-.26,0-.52.15-1.37.72-.37.25-.74.72-1.11.73-1,0-1.7-.58-2.39-.73a3.09,3.09,0,0,0-2.11,0A3.47,3.47,0,0,0,104.71,44a8.67,8.67,0,0,0-1.17,1.32c-.27.45-.41.3-.41,1.42s.87,1.54.41,1.7c-1.57.55-1.06.16-1.93.71a3.4,3.4,0,0,0-1.16,1.1c-.23.46-.16,1-.39,1.61a4.4,4.4,0,0,0,1.55,4,13.16,13.16,0,0,0,1.15.89,5.7,5.7,0,0,1,1.5.85,3.7,3.7,0,0,0,1.11.33c.56,0,.72,1.31,1,1.93A4.06,4.06,0,0,0,110.6,62.38Z" fill="#ffdbc5" fill-rule="evenodd"/>
      </g>
    </symbol>
    <symbol id="Wheelchair" data-name="Wheelchair" viewBox="0 0 117.98 70.76">
      <path d="M1.5,63.76a1.5,1.5,0,0,0,0,3H22.7a1.5,1.5,0,0,0,0-3ZM79.75,0a10.36,10.36,0,0,0-2,.2L40.1,7.87a10,10,0,0,0-7.34,6.2,6.59,6.59,0,0,0-.61,1.64l-10,45.05h5.08l8-36H85.75a4,4,0,0,0,4-4V10A10,10,0,0,0,79.75,0Z" fill="#ffc09a" fill-rule="evenodd"/>
      <ellipse cx="23.19" cy="62.76" rx="8.07" ry="8" fill="#fd9757"/>
      <path d="M83.7.57A34.51,34.51,0,1,0,118,35.08,34.4,34.4,0,0,0,83.7.57Zm1.7,39,16.67,16.78a27.77,27.77,0,0,1-16.68,6.87Zm-3.4,0V63.18a27.71,27.71,0,0,1-16.67-6.87Zm22.63,14.22-16.87-17h23.86A28.17,28.17,0,0,1,104.63,53.75Zm-48.85-17H79.63l-16.87,17A28.1,28.1,0,0,1,55.78,36.77Zm6.83-20.18,0,0h0L79.3,33.39H55.78A28.14,28.14,0,0,1,62.61,16.59Zm49,16.8H88.1l16.65-16.76,0,0A28.14,28.14,0,0,1,111.62,33.39ZM102.22,14l0,0,0,0h0L85.4,31V7A27.76,27.76,0,0,1,102.22,14ZM82,7V31L65.2,14.06,65.14,14A27.83,27.83,0,0,1,82,7Z" fill="#fd9757" fill-rule="evenodd"/>
    </symbol>
    <symbol id="Nonbinary_Sitting_Alt" data-name="Nonbinary Sitting Alt" viewBox="0 0 127.92 175.46">
      <g>
        <path d="M12.75,95.53c0,5,2,18,4.34,31.45l.31,1.83c1.7,9.75,3.51,19.48,4.76,26.17l.23,1.22c.73,3.93,1.24,6.61,1.35,7.28.54,3.37,6.37,4.47,6.71.26C31,157.05,32,133.83,31,123c-.29-3.11-.59-6.12-.9-8.94q8.25,14.52,25.13,41.13l6.24-2.79q-7.35-23.73-12.05-33.51C44,107.78,39,98.22,36.89,94.85c-2.78-4.41-7.28-3.86-10.47-1.7C22.62,87.76,12.74,91.21,12.75,95.53Z" fill="#57331f" fill-rule="evenodd"/>
        <path d="M62.68,144.53,40.79,93.58c-5.24-8.29-19.94,1.68-18.15,6.49,4.06,10.91,24.7,46.25,25.91,49.5Z" fill="#222425" fill-rule="evenodd"/>
        <path d="M12.76,98.17c0,14.4,8.24,51.64,8.24,54.81H32.23q-1.93-48.06-1.32-48.35c.94-.45,38.45,5.21,49.7,5.64,16.23.61,22.94-9.37,23.48-28.33H72.67q-40.31,4.83-53,6.72C14.26,89.47,12.76,94.21,12.76,98.17Z" fill="#323337" fill-rule="evenodd"/>
        <path d="M64.34,151.92a7.57,7.57,0,0,1,1,2,24.84,24.84,0,0,1,.57,4.1l-30.1,7.09q-2.13-3.39.31-4.28c1.64-.59,3-1.1,4.06-1.51l11.94-8.82a1.21,1.21,0,0,1,1.67.23l1,1.35h0a10.46,10.46,0,0,0,4.08.13,6.86,6.86,0,0,0,2.08-1h0a2.42,2.42,0,0,1,3.35.7Z" fill="#e4e4e4" fill-rule="evenodd"/>
        <path d="M32.78,160.27a8.75,8.75,0,0,1,.47,2.45,29.28,29.28,0,0,1-.51,4.54H.77q-1.25-4.19,1.44-4.51c1.79-.23,3.27-.43,4.46-.61l14.25-6.44a1.22,1.22,0,0,1,1.6.6l0,0,.7,1.73h0a10,10,0,0,0,4,1.18,6.9,6.9,0,0,0,2.33-.54h0a2.42,2.42,0,0,1,3.12,1.39S32.76,160.21,32.78,160.27Z" fill="#e4e4e4" fill-rule="evenodd"/>
        <polygon points="90.08 35.94 86 16.96 83.06 16.96 80.38 35.94 90.08 35.94" fill="#57331f" fill-rule="evenodd"/>
        <path d="M75.62,26.36c3,.78,14.64-5.19,14-13.83S77,5.79,74.66,10.15,72.59,25.58,75.62,26.36Z" fill="#57331f" fill-rule="evenodd"/>
        <path d="M93.89,9.65a3.09,3.09,0,0,0,.63-1.17,12.68,12.68,0,0,0,.4-1.33,2.91,2.91,0,0,0-.44-2.66,3.06,3.06,0,0,0-2-.88A3.67,3.67,0,0,0,91,3.8c-.46.15-.85.44-1.3.63a5.68,5.68,0,0,0-.68-2.84A2.81,2.81,0,0,0,86.94.22a4.14,4.14,0,0,0-2.57.51c-.2.11-.4.22-.59.35a1.5,1.5,0,0,1-.51.28c-.21,0-.31-.07-.44-.22A3.37,3.37,0,0,0,82.3.67a3.09,3.09,0,0,0-2.89-.5A2.7,2.7,0,0,0,78.23,1c-.27.35-.46.91-.83,1.16-.16.1-.27,0-.42-.14s-.42-.32-.64-.47a3,3,0,0,0-1-.45C74.83,1,74.11,1,74,1.71a3,3,0,0,0,0,.79c0,.35,0,.71.08,1.06a6.82,6.82,0,0,0,.1.79,1.11,1.11,0,0,1,0,.54c-.07.18-.42.08-.57.08a2.34,2.34,0,0,0-.86.19.94.94,0,0,0-.52.48.86.86,0,0,0,0,.45,1.49,1.49,0,0,1,0,.47c-.39-.2-1.76-.63-1.93.08a1.09,1.09,0,0,0,.17.7,7,7,0,0,0,.64,1,8.74,8.74,0,0,0,1.69,1.64,1.11,1.11,0,0,0-.29,1.86,1.37,1.37,0,0,0,1,.29,3.31,3.31,0,0,1,.42,0c.06,0,.12.06.19.06a5.44,5.44,0,0,0,1.55-.19A5.09,5.09,0,0,0,78,10.69a.76.76,0,0,1,.55-.25c.2,0,.4.06.61.07a4.39,4.39,0,0,0,1.52-.43,5.56,5.56,0,0,0,.5,2c.22.5.69.57,1.15.61,1.48.14,3,0,4.44,0-1.43.32-2.91.45-4.33.83-.64.18-.15.61.12.91a5.15,5.15,0,0,1,1,1.74,3.09,3.09,0,0,1,3-1.23,2.16,2.16,0,0,1,1.29,3.12A4.08,4.08,0,0,1,86,19.31a7.05,7.05,0,0,1,1,2,1.39,1.39,0,0,0,.72.83c.13,0,.28,0,.39.16s.15.27.31.38a1.79,1.79,0,0,0,2.23-.17,1.46,1.46,0,0,0,0-1.9c.68-.28,1.93-.65,1.66-1.72,1.49-.1,5.1-2.51,3.11-4.27,1.09-.61,2.1-2.13,1.39-3.46a3.41,3.41,0,0,0-2.83-1.54" fill="#aaa9a9" fill-rule="evenodd"/>
        <path d="M53.25,69.57,40,82.47a40.17,40.17,0,0,0-9.46,5.44c-.55.67-1.16,2,1.45,1.37s5.36-1,5.85-.21-1,2.15,0,3.25q.9,1.11,6.08-7l13.76-8.11Z" fill="#57331f" fill-rule="evenodd"/>
        <path d="M112,71.39q4.66,27.06,6,29.83c.67,1.36,5.62,5.48,9.06,7.84,1.38,1,.81,2.16.29,2.48-4.24,2.61-7-.48-10.7-2.18-4-1.87-3.67,3.4-6.86,2,1-2.19,3.26-6.27,2.18-9q-.72-1.78-9.76-31Z" fill="#57331f" fill-rule="evenodd"/>
        <path d="M84.24,30.43l-4-.69Q69.78,55.8,43.78,77.09L56.87,93C74.2,72.78,84.88,51.93,84.24,30.43Z" fill="#1d7665" fill-rule="evenodd"/>
        <path d="M101.84,82.94h-36q12.5-31.38,12.5-53.33l10.85-1.67C97.75,42.11,100.16,59.55,101.84,82.94Z" fill="#c5cfd6" fill-rule="evenodd"/>
        <path d="M109.92,90.81H77.7q4.44-41.52,4.85-55.22l2.62-7.49,3.88-.16h.7C97.39,41.65,108.41,68.16,109.92,90.81Z" fill="#25927e" fill-rule="evenodd"/>
        <path d="M89.46,27.94q24.8,24.29,28.73,68.66H100.66q2.73-37.36-14.23-66Z" fill="#25927e" fill-rule="evenodd"/>
        <path d="M95.55,54.44q-.12,27.61-5.37,36.43h10.74Z" fill="#1d7665" fill-rule="evenodd"/>
        <polygon points="92.72 76.51 81.1 71.11 81.1 76.51 92.72 76.51" fill="#fff" fill-opacity="0.2" fill-rule="evenodd"/>
      </g>
    </symbol>
  </defs>
  <g id="Individual_Nonbinary_Thinking_Alt" data-name="Individual Nonbinary Thinking Alt">
    <use width="327" height="218" xlink:href="#Backdrop"/>
    <use width="282" height="205" transform="translate(22.5 6.5)" xlink:href="#Blob_4-2"/>
    <use width="121.52" height="62.38" transform="translate(20 6.6)" xlink:href="#Expression_Thinking"/>
    <use width="117.98" height="70.76" transform="translate(85.08 129.06) scale(1.23)" xlink:href="#Wheelchair"/>
    <use width="127.92" height="175.45" transform="translate(85.08 38.29)" xlink:href="#Nonbinary_Sitting_Alt"/>
  </g>
</svg>
