<svg xmlns="http://www.w3.org/2000/svg" xmlns:xlink="http://www.w3.org/1999/xlink" viewBox="0 0 327 218">
  <defs>
    <symbol id="Backdrop" data-name="Backdrop" viewBox="0 0 327 218">
      <rect id="Backdrop-3" data-name="Backdrop" width="327" height="218" rx="8" fill="#fff"/>
    </symbol>
    <symbol id="Blob_4-2" data-name="Blob 4" viewBox="0 0 282 205">
      <path id="Blob" d="M222.92,188.31c68.7-40.08,70.86-73.58,40.13-116.36S167.2,38.38,116.57,7.77,0,41.87,0,117.41,154.21,228.39,222.92,188.31Z" fill="#fff1e8" fill-rule="evenodd"/>
    </symbol>
    <symbol id="Nonbinary_Celebrate_Alt" data-name="Nonbinary Celebrate Alt" viewBox="0 0 112.44 208.73">
      <polygon points="35.64 100.73 52.32 157.77 60.17 200.59 68.05 200.59 60.19 100.73 35.64 100.73" fill="#57331f" fill-rule="evenodd"/>
      <path d="M27.91,100.73c1.17,29.63.71,45.79.44,48.48S26.6,169.94,16.46,201.5H24.7c13.43-30.28,18.12-48.31,19.66-52.29s6.09-20.13,12.73-48.48Z" fill="#57331f" fill-rule="evenodd"/>
      <path d="M35.18,100.73q6.52,29.43,22.57,94H69.3c.85-44.17-2.78-73.24-9.06-94Z" fill="#131415" fill-rule="evenodd"/>
      <path d="M27.94,100.73c1.14,29.63-1.82,58.82-11,94.44H29.27a396.33,396.33,0,0,0,29.65-94.44Z" fill="#222425" fill-rule="evenodd"/>
      <path d="M15.55,207.37l.45-7.23q4,1.16,10-.9a38.56,38.56,0,0,0,15.05,6,2,2,0,0,1,1.59,2.33,1.16,1.16,0,0,1,0,.18l-.29,1H16.46Z" fill="#e4e4e4" fill-rule="evenodd"/>
      <path d="M58.46,207.37l.46-7.23q4,1.16,10-.9a38.61,38.61,0,0,0,15.06,6,2,2,0,0,1,1.59,2.33,1.21,1.21,0,0,1,0,.18l-.29,1H59.37Z" fill="#e4e4e4" fill-rule="evenodd"/>
      <path d="M51.71,34.31c3.07,3.89,4.72,14.84,1.87,16.13-1.14.52-3.8.21-6.66-.88l3.64,11.15L41,62.39l.59-15.89a11,11,0,0,1-4.23-7.24C36.45,30.64,48.65,30.42,51.71,34.31Z" fill="#57331f" fill-rule="evenodd"/>
      <path d="M34.33,33.59a3,3,0,0,1-.41-1.26A10.83,10.83,0,0,1,33.75,31a2.94,2.94,0,0,1,.9-2.55,3.08,3.08,0,0,1,2.14-.51,3.76,3.76,0,0,1,1.38.43c.42.23.76.59,1.16.85a5.79,5.79,0,0,1,1.17-2.68,2.8,2.8,0,0,1,2.31-1,4.19,4.19,0,0,1,2.45.95c.17.14.35.29.51.45a1.6,1.6,0,0,0,.46.36c.19.09.32,0,.48-.14a2.78,2.78,0,0,1,.59-.37,3.1,3.1,0,0,1,2.94,0,2.59,2.59,0,0,1,1,1c.21.4.3,1,.62,1.29.14.13.27,0,.43-.06s.47-.25.71-.36a3.07,3.07,0,0,1,1.06-.27c.53,0,1.24.13,1.27.82a2.63,2.63,0,0,1-.15.78c-.08.34-.17.68-.26,1a6.7,6.7,0,0,1-.24.76c0,.13-.18.37-.14.52s.4.15.54.18a2.27,2.27,0,0,1,.82.34.94.94,0,0,1,.43.56,1,1,0,0,1-.07.45,1.38,1.38,0,0,0-.05.46c.42-.12,1.84-.31,1.89.41a1.17,1.17,0,0,1-.29.66,7.08,7.08,0,0,1-.8.84,8.7,8.7,0,0,1-2,1.32,1.11,1.11,0,0,1,0,1.88,1.42,1.42,0,0,1-1.05.12,2.43,2.43,0,0,0-.4-.11c-.06,0-.12,0-.2,0A5.6,5.6,0,0,1,51.89,39a5.09,5.09,0,0,1-2.11-1.63.79.79,0,0,0-.5-.34c-.2,0-.41,0-.61,0a4.33,4.33,0,0,1-1.42-.68,6,6,0,0,1-.84,1.9,1.22,1.22,0,0,1-1.25.4c-1.47-.12-2.91-.53-4.36-.78,1.35.56,2.78,1,4.11,1.57.6.28.05.62-.27.87a5.14,5.14,0,0,0-1.31,1.54,3.07,3.07,0,0,0-2.77-1.74,2.15,2.15,0,0,0-1.81,2.85,3.89,3.89,0,0,0,1.69,1.55,7,7,0,0,0-1.31,1.84,1.46,1.46,0,0,1-.86.69.87.87,0,0,0-.4.08c-.15.11-.21.25-.38.33a1.8,1.8,0,0,1-2.16-.55A1.44,1.44,0,0,1,35.71,45c-.63-.4-1.8-1-1.35-2-1.44-.35-4.58-3.35-2.31-4.74-1-.8-1.7-2.46-.78-3.65a3.42,3.42,0,0,1,3.06-1" fill="#aaa9a9" fill-rule="evenodd"/>
      <path d="M20.58,109.28q6.53,4.45,8,5.75c2.15,1.93,6.77,1.18,9.16,1,.25,3.48-4.59,1.36-4.21,5.77.08.9.24,1.79.39,2.66l.09.47c.49,2.81.78,5.4-2.09,7.67-.48.38-1.81.5-2.23-1.12-1-4-3.22-10.1-4.26-11.19a38.87,38.87,0,0,0-6.78-5.23h0ZM95.15,18.5c2.65,1.87-.69,3.15.42,4.06.74.6-2.35,5.69-7.79,9.14L79.67,45.46l-7.6-4.4L85,27.83c1.65-3.85,2.72-6.3,4.7-8.76A4.2,4.2,0,0,1,95.15,18.5Z" fill="#57331f" fill-rule="evenodd"/>
      <path d="M34.78,71.88l-1-4Q59.07,55.69,78.5,28.27l16.78,12C76.33,58.91,56.27,71,34.78,71.88Z" fill="#1d7665" fill-rule="evenodd"/>
      <path d="M27.51,107h36Q51,76.58,51,55.34L40.12,53.73C31.6,67.44,29.19,84.32,27.51,107Z" fill="#dde3e9" fill-rule="evenodd"/>
      <path d="M40.61,53.73l3.87.16h0l2.62,7.49q.42,13.7,4.86,55.21H27l-1.43,5.79c-.94-1.9-3-3.83-5.64-5.79h-.17v-.11c-1.81-1.36-3.86-2.74-5.94-4.14l-.77-.52-.39-.26-.77-.53c-7-4.83-13.64-10-11.44-15.84q4.89-13,39.46-41.46h.72ZM26.92,83.55q-10.53,7.33-10.53,11.8c0,4.08,2,6.56,4.91,9.24A156.81,156.81,0,0,1,26.92,83.55Z" fill="#25927e" fill-rule="evenodd"/>
      <path d="M35,116.78H28.39a123.21,123.21,0,0,1,1.55-24.64Q30.95,110,35,116.78Z" fill-opacity="0.1" fill-rule="evenodd"/>
      <polygon points="33.63 102.3 45.26 96.89 45.26 102.3 33.63 102.3" fill="#fff" fill-opacity="0.2" fill-rule="evenodd"/>
      <path id="_-Sparkles" data-name="✨-Sparkles" d="M112.05,9.74a1.5,1.5,0,0,1,0,2l-.1.1L106,17.21a1.5,1.5,0,0,1-2.11-2.13l.1-.1,5.94-5.35A1.49,1.49,0,0,1,112.05,9.74ZM85.74,1.64l0,.14L87.44,9.6a1.5,1.5,0,0,1-1.16,1.78,1.49,1.49,0,0,1-1.74-1l0-.14L82.84,2.4a1.5,1.5,0,0,1,2.9-.76ZM99.68.07a1.51,1.51,0,0,1,1,1.75l0,.14L98.18,9.57a1.5,1.5,0,0,1-2.9-.79l0-.13L97.79,1A1.51,1.51,0,0,1,99.68.07Z" fill="#fd6"/>
    </symbol>
  </defs>
  <g id="Individual_Nonbinary_Celebrate_Alt" data-name="Individual Nonbinary Celebrate Alt">
    <use width="327" height="218" xlink:href="#Backdrop"/>
    <use width="282" height="205" transform="translate(22.5 6.5)" xlink:href="#Blob_4-2"/>
    <use width="112.44" height="208.73" transform="translate(115.4 3.37)" xlink:href="#Nonbinary_Celebrate_Alt"/>
  </g>
</svg>
