<svg xmlns="http://www.w3.org/2000/svg" xmlns:xlink="http://www.w3.org/1999/xlink" viewBox="0 0 327 218">
  <defs>
    <symbol id="Backdrop" data-name="Backdrop" viewBox="0 0 327 218">
      <rect id="Backdrop-3" data-name="Backdrop" width="327" height="218" rx="8" fill="#fff"/>
    </symbol>
    <symbol id="Blob_6-2" data-name="Blob 6" viewBox="0 0 315 199.05">
      <path id="Blob" d="M111.36,8.23C25.1,34.32-36.58,150.57,24.74,188.46s129.46-38,186.62-38S315,136.43,315,78.93,197.63-17.86,111.36,8.23Z" fill="#fff1e8" fill-rule="evenodd"/>
    </symbol>
    <symbol id="Calendar" data-name="Calendar" viewBox="0 0 63.47 57.9">
      <path id="_Compound_Path_" data-name="&lt;Compound Path&gt;" d="M12.64,0a2.35,2.35,0,0,0-2.22,2.44V4.8H2.27a2.24,2.24,0,0,0-1.61.71A2.52,2.52,0,0,0,0,7.22V55.49A2.35,2.35,0,0,0,2.27,57.9H61.2a2.34,2.34,0,0,0,2.26-2.41V7.22a2.47,2.47,0,0,0-.66-1.71,2.2,2.2,0,0,0-1.6-.71H53.27V2.44A2.5,2.5,0,0,0,52.61.7,2.22,2.22,0,0,0,51,0a2.34,2.34,0,0,0-2.23,2.44V4.8H14.94V2.44A2.5,2.5,0,0,0,14.28.7,2.22,2.22,0,0,0,12.64,0Z" fill="#f8b890" fill-rule="evenodd"/>
      <g>
        <path d="M53.31,9.63v2.42a2.49,2.49,0,0,1-1.06,2.14,2,2,0,0,1-2.18,0A2.51,2.51,0,0,1,49,12.05V9.63H14.63v2.42a2.49,2.49,0,0,1-1,2.22,1.94,1.94,0,0,1-2.23,0,2.51,2.51,0,0,1-1-2.22V9.63H6v9.66H57.61V9.63Z" fill="#fee7d9" fill-rule="evenodd"/>
        <polygon points="6.04 41.02 6.04 53.08 57.61 53.08 57.61 41.02 57.61 24.13 6.04 24.13 6.04 41.02" fill="#fee7d9" fill-rule="evenodd"/>
      </g>
    </symbol>
    <symbol id="Woman_Pointing_Alt" data-name="Woman Pointing Alt" viewBox="0 0 95.14 165.03">
      <g id="Human">
        <path d="M45.65,6.46c2.77,4.41,3.29,16.07.19,17.11-1.24.41-4-.2-6.84-1.67L41.57,34l-10.15.71,2.35-16.6a11.57,11.57,0,0,1-3.62-8.06C30.15.92,42.88,2,45.65,6.46Z" fill="#d4a181" fill-rule="evenodd"/>
        <path d="M46.75,8.45a11.22,11.22,0,0,0-.67-1.78,8.09,8.09,0,0,0-1.21-1.92,14.74,14.74,0,0,0-3-2.88,9.23,9.23,0,0,0-7-1.73,7,7,0,0,0-3.33,1.64c-.86.77-1.67,1.87-2.85,2s-2.54-.89-3.62-1.52A9.32,9.32,0,0,0,21.17,1a6.25,6.25,0,0,0-5.84,2.69c-1.53,2.12-2.54,5.14-1.26,7.72A3.52,3.52,0,0,0,15,12.55c.37.29.92.59,1.1,1.08s-.21,1.25-.35,1.75a5,5,0,0,0-.22,2.2,5.58,5.58,0,0,0,1.93,3.11A5.69,5.69,0,0,0,20.52,22a8.33,8.33,0,0,0,2.23,0,6.29,6.29,0,0,0,1-.28,1,1,0,0,1,.85.14,6.84,6.84,0,0,0,4.5.8A7.16,7.16,0,0,0,33,21.05c1.14-1.11,1-2.51.62-4,.32.13,1.15.16.62-.4a2.64,2.64,0,0,0-.86-.42,2.94,2.94,0,0,1-.87-.58c-1-1-.21-3.24.92-3.68,1.69-.65,2.25,1.78,3.52,2.32.74.32,1.44-.23,1.94-.78a7.89,7.89,0,0,0,1.43-2.61c.29-.78.56-1.57.86-2.35.14-.36.64-1.4.32-1.77a5.31,5.31,0,0,1,3.75.68,2.56,2.56,0,0,1,1.08,1c.06.11.19.41.33.42s.14-.3.1-.45" fill="#ffc010" fill-rule="evenodd"/>
        <polygon points="27.46 70.03 42.08 120.2 48.96 157.88 55.86 157.88 48.97 70.03 27.46 70.03" fill="#d4a181" fill-rule="evenodd"/>
        <path d="M20.69,70c1,26.07.62,40.28.39,42.65s-1.54,18.23-10.42,46h7.22c11.77-26.63,15.87-42.49,17.22-46S40.44,95,46.26,70Z" fill="#d4a181" fill-rule="evenodd"/>
        <path d="M9.86,163.84l.4-6.36c2.32.67,5.23.41,8.73-.8a33.35,33.35,0,0,0,12.85,5.18,2.08,2.08,0,0,1,1.64,2.45c0,.06,0,.11,0,.17l-.16.55H10.65Z" fill="#e4e4e4" fill-rule="evenodd"/>
        <path d="M47.46,163.84l.4-6.36c2.32.67,5.23.41,8.73-.8a33.35,33.35,0,0,0,12.85,5.18,2.08,2.08,0,0,1,1.64,2.45c0,.06,0,.11,0,.17l-.16.55H48.25Z" fill="#e4e4e4" fill-rule="evenodd"/>
        <path d="M10,66.4,5,81a33.57,33.57,0,0,0-5,7.61c-.16.71-.12,1.88,1.59.48s3.58-2.82,4.27-2.37.1,2,1.19,2.43c.72.32,1.34-2.19,1.84-7.53L16.1,70.38Z" fill="#d4a181" fill-rule="evenodd"/>
        <path d="M74.3,27l6.59-1.5Q93,19.64,94.73,19.77c1.72.13-2.6,4.27-2.09,5.06.75,1.17-.53,3.32-3,4.81-2.84,1.74-4.45,1.61-8.83,1.58A23.09,23.09,0,0,0,73,32.8Z" fill="#d4a181" fill-rule="evenodd"/>
        <path d="M22.92,74.33q15.07-4.27,28.54,0c3.12,14.14,10.7,19.75,12,41.43-15.16,7.47-33.89-5.34-49.5,1.95C9.54,107.51,15.78,83,22.92,74.33Z" fill="#313ae7" fill-rule="evenodd"/>
        <path d="M35.49,36.71A119.84,119.84,0,0,0,16.11,74.37L6.53,73c1.85-13.21,7.13-29,15.23-39.1C28.14,25.87,36.78,27.43,35.49,36.71Z" fill="#c5cfd6" fill-rule="evenodd"/>
        <path d="M20.07,79.87c7-1.63,28.11,4.67,31.42-3C58,61.58,44.2,41.27,42.29,24.38l-10.78.38c-1.19,0-8.69,15.73-8.34,25.74C23.48,59.64,15.18,65.74,20.07,79.87Z" fill="#dde3e9" fill-rule="evenodd"/>
        <path d="M80.5,24.73,38.41,26Q31.6,35.16,30.26,38.8c15.31,7.91,27.77,3.14,48.6-2.4Z" fill="#dde3e9" fill-rule="evenodd"/>
      </g>
    </symbol>
  </defs>
  <g id="Individual_Woman_Datetime_Alt" data-name="Individual Woman Datetime Alt">
    <use width="327" height="218" xlink:href="#Backdrop"/>
    <use width="315" height="199.05" transform="translate(6 9.48)" xlink:href="#Blob_6-2"/>
    <use width="63.46" height="57.9" transform="translate(169.41 18.84)" xlink:href="#Calendar"/>
    <use width="95.14" height="165.03" transform="translate(91 32.67)" xlink:href="#Woman_Pointing_Alt"/>
  </g>
</svg>
