<svg xmlns="http://www.w3.org/2000/svg" xmlns:xlink="http://www.w3.org/1999/xlink" viewBox="0 0 327 218">
  <defs>
    <symbol id="Blob_1-2" data-name="Blob 1" viewBox="0 0 293 184">
      <path id="Blob" d="M189.42,176.39C269.66,152.28,327,44.81,270,9.79S149.57,44.94,96.4,44.94,0,57.88,0,111,109.17,200.51,189.42,176.39Z" fill="#fff1e8" fill-rule="evenodd"/>
    </symbol>
    <symbol id="Plant_2" data-name="Plant 2" viewBox="0 0 50 130">
      <g id="Plant">
        <path id="Stems" d="M25.72,103Q30.24,83.78,35,64.27,40.91,39.9,47,16A332.83,332.83,0,0,0,27.65,77.32,440.27,440.27,0,0,0,24,0c.39,32.1.37,66.35.29,89C19.32,54.32,7,54,7,54c8.53,6.87,17.29,35,15,65C22.42,113.55,24.48,108.36,25.72,103Z" fill="#ffd3b8" fill-rule="evenodd"/>
        <path id="Pot" d="M36.6,130H12.88C2.29,129.58-3.59,115.78,2.4,105.83L7.72,97H42.29l5.31,8.83c6,10,.11,23.75-10.47,24.16H36.6" fill="#ffe9db" fill-rule="evenodd"/>
        <g id="Stripes">
          <rect y="114.4" width="50" height="7.2" fill="#ffc099"/>
          <rect x="1" y="105.4" width="47" height="7.2" fill="#ffc099"/>
        </g>
      </g>
    </symbol>
    <symbol id="Expression_Date" data-name="Expression Date" viewBox="0 0 121.52 62.38">
      <g id="Expression">
        <path id="Bubble" d="M39.34,61.91c2.84,0,6.31.61,8.9-.74a12.89,12.89,0,0,0,3.27-2.58c.45-.51,1-1.6,1.47-1.71.79-.21,1.55,1.43,2.28,2.12a15.17,15.17,0,0,0,3.19,2.17c1.62,1,5.49,1.33,8.87.74C68.82,61.65,71,60,73.47,59c.61-.24,5-5.09,5-6.17s.25-1.74.2-2.17c-.07-.63-.37-1-.2-1,.85,0,1.44.18,1.8,0A18.63,18.63,0,0,0,87,43.13a14.33,14.33,0,0,0,1.56-5.51c0-4.08,0-5.26-.87-7.11a13.32,13.32,0,0,0-2.5-3.87A12.43,12.43,0,0,0,82.73,25c-.48-.27.6-1.18.91-2.92a12.49,12.49,0,0,0-.43-5.3,21,21,0,0,0-3.61-5.24,15.65,15.65,0,0,0-5.43-3,28.33,28.33,0,0,0-4.83-1.07c-1.67-.22-3.39,0-4.66-.29C64.07,7,62.37,3.6,60.61,2.25A6.78,6.78,0,0,0,57.07.49,60.31,60.31,0,0,0,50.78,0a10.58,10.58,0,0,0-6.11,2.24C43,3.67,43,4.11,42.1,4.11c-2.52,0-4-2.26-6.51-2.89a11.87,11.87,0,0,0-5.62,0c-4.17.63-8.63,4.89-10.35,9.66-.46,1.27-1.7.44-2.85.32a23.82,23.82,0,0,0-5.55-.32,10.67,10.67,0,0,0-6.31,3.06A12,12,0,0,0,1.5,22.85a19.34,19.34,0,0,0,1.64,5.82c.71,1.31,1.12,1.5,1.12,2.24s-.48.79-.8,1.17a11,11,0,0,0-2,2.47A11.38,11.38,0,0,0,.22,37.62C-.29,39.81.06,44,1.5,45.94A8.88,8.88,0,0,0,3.76,48c.44.24,2.75,0,2.35,1.24a14.38,14.38,0,0,0-.62,3.31,4.13,4.13,0,0,0,1.12,3.22C7.94,56.89,8.9,58,10.15,59a15.25,15.25,0,0,0,9.47,2.91c3.13-.3,3.13.15,5.72-1.32,1.16-.66,3.23-2.93,4.07-2.15a14.85,14.85,0,0,0,2.35,1.49C33.6,61.17,37.39,61.91,39.34,61.91Z" fill="#ffdbc5" fill-opacity="0.99" fill-rule="evenodd"/>
        <path id="Bubble-2" data-name="Bubble" d="M110.6,62.38a7.47,7.47,0,0,0,2.54-.38,7.88,7.88,0,0,0,2.48-1.49,2.45,2.45,0,0,0,.53-1.22c.07-.21.13-.83.24-.9s.75,0,1.12-.12A3.86,3.86,0,0,0,119.83,57,9.05,9.05,0,0,0,121.27,55c.6-1.14,0-3.34-.28-4a3.08,3.08,0,0,0-1.16-1.48l-.75-.31c-.4-.15-.83-.32-1.13-.45-.64-.28.43-.5.71-1a3.17,3.17,0,0,0-.71-3.94,5.33,5.33,0,0,0-2.58-1.67,7.2,7.2,0,0,0-2,0c-.26,0-.52.15-1.37.72-.37.25-.74.72-1.11.73-1,0-1.7-.58-2.39-.73a3.09,3.09,0,0,0-2.11,0A3.47,3.47,0,0,0,104.71,44a8.67,8.67,0,0,0-1.17,1.32c-.27.45-.41.3-.41,1.42s.87,1.54.41,1.7c-1.57.55-1.06.16-1.93.71a3.4,3.4,0,0,0-1.16,1.1c-.23.46-.16,1-.39,1.61a4.4,4.4,0,0,0,1.55,4,13.16,13.16,0,0,0,1.15.89,5.7,5.7,0,0,1,1.5.85,3.7,3.7,0,0,0,1.11.33c.56,0,.72,1.31,1,1.93A4.06,4.06,0,0,0,110.6,62.38Z" fill="#ffdbc5" fill-rule="evenodd"/>
        <g id="Graphic">
          <g id="_-Emphasis" data-name="📢-Emphasis">
            <path id="_--Palette" data-name="🎨--Palette" d="M32.11,15.14a1.32,1.32,0,0,0-1.25,1.37v1.33H26.28a1.27,1.27,0,0,0-.91.4,1.41,1.41,0,0,0-.37,1V46.36a1.32,1.32,0,0,0,1.28,1.35H59.42a1.32,1.32,0,0,0,1.28-1.35V19.2a1.41,1.41,0,0,0-.37-1,1.27,1.27,0,0,0-.91-.4H55V16.51a1.44,1.44,0,0,0-.38-1,1.24,1.24,0,0,0-.92-.4,1.32,1.32,0,0,0-1.25,1.37v1.33h-19V16.51a1.44,1.44,0,0,0-.38-1A1.24,1.24,0,0,0,32.11,15.14ZM28.4,20.56h2.42v1.36a1.39,1.39,0,0,0,.58,1.25,1.1,1.1,0,0,0,1.25,0,1.39,1.39,0,0,0,.58-1.25V20.56H52.57v1.36a1.4,1.4,0,0,0,.6,1.2,1.09,1.09,0,0,0,1.22,0,1.4,1.4,0,0,0,.6-1.2V20.56h2.42V26h-29Zm0,8.15h29V45h-29V28.71Z" fill="#fd9757" fill-rule="evenodd"/>
          </g>
        </g>
      </g>
    </symbol>
    <symbol id="Chair" data-name="Chair" viewBox="0 0 94.78 71">
      <g id="Chair-3" data-name="Chair">
        <polygon id="Leg" points="15.48 56.35 9.26 71 6.43 71 10.18 55.64 15.48 56.35" fill="#fd9757" fill-rule="evenodd"/>
        <polygon id="Leg-2" data-name="Leg" points="45.54 56.35 39.32 71 36.49 71 40.24 55.64 45.54 56.35" fill="#fd9757" fill-rule="evenodd"/>
        <polygon id="Leg-3" data-name="Leg" points="94.78 71 91.96 71 85.74 56.35 91.04 55.64 94.78 71" fill="#fd9757" fill-rule="evenodd"/>
        <polygon id="Leg-4" data-name="Leg" points="62.98 71 60.16 71 53.94 56.35 59.24 55.64 62.98 71" fill="#fd9757" fill-rule="evenodd"/>
        <path id="Arm" d="M91.78,20.54V56L55,56.08,48.92,21Zm-3,3.46-36.87.4L57,54l31.76-.07Z" fill="#fd9757" fill-rule="evenodd"/>
        <g>
          <polygon id="Shadow" points="50.23 0 62.81 57 11.71 57 0 0 50.23 0" fill="#ffb78a" fill-rule="evenodd"/>
          <polygon id="Cushion" points="50.29 0 59.16 37 20.91 37 12.04 0 50.29 0" fill="#ffe9db" fill-rule="evenodd"/>
          <polygon id="Cushion-2" data-name="Cushion" points="91.78 57 46.78 57 46.78 37 91.78 37 91.78 57" fill="#ffe9db" fill-rule="evenodd"/>
        </g>
        <path id="Arm-2" data-name="Arm" d="M46.78,21.54V57L10,57.08,3.92,22Zm-3,3.46-36.87.4L12,55l31.76-.07Z" fill="#fd9757" fill-rule="evenodd"/>
      </g>
    </symbol>
    <symbol id="Nonbinary_Sitting" data-name="Nonbinary Sitting" viewBox="0 0 127.92 175.46">
      <g>
        <path d="M49.26,161.09l.68,6s-12.72,3.35-17.5,8.33l23.71,0-.89-17.16ZM22,133.23l-2.73,5.4S6.75,134.36,0,135.87l19.6,13.07,8.94-14.72Z" fill="#e4e4e4"/>
        <path d="M55.61,160l-6.26,2.5,0,5,6.4-.24Zm-27.46-24.3-6.62-1.39-2.68,4.18,5.49,3.37Z" fill="#915b3c" fill-rule="evenodd"/>
        <path d="M39.53,128.27l3.27,35.44H58l-.67-51.45,28.94.2c8.25,0,16.23-7.08,15.66-15.29L101,88.8l-44.19-13c-8.18-1.85-11,.59-16.32,10L17.07,133.67l12.86,8.57Z" fill="#222425" fill-rule="evenodd"/>
        <path d="M53.32,91.86h0l33.09,20.63-28.92-.2.68,51.49H43l-5.2-56.31C36.54,97.22,43,91.86,53.32,91.86" fill="#131415" fill-rule="evenodd"/>
        <polygon points="90.08 35.94 86 16.96 83.06 16.96 80.38 35.94 90.08 35.94" fill="#915b3c" fill-rule="evenodd"/>
        <path d="M75.62,26.36c3,.78,14.64-5.19,14-13.83S77,5.79,74.66,10.15,72.59,25.58,75.62,26.36Z" fill="#915b3c" fill-rule="evenodd"/>
        <path d="M93.89,9.65a3.09,3.09,0,0,0,.63-1.17,12.68,12.68,0,0,0,.4-1.33,2.91,2.91,0,0,0-.44-2.66,3.06,3.06,0,0,0-2-.88A3.67,3.67,0,0,0,91,3.8c-.46.15-.85.44-1.3.63a5.68,5.68,0,0,0-.68-2.84A2.81,2.81,0,0,0,86.94.22a4.14,4.14,0,0,0-2.57.51c-.2.11-.4.22-.59.35a1.5,1.5,0,0,1-.51.28c-.21,0-.31-.07-.44-.22A3.37,3.37,0,0,0,82.3.67a3.09,3.09,0,0,0-2.89-.5A2.7,2.7,0,0,0,78.23,1c-.27.35-.46.91-.83,1.16-.16.1-.27,0-.42-.14s-.42-.32-.64-.47a3,3,0,0,0-1-.45C74.83,1,74.11,1,74,1.71a3,3,0,0,0,0,.79c0,.35,0,.71.08,1.06a6.82,6.82,0,0,0,.1.79,1.11,1.11,0,0,1,0,.54c-.07.18-.42.08-.57.08a2.34,2.34,0,0,0-.86.19.94.94,0,0,0-.52.48.86.86,0,0,0,0,.45,1.49,1.49,0,0,1,0,.47c-.39-.2-1.76-.63-1.93.08a1.09,1.09,0,0,0,.17.7,7,7,0,0,0,.64,1,8.74,8.74,0,0,0,1.69,1.64,1.11,1.11,0,0,0-.29,1.86,1.37,1.37,0,0,0,1,.29,3.31,3.31,0,0,1,.42,0c.06,0,.12.06.19.06a5.44,5.44,0,0,0,1.55-.19A5.09,5.09,0,0,0,78,10.69a.76.76,0,0,1,.55-.25c.2,0,.4.06.61.07a4.39,4.39,0,0,0,1.52-.43,5.56,5.56,0,0,0,.5,2c.22.5.69.57,1.15.61,1.48.14,3,0,4.44,0-1.43.32-2.91.45-4.33.83-.64.18-.15.61.12.91a5.15,5.15,0,0,1,1,1.74,3.09,3.09,0,0,1,3-1.23,2.16,2.16,0,0,1,1.29,3.12A4.08,4.08,0,0,1,86,19.31a7.05,7.05,0,0,1,1,2,1.39,1.39,0,0,0,.72.83c.13,0,.28,0,.39.16s.15.27.31.38a1.79,1.79,0,0,0,2.23-.17,1.46,1.46,0,0,0,0-1.9c.68-.28,1.93-.65,1.66-1.72,1.49-.1,5.1-2.51,3.11-4.27,1.09-.61,2.1-2.13,1.39-3.46a3.41,3.41,0,0,0-2.83-1.54" fill="#191847" fill-rule="evenodd"/>
        <path d="M53.25,69.57,40,82.47a40.17,40.17,0,0,0-9.46,5.44c-.55.67-1.16,2,1.45,1.37s5.36-1,5.85-.21-1,2.15,0,3.25q.9,1.11,6.08-7l13.76-8.11Z" fill="#915b3c" fill-rule="evenodd"/>
        <path d="M112,71.39q4.66,27.06,6,29.83c.67,1.36,5.62,5.48,9.06,7.84,1.38,1,.81,2.16.29,2.48-4.24,2.61-7-.48-10.7-2.18-4-1.87-3.67,3.4-6.86,2,1-2.19,3.26-6.27,2.18-9q-.72-1.78-9.76-31Z" fill="#915b3c" fill-rule="evenodd"/>
        <path d="M84.24,30.43l-4-.69Q69.78,55.8,43.78,77.09L56.87,93C74.2,72.78,84.88,51.93,84.24,30.43Z" fill="#131415" fill-rule="evenodd"/>
        <path d="M101.84,82.94h-36q12.5-31.38,12.5-53.33l10.85-1.67C97.75,42.11,100.16,59.55,101.84,82.94Z" fill="#1d7665" fill-rule="evenodd"/>
        <path d="M109.62,90.81H77.39q4.44-41.52,4.86-55.22l2.62-7.49,3.87-.16h.71C97.09,41.65,108.11,68.16,109.62,90.81Z" fill="#323337" fill-rule="evenodd"/>
        <path d="M89.46,27.94q24.8,24.29,28.73,68.66H100.66q2.73-37.36-14.23-66Z" fill="#323337" fill-rule="evenodd"/>
        <path d="M95.74,54.44q-.12,27.61-5.37,36.43h10.74Z" fill="#222425" fill-rule="evenodd"/>
        <polygon points="92.72 76.51 81.1 71.11 81.1 76.51 92.72 76.51" fill="#131415" fill-rule="evenodd"/>
      </g>
    </symbol>
  </defs>
  <g id="Individual_Nonbinary_Datetime" data-name="Individual Nonbinary Datetime">
    <rect id="Backdrop" width="327" height="218" rx="8" fill="#fff"/>
    <use width="293" height="184" transform="translate(17 17)" xlink:href="#Blob_1-2"/>
    <use width="50" height="130" transform="translate(35.61 72.26)" xlink:href="#Plant_2"/>
    <use width="121.52" height="62.38" transform="translate(85.61 6.26)" xlink:href="#Expression_Date"/>
    <use width="94.78" height="71" transform="matrix(-1.49, 0, 0, 1.49, 294.27, 96.26)" xlink:href="#Chair"/>
    <use width="127.92" height="175.45" transform="translate(140.69 38.32)" xlink:href="#Nonbinary_Sitting"/>
  </g>
</svg>
