<svg xmlns="http://www.w3.org/2000/svg" xmlns:xlink="http://www.w3.org/1999/xlink" viewBox="0 0 327 218">
  <defs>
    <symbol id="Backdrop" data-name="Backdrop" viewBox="0 0 327 218">
      <rect id="Backdrop-3" data-name="Backdrop" width="327" height="218" rx="8" fill="#fff"/>
    </symbol>
    <symbol id="Pop" data-name="Pop" viewBox="0 0 31 15.1">
      <path id="_Compound_Path_" data-name="&lt;Compound Path&gt;" d="M15.5,0A1.49,1.49,0,0,1,17,1.36V9.5a1.5,1.5,0,0,1-3,.14V1.5A1.5,1.5,0,0,1,15.5,0Z" fill="#fd6"/>
      <path id="_Compound_Path_2" data-name="&lt;Compound Path&gt;" d="M30.25,5.37a1.51,1.51,0,0,1,.62,1.92l-.07.13-4,6.93A1.5,1.5,0,0,1,24.13,13l.07-.13,4-6.93A1.5,1.5,0,0,1,30.25,5.37Z" fill="#fd6"/>
      <path id="_Compound_Path_3" data-name="&lt;Compound Path&gt;" d="M.75,5.37a1.5,1.5,0,0,1,2,.43l.08.12,4,6.93a1.5,1.5,0,0,1-2.52,1.62l-.08-.12L.2,7.42A1.5,1.5,0,0,1,.75,5.37Z" fill="#fd6"/>
    </symbol>
    <symbol id="Man_Strength_Alt" data-name="Man Strength Alt" viewBox="0 0 104.49 182.65">
      <path d="M42.53,5.11c-2.67,5-2.35,17.58,1.09,18.47,1.38.35,4.3-.52,7.28-2.31L49,34.5h11l-3.8-17.72a12.48,12.48,0,0,0,3.32-9C58.9-2,45.19.14,42.53,5.11Z" fill="#fedaca" fill-rule="evenodd"/>
      <path d="M47.29,5.77c1.55.83,2.64,2.42,4,4.53a2.87,2.87,0,0,1,1-.19A2.76,2.76,0,0,1,55,12.87a2.72,2.72,0,0,1-.83,2c.64.9,1.36,1.84,2.18,2.81,3.08-1.85,5.36-7.26,2.35-12.46A6.85,6.85,0,0,0,53.77.66,8,8,0,0,0,48.51.28a17,17,0,0,0-6.64,1.77c0,2.93.56,3.8,5.42,3.72Z" fill="#a24242" fill-rule="evenodd"/>
      <path d="M50.35,8.91q-.63,8.84-3.35,8.83c-2.72,0-5-1.72-6.22-1.72-.87,0-.68,1.09-.1,1.89s2.79,1.31,2.79,2.34-1.83.24-1.83.85c0,1-.32,2.92,1.44,2.92s6.88-.65,7.75-3.29q.87-2.64,1.11-11.13Z" fill="#a24242" fill-rule="evenodd"/>
      <polygon points="64.25 72.65 47.33 130.74 39.36 174.36 31.37 174.36 39.35 72.65 64.25 72.65" fill="#fedaca" fill-rule="evenodd"/>
      <polygon points="64.25 72.65 47.33 130.74 39.36 174.36 31.37 174.36 39.35 72.65 64.25 72.65" fill-opacity="0.1" fill-rule="evenodd"/>
      <path d="M72.1,72.65c-1.19,30.18-.72,46.64-.46,49.38s1.78,21.11,12.07,53.25H75.35C61.72,144.45,57,126.08,55.4,122s-6.18-20.51-12.91-49.38Z" fill="#fedaca" fill-rule="evenodd"/>
      <path d="M64.72,72.65q-6.63,31.23-22.9,99.73H30.11c-.87-46.87,2.81-77.71,9.19-99.73Z" fill="#222425" fill-rule="evenodd"/>
      <path d="M72.06,72.65c-1.16,31.43,1.85,62.4,11.18,100.19H70.71A435,435,0,0,1,40.63,72.65Z" fill="#323337" fill-rule="evenodd"/>
      <path d="M84.63,181.27l-.46-7.37q-4,1.18-10.11-.92a39,39,0,0,1-15.3,6.08,2,2,0,0,0-1.59,2.34,1.36,1.36,0,0,0,0,.17l.3,1.08h26.2Z" fill="#e4e4e4" fill-rule="evenodd"/>
      <path d="M41.1,181.27l-.46-7.37q-4,1.18-10.12-.92a39,39,0,0,1-15.3,6.08,2,2,0,0,0-1.59,2.34,1.36,1.36,0,0,0,0,.17l.31,1.08h26.2Z" fill="#e4e4e4" fill-rule="evenodd"/>
      <path d="M80.68,63.6a23.53,23.53,0,0,1-2.83,2.75c-2.21,1.78-6.7.81-9,.52-.42,3.4,4.45,1.56,3.84,5.88-.06.49-.16,1-.26,1.43l-.1.47c-.72,3.18-1.69,6.09,1.38,8.79.46.4,1.76.59,2.25-1,1.23-3.91,3.69-9.76,4.77-10.78q2.22-2.09,4.26-3.87h0ZM7.62,7.6c-3.59.89-4,6.21-3.47,12.52L3.24,27,7.62,30.3,8.85,20c-1.23-5.85,5.16-4.13,5-7.23C13.2,9.11,11,6.75,7.62,7.6Z" fill="#fedaca" fill-rule="evenodd"/>
      <path d="M57,43.1l2.51-10.83c-9.3-4.38-25-4.38-37.17,5.49C17.9,41.36,14,30.2,11.49,19.64L0,16.81c0,21,8.25,31.64,16.58,35.43C27.32,57.12,43,44.86,57,43.1Z" fill="#2026a2" fill-rule="evenodd"/>
      <path d="M71,76.64H35.82c-1.6,0-.81-2.33-1.07-3.49-6.13-28.07,13.14-28.07,13.14-47.3L58,24.26C66.42,37.75,69.32,54.36,71,76.64Z" fill="#dde3e9" fill-rule="evenodd"/>
      <path d="M59.19,34q11.3,7.29,15,.6C77.9,27.87,76.56,24.19,72.6,23s-7.49,1.28-13.8,1.28Q52.49,24.26,59.19,34Z" fill="#313ae7" fill-rule="evenodd"/>
      <path d="M78.79,86.29H47.15Q41,70.81,54.68,24.51L59,24.26C66.49,37.79,77.31,63.94,78.79,86.29Z" fill="#313ae7" fill-rule="evenodd"/>
      <path d="M56.39,27.92q38.3,10.19,46.8,22.53c6.24,9.07-11.52,21.36-22,23.23L73.53,63.26c7.22,0,8.91-1.55,11.38-3.16,6-3.92,5.21-5.42,0-7.13q-5.4-1.77-29.09-8.68Z" fill="#313ae7" fill-rule="evenodd"/>
      <path d="M64.55,86.29H74.81q-2.86-6.69-6-15.85Q67.49,81.36,64.55,86.29Z" fill="#2026a2" fill-rule="evenodd"/>
      <use width="31" height="15.1" transform="translate(15.34 24.77) rotate(-21) scale(0.71)" xlink:href="#Pop"/>
    </symbol>
  </defs>
  <g id="Individual_Man_Strength_Alt" data-name="Individual Man Strength Alt">
    <use width="327" height="218" xlink:href="#Backdrop"/>
    <path id="Blob" d="M206.42,193.39C286.66,169.28,344,61.81,287,26.79S166.57,61.94,113.4,61.94,17,74.88,17,128,126.17,217.51,206.42,193.39Z" fill="#fff1e8" fill-rule="evenodd"/>
    <use width="104.49" height="182.65" transform="translate(111.26 17.68)" xlink:href="#Man_Strength_Alt"/>
  </g>
</svg>
