<svg xmlns="http://www.w3.org/2000/svg" xmlns:xlink="http://www.w3.org/1999/xlink" viewBox="0 0 327 218">
  <defs>
    <symbol id="Backdrop" data-name="Backdrop" viewBox="0 0 327 218">
      <rect id="Backdrop-3" data-name="Backdrop" width="327" height="218" rx="8" fill="#fff"/>
    </symbol>
    <symbol id="Blob_2-2" data-name="Blob 2" viewBox="0 0 327 169">
      <path id="Blob" d="M212.32,6.5c89.94,27.07,144.45,100.09,97.4,141s-110.43,10.69-170,10.69S0,161.21,0,101.56,122.38-20.57,212.32,6.5Z" fill="#fff1e8" fill-rule="evenodd"/>
    </symbol>
    <symbol id="Pop" data-name="Pop" viewBox="0 0 31 15.1">
      <path id="_Compound_Path_" data-name="&lt;Compound Path&gt;" d="M15.5,0A1.49,1.49,0,0,1,17,1.36V9.5a1.5,1.5,0,0,1-3,.14V1.5A1.5,1.5,0,0,1,15.5,0Z" fill="#fd6"/>
      <path id="_Compound_Path_2" data-name="&lt;Compound Path&gt;" d="M30.25,5.37a1.51,1.51,0,0,1,.62,1.92l-.07.13-4,6.93A1.5,1.5,0,0,1,24.13,13l.07-.13,4-6.93A1.5,1.5,0,0,1,30.25,5.37Z" fill="#fd6"/>
      <path id="_Compound_Path_3" data-name="&lt;Compound Path&gt;" d="M.75,5.37a1.5,1.5,0,0,1,2,.43l.08.12,4,6.93a1.5,1.5,0,0,1-2.52,1.62l-.08-.12L.2,7.42A1.5,1.5,0,0,1,.75,5.37Z" fill="#fd6"/>
    </symbol>
    <symbol id="Man_Strength" data-name="Man Strength" viewBox="0 0 104.49 182.65">
      <path id="Head-_skin_" data-name="Head-[skin]" d="M42.53,5.11c-2.67,5-2.35,17.58,1.09,18.47,1.38.35,4.3-.52,7.28-2.31L49,34.5h11l-3.8-17.72a12.48,12.48,0,0,0,3.32-9C58.9-2,45.19.14,42.53,5.11Z" fill="#d4a181" fill-rule="evenodd"/>
      <path id="Hair" d="M48.51.28a17,17,0,0,0-6.64,1.77c0,2.93.56,3.8,5.42,3.72a9,9,0,0,1,3.06,3.14q-.63,8.84-3.35,8.83c-2.72,0-5-1.72-6.22-1.72-.87,0-.68,1.09-.1,1.89s2.79,1.31,2.79,2.34c0,.52-.46.58-.91.58h-.25c-.36,0-.67,0-.67.27,0,1-.32,2.92,1.44,2.92s6.88-.65,7.75-3.29c.56-1.71.93-5.24,1.09-10.6l.33,0A2.76,2.76,0,0,1,55,12.87a2.72,2.72,0,0,1-.83,2c.64.9,1.36,1.84,2.18,2.81,3.08-1.85,5.36-7.26,2.35-12.46A6.85,6.85,0,0,0,53.77.66,8,8,0,0,0,48.51.28Z" fill="#191847" fill-rule="evenodd"/>
      <polygon id="Leg-_skin_" data-name="Leg-[skin]" points="64.25 72.65 47.33 130.74 39.36 174.36 31.37 174.36 39.35 72.65 64.25 72.65" fill="#d4a181" fill-rule="evenodd"/>
      <polygon id="Shadow" points="64.25 72.65 47.33 130.74 39.36 174.36 31.37 174.36 39.35 72.65 64.25 72.65" fill-opacity="0.1" fill-rule="evenodd"/>
      <path id="Leg-_skin_2" data-name="Leg-[skin]" d="M72.1,72.65c-1.19,30.18-.72,46.64-.46,49.38s1.78,21.11,12.07,53.25H75.35C61.72,144.45,57,126.08,55.4,122s-6.18-20.51-12.91-49.38Z" fill="#d4a181" fill-rule="evenodd"/>
      <path id="Pant" d="M64.72,72.65q-6.63,30-22.9,95.73H30.11c-.87-45,2.81-74.6,9.19-95.73Z" fill="#1f28cf" fill-rule="evenodd"/>
      <path id="Pant-2" data-name="Pant" d="M72.06,72.65c-1.16,30.18,1.85,59.91,11.18,96.19H70.71A405.22,405.22,0,0,1,40.63,72.65Z" fill="#313ae7" fill-rule="evenodd"/>
      <path id="Shoe" d="M84.63,181.27l-.46-7.37q-4,1.18-10.11-.92a39,39,0,0,1-15.3,6.08,2,2,0,0,0-1.59,2.34,1.36,1.36,0,0,0,0,.17l.3,1.08h26.2Z" fill="#e4e4e4" fill-rule="evenodd"/>
      <path id="Shoe-2" data-name="Shoe" d="M41.1,181.27l-.46-7.37q-4,1.18-10.12-.92a39,39,0,0,1-15.3,6.08,2,2,0,0,0-1.59,2.34,1.36,1.36,0,0,0,0,.17l.31,1.08h26.2Z" fill="#e4e4e4" fill-rule="evenodd"/>
      <path id="Arms-_skin_" data-name="Arms-[skin]" d="M80.68,63.6a23.53,23.53,0,0,1-2.83,2.75c-2.21,1.78-6.7.81-9,.52-.42,3.4,4.45,1.56,3.84,5.88-.06.49-.16,1-.26,1.43l-.1.47c-.72,3.18-1.69,6.09,1.38,8.79.46.4,1.76.59,2.25-1,1.23-3.91,3.69-9.76,4.77-10.78q2.22-2.09,4.26-3.87h0ZM7.62,7.6c-3.59.89-4,6.21-3.47,12.52L3.24,27,7.62,30.3,8.85,20c-1.23-5.85,5.16-4.13,5-7.23C13.2,9.11,11,6.75,7.62,7.6Z" fill="#d4a181" fill-rule="evenodd"/>
      <path id="Coat-Back" d="M57,43.1l2.51-10.83c-9.3-4.38-25-4.38-37.17,5.49C17.9,41.36,14,30.2,11.49,19.64L0,16.81c0,21,8.25,31.64,16.58,35.43C27.32,57.12,43,44.86,57,43.1Z" fill="#e87613" fill-rule="evenodd"/>
      <path id="Shirt" d="M71,76.64H35.82c-1.6,0-1.3-2.32-1.07-3.49,2.68-13.51,13.14-28.07,13.14-47.3L58,24.26C66.42,37.75,69.32,54.36,71,76.64Z" fill="#dde3e9" fill-rule="evenodd"/>
      <path id="Coat-Front" d="M58.8,24.26a5.45,5.45,0,0,0-.94.07l-3.18.18Q41,70.8,47.15,86.29H78.79a114.14,114.14,0,0,0-3.5-20.63l5.9,8c10.48-1.87,28.24-14.16,22-23.23q-6.22-9-28.45-16.93c3-6,1.61-9.39-2.14-10.54C68.64,21.77,65.11,24.26,58.8,24.26ZM69.87,48.41l.36.11Q81.41,51.82,84.91,53c5.21,1.71,6,3.21,0,7.13-2.34,1.52-4,3-10.26,3.15C73.26,58.16,71.62,53.16,69.87,48.41Z" fill="#ff9b21" fill-rule="evenodd"/>
      <path id="Shadow-2" data-name="Shadow" d="M64.55,86.29H74.81q-2.86-6.69-6-15.85Q67.49,81.36,64.55,86.29Z" fill="#e87613" fill-rule="evenodd"/>
      <use width="31" height="15.1" transform="translate(15.34 24.77) rotate(-21) scale(0.71)" xlink:href="#Pop"/>
    </symbol>
  </defs>
  <g id="Individual_Man_Strength" data-name="Individual Man Strength">
    <use width="327" height="218" xlink:href="#Backdrop"/>
    <use id="Blob_2-4" data-name="Blob 2" width="327" height="169" transform="translate(0 24.5)" xlink:href="#Blob_2-2"/>
    <use width="104.49" height="182.65" transform="translate(111.26 17.68)" xlink:href="#Man_Strength"/>
  </g>
</svg>
