<svg xmlns="http://www.w3.org/2000/svg" xmlns:xlink="http://www.w3.org/1999/xlink" viewBox="0 0 327 218">
  <defs>
    <symbol id="Backdrop" data-name="Backdrop" viewBox="0 0 327 218">
      <rect id="Backdrop-3" data-name="Backdrop" width="327" height="218" rx="8" fill="#fff"/>
    </symbol>
    <symbol id="Blob_6-2" data-name="Blob 6" viewBox="0 0 315 199.05">
      <path id="Blob" d="M111.36,8.23C25.1,34.32-36.58,150.57,24.74,188.46s129.46-38,186.62-38S315,136.43,315,78.93,197.63-17.86,111.36,8.23Z" fill="#fff1e8" fill-rule="evenodd"/>
    </symbol>
    <symbol id="Table" data-name="Table" viewBox="0 0 119.44 112.14">
      <g id="Table-3" data-name="Table">
        <rect x="69.41" y="37.99" width="8.96" height="73.51" fill="#ffb78a"/>
        <polygon points="31.71 35.15 31.71 21.99 0 21.99 0 34.15 0 37.99 0 111.14 8.96 111.14 8.96 37.99 31.71 37.99 31.71 35.15 31.71 35.15" fill="#ffb78a"/>
        <polygon points="31.71 21.99 31.71 35.15 31.71 37.99 31.71 37.99 31.71 112.14 40.67 112.14 40.67 37.99 69.41 37.99 78.36 37.99 109.28 37.99 109.28 112.14 118.24 112.14 118.24 37.99 119.44 37.99 119.44 21.99 31.71 21.99" fill="#ffcbab"/>
        <rect x="31.71" y="35.14" height="2.85" fill="#ffcbab"/>
        <g>
          <rect x="17.56" y="65" width="14.15" height="4" fill="#ffcbab" opacity="0.55" style="isolation: isolate"/>
          <rect x="40.67" y="65" width="28.74" height="4" fill="#ffcbab" opacity="0.55" style="isolation: isolate"/>
          <rect x="78.36" y="65" width="30.92" height="4" fill="#ffcbab" opacity="0.55" style="isolation: isolate"/>
          <polygon id="_Path_" data-name="&lt;Path&gt;" points="17.56 69 8.96 69 8.96 65 17.56 65 17.56 69" fill="#ffb78a" fill-opacity="0.75" fill-rule="evenodd"/>
        </g>
        <polygon id="_Path_2" data-name="&lt;Path&gt;" points="114.27 34.5 39.5 34.5 39.5 25.5 114.27 25.5 114.27 34.5" fill="#ffe9db" fill-rule="evenodd"/>
      </g>
      <g id="Items">
        <g>
          <path d="M66.39,0V19.3A5.3,5.3,0,0,0,66.81,21a2.19,2.19,0,0,0,2.07,1,2.41,2.41,0,0,0,2.25-.75,4.26,4.26,0,0,0,.24-1.94V0Zm4,18.17a5.31,5.31,0,0,1-.15,1.67,1.19,1.19,0,0,1-1.34.65,1.17,1.17,0,0,1-1.24-.83,6.2,6.2,0,0,1-.26-1.49V1.5h3Z" fill="#ffbd94" opacity="0.94" style="isolation: isolate"/>
          <path d="M67.41,18.17a6.2,6.2,0,0,0,.26,1.49,1.17,1.17,0,0,0,1.24.83,1.19,1.19,0,0,0,1.34-.65,5.31,5.31,0,0,0,.15-1.67V1.5h-3Z" fill="#ffbd94" opacity="0.94" style="isolation: isolate"/>
          <path d="M67.41,18.17a6.2,6.2,0,0,0,.26,1.49,1.17,1.17,0,0,0,1.24.83,1.19,1.19,0,0,0,1.34-.65,5.31,5.31,0,0,0,.15-1.67V1.5h-3Z" fill="#ffe9db" opacity="0.94" style="isolation: isolate"/>
        </g>
        <path d="M107.8,7.5h-2v-5h-6v5h-2A1.5,1.5,0,0,0,96.32,9v8.46a5,5,0,0,0,4.91,5h3.14a5,5,0,0,0,4.91-5V9A1.5,1.5,0,0,0,107.8,7.5Z" fill="#ffdeca" fill-rule="evenodd"/>
        <path id="_Path_3" data-name="&lt;Path&gt;" d="M81.38,19.88,82.74,6.5H87l1.36,13.38A2.37,2.37,0,0,1,86,22.5H83.72a2.37,2.37,0,0,1-2.34-2.62" fill="#ffc19a" fill-rule="evenodd"/>
        <path d="M52.48,9.13V6.5h1v-3h-8v3h1V9.12a8.55,8.55,0,0,0-5,7.92,8.84,8.84,0,0,0,1.85,5.46H55.6A8.89,8.89,0,0,0,57.44,17,8.55,8.55,0,0,0,52.48,9.13Z" fill="#ffb78a" fill-rule="evenodd"/>
      </g>
      <g id="Book">
        <path d="M88.67,59.54H81.4l-.05,0V57.25l.05,0h7.27a1.17,1.17,0,1,1,0,2.34m-8.1-3.12V61.1h21.76a2.34,2.34,0,1,0,0-4.68H80.57" fill="#ffae7c"/>
        <path d="M88.67,57.2a1.17,1.17,0,1,1,0,2.34H81.4a0,0,0,0,1-.05,0V57.25a0,0,0,0,1,.05,0Z" fill="#ffcbab"/>
      </g>
      <g id="Book-2" data-name="Book">
        <path d="M83.73,60.32H107.1v1.56H97.53a1.18,1.18,0,1,0,0,2.34h9.57V65H83.73a2.34,2.34,0,1,1,0-4.68Z" fill="#ffae7c"/>
        <path d="M96.17,63.05a1.27,1.27,0,0,1,1.36-1.17h9.57v2.34H97.53A1.27,1.27,0,0,1,96.17,63.05Z" fill="#ffcbab"/>
      </g>
      <g id="Book-3" data-name="Book">
        <path d="M60.92,60.85h5.53l0,0V59.1l0,0H60.92a.89.89,0,1,0,0,1.78m6.17-2.38V62H50.53a1.78,1.78,0,1,1,0-3.56H67.09" fill="#ffae7c"/>
        <path d="M60.92,59.07a.89.89,0,1,0,0,1.78h5.53a0,0,0,0,0,0,0V59.1s0,0,0,0Z" fill="#ffcbab"/>
      </g>
      <g id="Book-4" data-name="Book">
        <path d="M64.68,61.44H46.91v1.19h7.28a.9.9,0,1,1,0,1.78H46.91V65H64.68a1.78,1.78,0,1,0,0-3.56Z" fill="#ffae7c"/>
        <path d="M55.22,63.52a1,1,0,0,0-1-.89H46.91v1.78h7.28A1,1,0,0,0,55.22,63.52Z" fill="#ffcbab"/>
      </g>
    </symbol>
    <symbol id="Expression_NRT" data-name="Expression NRT" viewBox="0 0 115.22 70.38">
      <path id="_Compound_Path_" data-name="&lt;Compound Path&gt;" d="M66.14,61.91c2.83,0,6.29.61,8.87-.74a13,13,0,0,0,3.26-2.58c.45-.51,1-1.6,1.47-1.71.79-.21,1.54,1.43,2.27,2.12a15.14,15.14,0,0,0,3.18,2.17c1.62,1,5.47,1.33,8.84.74,1.49-.26,3.66-1.95,6.13-2.91.61-.24,5-5.09,5-6.17s.25-1.74.2-2.17c-.07-.63-.37-1-.2-1,.84,0,1.43.18,1.79,0a18.58,18.58,0,0,0,6.74-6.5,14.33,14.33,0,0,0,1.56-5.51c0-4.08,0-5.26-.87-7.11a13.24,13.24,0,0,0-2.49-3.87A12.43,12.43,0,0,0,109.39,25c-.47-.27.61-1.18.91-2.92a12.69,12.69,0,0,0-.42-5.3,20.9,20.9,0,0,0-3.6-5.24,15.64,15.64,0,0,0-5.41-3,28.43,28.43,0,0,0-4.82-1.07c-1.67-.22-3.38,0-4.65-.29C90.79,7,89.1,3.6,87.35,2.25A6.78,6.78,0,0,0,83.81.49,59.94,59.94,0,0,0,77.55,0a10.53,10.53,0,0,0-6.1,2.24c-1.71,1.42-1.64,1.86-2.56,1.86-2.51,0-4-2.26-6.49-2.89a11.79,11.79,0,0,0-5.6,0c-4.16.63-8.6,4.89-10.32,9.66-.46,1.27-1.7.44-2.84.32a23.74,23.74,0,0,0-5.54-.32,10.67,10.67,0,0,0-6.29,3.06,12,12,0,0,0-3.4,8.91A19.92,19.92,0,0,0,30,28.67c.71,1.31,1.12,1.5,1.12,2.24s-.48.79-.8,1.17a11.34,11.34,0,0,0-1.95,2.47,11.7,11.7,0,0,0-1.27,3.07c-.51,2.19-.16,6.39,1.27,8.32A8.88,8.88,0,0,0,30.66,48c.44.24,2.74,0,2.35,1.24a14.38,14.38,0,0,0-.62,3.31,4.13,4.13,0,0,0,1.12,3.22C34.83,56.89,35.79,58,37,59a15.16,15.16,0,0,0,9.44,2.91c3.12-.3,3.12.15,5.7-1.32,1.16-.66,3.22-2.93,4.06-2.15a14.8,14.8,0,0,0,2.34,1.49C60.41,61.17,64.19,61.91,66.14,61.91Z" fill="#ffdbc5" fill-opacity="0.99" fill-rule="evenodd"/>
      <path id="_Compound_Path_2" data-name="&lt;Compound Path&gt;" d="M10.57,70.38A7.45,7.45,0,0,0,13.1,70a7.72,7.72,0,0,0,2.47-1.49,2.36,2.36,0,0,0,.53-1.22c.07-.21.13-.83.24-.9s.75,0,1.12-.12A3.83,3.83,0,0,0,19.77,65,9.38,9.38,0,0,0,21.21,63c.6-1.14-.06-3.34-.29-4a3,3,0,0,0-1.15-1.48L19,57.14c-.4-.15-.83-.32-1.13-.45-.64-.28.43-.5.71-1a3.17,3.17,0,0,0-.71-3.94,5.25,5.25,0,0,0-2.57-1.67,7.13,7.13,0,0,0-2,0c-.26,0-.52.15-1.37.72-.37.25-.74.72-1.1.73-1,0-1.7-.58-2.39-.73a3.06,3.06,0,0,0-2.1,0A3.47,3.47,0,0,0,4.69,52a8.57,8.57,0,0,0-1.16,1.32c-.27.45-.41.3-.41,1.42s.87,1.54.41,1.7c-1.56.55-1.06.16-1.92.71a3.32,3.32,0,0,0-1.16,1.1c-.23.46-.16,1-.39,1.61a4.4,4.4,0,0,0,1.55,4,11.71,11.71,0,0,0,1.14.89,5.86,5.86,0,0,1,1.5.85,3.55,3.55,0,0,0,1.1.33c.56,0,.73,1.31,1.05,1.93A4.05,4.05,0,0,0,10.57,70.38Z" fill="#ffdbc5" fill-rule="evenodd"/>
      <path id="_Compound_Path_3" data-name="&lt;Compound Path&gt;" d="M90.45,40.33a7.33,7.33,0,1,1-7.29,7.33A7.31,7.31,0,0,1,90.45,40.33ZM85.66,7A2.75,2.75,0,0,1,88.4,9.75v22a2.74,2.74,0,0,1-2.74,2.74H67.1L75.71,43a6.71,6.71,0,0,1,0,9.55l0,0a6.89,6.89,0,0,1-9.65,0l-14.15-14a6.74,6.74,0,0,1,0-9.6,6.92,6.92,0,0,1,7.37-1.52V9.75A2.74,2.74,0,0,1,62,7Zm4.79,36.67a4,4,0,1,0,4,4A4,4,0,0,0,90.45,43.67ZM66.93,38l-5.7,5.86,6.38,6.38c1.76,1.74,4.1,2,5.87.26l0,0a4.18,4.18,0,0,0-.2-6.09ZM85,10.43H62.65V30.06l1,1H85Zm-5.87,3.9a2,2,0,0,1,2,2v8.82a2,2,0,0,1-2,2H68.52a2,2,0,0,1-2-2V16.33a2,2,0,0,1,2-2Zm-8.64,7.34A1.33,1.33,0,1,0,71.8,23,1.33,1.33,0,0,0,70.47,21.67Zm6.65,0A1.33,1.33,0,1,0,78.45,23,1.32,1.32,0,0,0,77.12,21.67ZM70.47,17a1.34,1.34,0,1,0,1.33,1.33A1.34,1.34,0,0,0,70.47,17Zm6.65,0a1.34,1.34,0,1,0,1.33,1.33A1.33,1.33,0,0,0,77.12,17Z" fill="#fd9757" fill-rule="evenodd"/>
    </symbol>
    <symbol id="Nonbinary_Healthworker" data-name="Nonbinary Healthworker" viewBox="0 0 106.3 177.35">
      <g id="Nonbinary_Healthworker-3" data-name="Nonbinary Healthworker">
        <path id="Head-_skin_" data-name="Head-[skin]" d="M67,7.16c2.56,4.79,2.26,17-1,17.8-1.32.34-4.14-.49-7-2.22l1.8,12.75H50.14l3.65-17.08a12.07,12.07,0,0,1-3.18-8.64C51.27.28,64.44,2.37,67,7.16Z" fill="#b28b67" fill-rule="evenodd"/>
        <path id="Hair" d="M53,20.54c-1.33-5.94-5.13-10-4.55-12.65a4.05,4.05,0,0,1,3.09-3.31Q52.81-.68,59.89.1C67,.89,71.28,3.84,69.41,10.32c-1.71,0-3.78-.62-6.64.45-.91.33-1.56,1.38-2,3.14H59.53c-1.25-2.09-2.49-2.85-3.71-2.3s-1.5,1.9-.83,4l-.64,4.9Z" fill="#191847" fill-rule="evenodd"/>
        <polygon id="Leg" points="44.64 67.35 61.27 125.91 73.41 169.07 82.26 169.07 69.36 67.35 44.64 67.35" fill="#191847" fill-rule="evenodd"/>
        <path id="Leg-2" data-name="Leg" d="M40.25,67.35c-.39,30.18-1.7,46.64-2.1,49.39s-6.5,20.18-18.29,52.33H29q22.52-46.26,25.14-52.33c1.75-4,7.14-20.51,15.27-49.39Z" fill="#2f3676" fill-rule="evenodd"/>
        <path id="Shoe" d="M18.94,176l.46-7.36q4,1.17,10-.92a38.38,38.38,0,0,0,15.15,6.07,2,2,0,0,1,1.59,2.34,1,1,0,0,0,0,.17l-.31,1.08h-26Z" fill="#e4e4e4" fill-rule="evenodd"/>
        <path id="Shoe-2" data-name="Shoe" d="M72.17,176l.45-7.36q4,1.17,10-.92a38.37,38.37,0,0,0,15.16,6.07,2,2,0,0,1,1.58,2.34,1,1,0,0,1,0,.17l-.3,1.08h-26Z" fill="#e4e4e4" fill-rule="evenodd"/>
        <path id="Arms-_skin_" data-name="Arms-[skin]" d="M21.91,62.29l7.91,1.16Q18.41,88.29,16.49,92.14l-.09.16a4.94,4.94,0,0,1-.23.44c-1.38,2.4.25,6.58.88,8.79-3.2.93-2.18-4-6.23-2.8-.54.17-1.07.36-1.58.56l-.44.18C6,100.62,3.38,101.85.41,99.38,0,99-.42,97.78,1,97.06c3.56-1.78,8.8-5,9.61-6.23q1.67-2.44,11.29-28.54Zm61,5L96.39,78.71a37.78,37.78,0,0,1,9.38,4.57c.58.6,1.24,1.78-1.28,1.41s-5.19-.66-5.6.19,1,2,.27,3.1q-.8,1.13-6.27-6.33L79.24,74.82Z" fill="#b28b67" fill-rule="evenodd"/>
        <path id="Coat-Back" d="M55,30l4.9-1.62C66.5,45,76.4,61.1,93,74.71l-4.09,7.08C74.32,73.2,60.54,66.52,55,53.62,53.08,49.29,54.8,35.15,55,30Z" fill="#c5cfd6" fill-rule="evenodd"/>
        <path id="Shirt" d="M38.13,76.83q21,2.23,33.13,0c1-.19,1.16-1.86.69-3C64.75,56.11,59.8,40.65,59.8,28.35c-1.32.67-3.64.77-6.94.3C44,41.33,39.88,55.88,38.13,76.83Z" fill="#323337" fill-rule="evenodd"/>
        <path id="Coat-Front" d="M50.66,27.35v.23h3.7c.86,5,3.53,72.61,11.73,95.83l.25.69H20.9c1-20.64,8.75-45.44,16.62-66.2q-10.44,9.59-18.2,32.48h0l-8.51-2.19q9.49-41,39-60.31l.13-.3h.33Z" fill="#dde3e9" fill-rule="evenodd"/>
      </g>
    </symbol>
  </defs>
  <g id="Individual_Nonbinary_Healthworker_Quit_Aids" data-name="Individual Nonbinary Healthworker Quit Aids">
    <use width="327" height="218" xlink:href="#Backdrop"/>
    <use width="315" height="199.05" transform="translate(6 9.48)" xlink:href="#Blob_6-2"/>
    <use width="119.44" height="112.14" transform="translate(167 93)" xlink:href="#Table"/>
    <use width="115.22" height="70.38" transform="translate(123 3) scale(1 0.99)" xlink:href="#Expression_NRT"/>
    <use width="106.3" height="177.35" transform="translate(44.36 38.09)" xlink:href="#Nonbinary_Healthworker"/>
  </g>
</svg>
