<svg xmlns="http://www.w3.org/2000/svg" xmlns:xlink="http://www.w3.org/1999/xlink" viewBox="0 0 327 218">
  <defs>
    <symbol id="Backdrop" data-name="Backdrop" viewBox="0 0 327 218">
      <rect id="Backdrop-3" data-name="Backdrop" width="327" height="218" rx="8" fill="#fff"/>
    </symbol>
    <symbol id="Blob_1-2" data-name="Blob 1" viewBox="0 0 293 184">
      <path id="Blob" d="M189.42,176.39C269.66,152.28,327,44.81,270,9.79S149.57,44.94,96.4,44.94,0,57.88,0,111,109.17,200.51,189.42,176.39Z" fill="#fff1e8" fill-rule="evenodd"/>
    </symbol>
    <symbol id="Calendar_Large" data-name="Calendar Large" viewBox="0 0 169 155.33">
      <rect x="19" y="27.33" width="150" height="128" rx="7" fill="#ffc09a"/>
      <path d="M15,24.33H146v25H15Zm0,36H146v74H15Z" fill="#ffd5bd" fill-rule="evenodd"/>
      <path d="M31.87,0a6,6,0,0,0-5.61,6.19v6H5.71a5.53,5.53,0,0,0-4,1.8A6.32,6.32,0,0,0,0,18.28v122.3a5.93,5.93,0,0,0,5.71,6.09H154.29a5.93,5.93,0,0,0,5.71-6.09V18.28A6.32,6.32,0,0,0,158.33,14a5.53,5.53,0,0,0-4-1.8h-20v-6a6.37,6.37,0,0,0-1.68-4.41A5.56,5.56,0,0,0,128.5,0a6,6,0,0,0-5.63,6.19v6H37.67v-6A6.37,6.37,0,0,0,36,1.78,5.56,5.56,0,0,0,31.87,0ZM15.24,24.4H26.08v6.14a6.37,6.37,0,0,0,2.59,5.62,4.9,4.9,0,0,0,5.62,0,6.36,6.36,0,0,0,2.6-5.62V24.4h86.67v6.14A6.34,6.34,0,0,0,126.24,36a4.91,4.91,0,0,0,5.49,0,6.36,6.36,0,0,0,2.67-5.41V24.4h10.84V48.86h-130Zm0,36.73h130v73.33h-130V61.13ZM27,64.33h6a3,3,0,0,1,3,3v6a3,3,0,0,1-3,3H27a3,3,0,0,1-3-3v-6A3,3,0,0,1,27,64.33Zm0,18h6a3,3,0,0,1,3,3v6a3,3,0,0,1-3,3H27a3,3,0,0,1-3-3v-6A3,3,0,0,1,27,82.33Zm0,18h6a3,3,0,0,1,3,3v6a3,3,0,0,1-3,3H27a3,3,0,0,1-3-3v-6A3,3,0,0,1,27,100.33Zm0,18h6a3,3,0,0,1,3,3v6a3,3,0,0,1-3,3H27a3,3,0,0,1-3-3v-6A3,3,0,0,1,27,118.33Zm20-54h6a3,3,0,0,1,3,3v6a3,3,0,0,1-3,3H47a3,3,0,0,1-3-3v-6A3,3,0,0,1,47,64.33Zm0,18h6a3,3,0,0,1,3,3v6a3,3,0,0,1-3,3H47a3,3,0,0,1-3-3v-6A3,3,0,0,1,47,82.33Zm0,18h6a3,3,0,0,1,3,3v6a3,3,0,0,1-3,3H47a3,3,0,0,1-3-3v-6A3,3,0,0,1,47,100.33Zm0,18h6a3,3,0,0,1,3,3v6a3,3,0,0,1-3,3H47a3,3,0,0,1-3-3v-6A3,3,0,0,1,47,118.33Zm20-54h6a3,3,0,0,1,3,3v6a3,3,0,0,1-3,3H67a3,3,0,0,1-3-3v-6A3,3,0,0,1,67,64.33Zm0,18h6a3,3,0,0,1,3,3v6a3,3,0,0,1-3,3H67a3,3,0,0,1-3-3v-6A3,3,0,0,1,67,82.33Zm0,18h6a3,3,0,0,1,3,3v6a3,3,0,0,1-3,3H67a3,3,0,0,1-3-3v-6A3,3,0,0,1,67,100.33Zm0,18h6a3,3,0,0,1,3,3v6a3,3,0,0,1-3,3H67a3,3,0,0,1-3-3v-6A3,3,0,0,1,67,118.33Zm20-54h6a3,3,0,0,1,3,3v6a3,3,0,0,1-3,3H87a3,3,0,0,1-3-3v-6A3,3,0,0,1,87,64.33Zm0,18h6a3,3,0,0,1,3,3v6a3,3,0,0,1-3,3H87a3,3,0,0,1-3-3v-6A3,3,0,0,1,87,82.33Zm0,18h6a3,3,0,0,1,3,3v6a3,3,0,0,1-3,3H87a3,3,0,0,1-3-3v-6A3,3,0,0,1,87,100.33Zm0,18h6a3,3,0,0,1,3,3v6a3,3,0,0,1-3,3H87a3,3,0,0,1-3-3v-6A3,3,0,0,1,87,118.33Zm20-54h6a3,3,0,0,1,3,3v6a3,3,0,0,1-3,3h-6a3,3,0,0,1-3-3v-6A3,3,0,0,1,107,64.33Zm0,18h6a3,3,0,0,1,3,3v6a3,3,0,0,1-3,3h-6a3,3,0,0,1-3-3v-6A3,3,0,0,1,107,82.33Zm0,18h6a3,3,0,0,1,3,3v6a3,3,0,0,1-3,3h-6a3,3,0,0,1-3-3v-6A3,3,0,0,1,107,100.33Zm0,18h6a3,3,0,0,1,3,3v6a3,3,0,0,1-3,3h-6a3,3,0,0,1-3-3v-6A3,3,0,0,1,107,118.33Zm20-54h6a3,3,0,0,1,3,3v6a3,3,0,0,1-3,3h-6a3,3,0,0,1-3-3v-6A3,3,0,0,1,127,64.33Zm0,18h6a3,3,0,0,1,3,3v6a3,3,0,0,1-3,3h-6a3,3,0,0,1-3-3v-6A3,3,0,0,1,127,82.33Zm0,18h6a3,3,0,0,1,3,3v6a3,3,0,0,1-3,3h-6a3,3,0,0,1-3-3v-6A3,3,0,0,1,127,100.33Zm0,18h6a3,3,0,0,1,3,3v6a3,3,0,0,1-3,3h-6a3,3,0,0,1-3-3v-6A3,3,0,0,1,127,118.33Z" fill="#ffa66f" fill-rule="evenodd"/>
    </symbol>
  </defs>
  <g id="Introspective_Datetime" data-name="Introspective Datetime">
    <use width="327" height="218" xlink:href="#Backdrop"/>
    <use width="293" height="184" transform="translate(17 17)" xlink:href="#Blob_1-2"/>
    <use width="169" height="155.33" transform="translate(79 31.33)" xlink:href="#Calendar_Large"/>
  </g>
</svg>
