<svg xmlns="http://www.w3.org/2000/svg" xmlns:xlink="http://www.w3.org/1999/xlink" viewBox="0 0 327 218">
  <defs>
    <symbol id="Backdrop" data-name="Backdrop" viewBox="0 0 327 218">
      <rect id="Backdrop-3" data-name="Backdrop" width="327" height="218" rx="8" fill="#fff"/>
    </symbol>
    <symbol id="Clock" data-name="Clock" viewBox="0 0 33.08 30">
      <g>
        <path d="M18.08,0c-.52,0-1,0-1.54.08h.22a14.92,14.92,0,0,1,7.72,3.28h0l0,0a15,15,0,0,1-8,26.51c.5,0,1,.08,1.54.08a15,15,0,0,0,0-30" fill="#ffb07e"/>
        <path d="M15,26.15a11.15,11.15,0,0,1,0-22.3c.29,0,.57,0,.86,0h0l.37,0a11.16,11.16,0,0,1,9.87,10,8.71,8.71,0,0,1,0,1V15a9.29,9.29,0,0,1,0,1.06,11.16,11.16,0,0,1-9.87,10l-.37,0A11.23,11.23,0,0,1,6.15,15h0a11.23,11.23,0,0,0,9.71,11.11c-.29,0-.57,0-.86,0M15,0a15,15,0,0,0,0,30c.52,0,1,0,1.54-.08a15,15,0,0,0,8-26.51l0,0h0A14.92,14.92,0,0,0,16.76.1h-.22C16,0,15.52,0,15,0" fill="#ffbe95"/>
        <path d="M15,3.85a11.15,11.15,0,0,0,0,22.3c.29,0,.57,0,.86,0A11.23,11.23,0,0,1,6.15,15h0A11.23,11.23,0,0,1,15.86,3.89c-.29,0-.57,0-.86,0" fill="#ffb181"/>
        <path d="M17.13,14.72,14.47,8.88l1.83-.83,2.3,5.07.66-.72,1.48,1.35L19.5,15.1l.64,1.41-1.82.83L18,16.7,12.28,23,10.8,21.63l6.33-6.91M15.86,3.89h0A11.23,11.23,0,0,0,6.15,15h0a11.23,11.23,0,0,0,9.71,11.11l.37,0a11.16,11.16,0,0,0,9.87-10,9.29,9.29,0,0,0,0-1.06V15a8.71,8.71,0,0,0,0-1,11.16,11.16,0,0,0-9.87-10l-.37,0" fill="#ffc6a2"/>
        <path d="M17.13,14.72,10.8,21.63,12.28,23,18,16.7l-.9-2m2.13-2.32-.66.72.9,2,1.24-1.35L19.26,12.4" fill="#ffb181"/>
        <polyline points="16.3 8.05 14.47 8.88 17.13 14.72 18.03 16.7 18.32 17.34 20.14 16.51 19.5 15.1 18.6 13.12 16.3 8.05" fill="#ffb181"/>
      </g>
    </symbol>
  </defs>
  <g id="Introspective_Time" data-name="Introspective Time">
    <use width="327" height="218" xlink:href="#Backdrop"/>
    <path id="Blob" d="M117.36,17.71C31.1,43.79-30.58,160.05,30.74,197.93s129.46-38,186.62-38S321,145.91,321,88.41,203.63-8.38,117.36,17.71Z" fill="#fff1e8" fill-rule="evenodd"/>
    <use width="33.08" height="30" transform="translate(70 24) scale(5.65 5.67)" xlink:href="#Clock"/>
  </g>
</svg>
