<svg xmlns="http://www.w3.org/2000/svg" xmlns:xlink="http://www.w3.org/1999/xlink" viewBox="0 0 327 218">
  <defs>
    <symbol id="Backdrop" data-name="Backdrop" viewBox="0 0 327 218">
      <rect id="Backdrop-3" data-name="Backdrop" width="327" height="218" rx="8" fill="#fff"/>
    </symbol>
    <symbol id="Blob_3-2" data-name="Blob 3" viewBox="0 0 255.4 211.93">
      <path id="Blob" d="M199.34,70.93c40.38,0,60.07,33.41,55.38,66.84s-31.4,74.16-108.78,74.16S73,142.46,116.51,122.75,159,70.93,199.34,70.93ZM71.32,7.82C144-14.65,149.61,16,142.74,40.75s-21.5,44.85-53,61S32,94.7,10.16,74.62-1.35,30.29,71.32,7.82Z" fill="#fff1e8" fill-rule="evenodd"/>
    </symbol>
    <symbol id="Wreath" data-name="Wreath" viewBox="0 0 179.99 92.01">
      <path d="M168.46,8.8a.85.85,0,0,1-.68.92c-2.44.43-4.78-2.89-5.54-7.22a.86.86,0,0,1,.67-1c2.39-.42,4.67,2.75,5.49,6.94l0,.25,0-.26c-.65-4.11.35-7.8,2.62-8.35l.16,0a.88.88,0,0,1,1,.74c.76,4.33-.3,8.25-2.74,8.68a.87.87,0,0,1-1-.63l0-.11Zm-157.9.63C8.12,9,7.06,5.08,7.82.75a.88.88,0,0,1,1-.74c2.38.42,3.45,4.18,2.78,8.39l0,.26,0-.25c.82-4.19,3.1-7.36,5.49-6.94a.86.86,0,0,1,.67,1c-.76,4.33-3.1,7.65-5.54,7.22a.88.88,0,0,1-.67-1A.86.86,0,0,1,10.56,9.43Zm164,3.57a.82.82,0,0,1,.8.83c0,7.76-3.07,14.16-7.2,14.16a.81.81,0,0,1-.8-.83.82.82,0,0,1-.81.83c-4.13,0-7.2-6.4-7.2-14.16a.82.82,0,0,1,.8-.83c4,0,7,6,7.2,13.43v.37C167.44,19.2,170.48,13,174.55,13ZM19.18,13a.82.82,0,0,1,.8.83C20,21.59,16.9,28,12.77,28a.82.82,0,0,1-.8-.83.81.81,0,0,1-.8.83C7,28,4,21.59,4,13.83a.82.82,0,0,1,.8-.83c4.06,0,7.11,6.2,7.2,13.8v0C12.07,19.2,15.11,13,19.18,13Zm139.7,16.88h.1c5.49,1,8.83,7.64,7.8,15l-.05.35-.06.34.07-.34c1.45-7.45,6.95-12.75,12.52-11.77a.81.81,0,0,1,.64,1c-1.35,7.64-6.93,13.12-12.59,12.12a.82.82,0,0,1-.64-1,.8.8,0,0,1-.92.68c-5.66-1-9-8-7.69-15.69A.82.82,0,0,1,158.88,29.88Zm-136.95.69c1.35,7.64-2,14.7-7.69,15.69a.8.8,0,0,1-.92-.68.82.82,0,0,1-.64,1C7,47.54,1.44,42.06.09,34.42a.81.81,0,0,1,.64-1c5.57-1,11.08,4.32,12.53,11.77l.06.34-.06-.34c-1.18-7.5,2.18-14.37,7.75-15.35A.81.81,0,0,1,21.93,30.57ZM151.52,45.71a.85.85,0,0,1,1.08-.52C160,47.87,163.17,57.48,160,66.72l-.12.34,0,.1a.85.85,0,0,1-1,.42C151.3,64.87,148.12,55.06,151.52,45.71Zm-123,0c3.4,9.35.22,19.16-7.24,21.87a.84.84,0,0,1-1.08-.52c-3.4-9.35-.22-19.15,7.24-21.87A.85.85,0,0,1,28.47,45.71Zm131.5,21c3.48-9.14,12.11-14.44,19.47-11.76a.86.86,0,0,1,.5,1.1c-3.4,9.34-12.15,14.81-19.6,12.1a.85.85,0,0,1-.53-1l0-.1ZM20,66.72l.13.34a.86.86,0,0,1-.5,1.1C12.2,70.87,3.45,65.4.05,56.06A.86.86,0,0,1,.55,55C7.91,52.28,16.54,57.58,20,66.72ZM137.4,63.87a.85.85,0,0,1,1.18-.31,18.18,18.18,0,0,1,7,24.49l-.17.3-.06.09a.88.88,0,0,1-1.13.22A18.18,18.18,0,0,1,137.4,63.87Zm-94.8,0a18.18,18.18,0,0,1-6.8,24.79.87.87,0,0,1-1.19-.31,18.18,18.18,0,0,1,6.8-24.79A.87.87,0,0,1,42.6,63.87Zm103,24.18a18.19,18.19,0,0,1,24.7-6.21.87.87,0,0,1,.32,1.18,18.18,18.18,0,0,1-24.87,6.51.86.86,0,0,1-.37-1.08l0-.1Zm-111.11,0,.17.3a.86.86,0,0,1-.32,1.18A18.18,18.18,0,0,1,9.42,83a.87.87,0,0,1,.32-1.18A18.19,18.19,0,0,1,34.44,88.05Z" fill="#fd6"/>
    </symbol>
    <symbol id="Ribbon_Generic" data-name="Ribbon Generic" viewBox="0 0 81.08 120.61">
      <path d="M81.08,41.61C81.08,18.63,62.93,0,40.54,0S0,18.63,0,41.61A41.93,41.93,0,0,0,16.21,74.9v40.51a5.2,5.2,0,0,0,3.12,4.8,4.92,4.92,0,0,0,1.94.4,5,5,0,0,0,3.59-1.52L40.53,103l15.68,16a5,5,0,0,0,5.52,1.12,5.19,5.19,0,0,0,3.12-4.8V74.91A41.93,41.93,0,0,0,81.08,41.61Z" fill="#fd9757" fill-rule="evenodd"/>
      <path d="M40.54,10.4A29.85,29.85,0,0,1,62,19.54a31.81,31.81,0,0,1,0,44.14,29.86,29.86,0,0,1-43,0,31.79,31.79,0,0,1,0-44.14A29.83,29.83,0,0,1,40.54,10.4ZM26.34,80.6a39.81,39.81,0,0,0,28.38,0v22.23L44.1,92a5,5,0,0,0-7.16,0l-10.6,10.87Z" fill="#ff6607" fill-rule="evenodd"/>
    </symbol>
  </defs>
  <g id="Milestone_Ribbon_Default" data-name="Milestone Ribbon Default">
    <use width="327" height="218" xlink:href="#Backdrop"/>
    <use width="255.4" height="211.93" transform="translate(35.8 3.04)" xlink:href="#Blob_3-2"/>
    <use width="179.99" height="92.01" transform="translate(73.5 63)" xlink:href="#Wreath"/>
    <use width="81.08" height="120.61" transform="translate(122.96 48.7)" xlink:href="#Ribbon_Generic"/>
    <path d="M170.25,101.28a1.11,1.11,0,0,1-.5-.12L163.5,98l-6.25,3.14a1.12,1.12,0,0,1-1.13-.08,1,1,0,0,1-.43-1l1.19-6.65-5.06-4.71a1,1,0,0,1-.27-1,1,1,0,0,1,.87-.69l7-1L162.54,80a1.09,1.09,0,0,1,1.92,0L167.59,86l7,1a1,1,0,0,1,.87.69,1,1,0,0,1-.27,1l-5.06,4.71,1.18,6.6a.83.83,0,0,1,0,.22,1.06,1.06,0,0,1-1.07,1Z" fill="#fff" fill-rule="evenodd"/>
  </g>
</svg>
