<svg xmlns="http://www.w3.org/2000/svg" xmlns:xlink="http://www.w3.org/1999/xlink" viewBox="0 0 327 218">
  <defs>
    <symbol id="Backdrop" data-name="Backdrop" viewBox="0 0 327 218">
      <rect id="Backdrop-3" data-name="Backdrop" width="327" height="218" rx="8" fill="#fff"/>
    </symbol>
    <symbol id="Blob_4-2" data-name="Blob 4" viewBox="0 0 282 205">
      <path id="Blob" d="M222.92,188.31c68.7-40.08,70.86-73.58,40.13-116.36S167.2,38.38,116.57,7.77,0,41.87,0,117.41,154.21,228.39,222.92,188.31Z" fill="#fff1e8" fill-rule="evenodd"/>
    </symbol>
    <symbol id="Mission" data-name="Mission" viewBox="0 0 106.44 120">
      <g>
        <path d="M48.22,3.09V57.91c0,1.6,2.07,3.17,4.5,3.09s4.5-1.36,4.5-3.09V3.09c0-1.6-2.07-3.17-4.5-3.09s-4.5,1.36-4.5,3.09Z" fill="#ffc09a" fill-rule="evenodd"/>
        <path d="M54,52.25l52.22,66.13a1,1,0,0,1-.16,1.4,1,1,0,0,1-.62.22H1a1,1,0,0,1-1-1,1,1,0,0,1,.22-.62L52.43,52.25a1,1,0,0,1,1.41-.16A.81.81,0,0,1,54,52.25Z" fill="#ffc09a" fill-rule="evenodd"/>
        <path d="M95.92,5H52.51a4.26,4.26,0,0,0-4.29,4.22V42.78A4.26,4.26,0,0,0,52.51,47H95.92l.41,0a4.22,4.22,0,0,0,3.37-6.2L91.59,26,99.7,11.22A4.22,4.22,0,0,0,95.92,5Z" fill="#ff6607" fill-rule="evenodd"/>
        <polygon points="52.72 65 15.22 112 90.22 112 52.72 65" fill="#fd9757" fill-rule="evenodd"/>
      </g>
    </symbol>
    <symbol id="Sparkles" data-name="Sparkles" viewBox="0 0 132.75 120.94">
      <g id="Graphic">
        <path id="Path" d="M118.71,22.64l.33-.81.28-.7.39-1.06.43-1.21.47-1.34.76-2.29,1-3.07.94-3,.32-1.07,1,3.09.89,2.76.67,2.06.5,1.49.47,1.34.43,1.21.39,1.06.28.7.33.82a26.76,26.76,0,0,0,4.21,6.77l-.43.51a26.71,26.71,0,0,0-3.78,6.26l-.33.81-.28.7-.39,1.07-.43,1.2-.47,1.35-.76,2.28-1,3.07-.94,3-.33,1.06-1-3.08-.89-2.77-.67-2.06L120.49,41l-.35-1-.43-1.2-.39-1.07L119,37l-.25-.62c0-.07-.06-.13-.08-.19a26.71,26.71,0,0,0-3.78-6.26l-.43-.51A26.37,26.37,0,0,0,118.71,22.64Z" fill="#fd6" fill-rule="evenodd"/>
      </g>
      <g id="Graphic-2" data-name="Graphic">
        <path id="Path-2" data-name="Path" d="M88,70.48l.19-.46.16-.4L88.6,69l.25-.69.28-.77.44-1.3.58-1.75.54-1.71.2-.6L91.45,64,92,65.53l.39,1.17.29.85.28.77.25.69.23.61.16.4.2.46a14.5,14.5,0,0,0,2.45,3.87l-.25.3a14.94,14.94,0,0,0-2.2,3.57l-.2.47-.16.4-.23.61-.25.68-.28.77-.44,1.31-.58,1.75-.54,1.7-.19.61-.56-1.76-.52-1.58L89.42,82l-.36-1-.21-.57-.25-.68-.23-.61-.16-.4-.15-.36,0-.11a15.3,15.3,0,0,0-2.21-3.57l-.25-.3A14.78,14.78,0,0,0,88,70.48Z" fill="#fd6" fill-rule="evenodd"/>
      </g>
      <g id="Graphic-3" data-name="Graphic">
        <path id="Path-3" data-name="Path" d="M3.5,11.93l.28-.67L4,10.68l.33-.87.36-1,.39-1.1.64-1.88.82-2.52L7.33.87,7.6,0l.8,2.53L9.14,4.8,9.7,6.49l.42,1.23.39,1.1.35,1,.34.87.22.58.28.67a22,22,0,0,0,3.51,5.56l-.36.42a21.51,21.51,0,0,0-3.15,5.14l-.28.67-.22.58-.34.87-.35,1-.39,1.1-.64,1.88-.82,2.52-.78,2.45L7.6,35l-.8-2.53-.73-2.27-.56-1.69L5,27l-.29-.82-.36-1L4,24.3l-.23-.58-.21-.51a.77.77,0,0,0-.07-.16A21.67,21.67,0,0,0,.36,17.91L0,17.49A21.64,21.64,0,0,0,3.5,11.93Z" fill="#fd6" fill-rule="evenodd"/>
      </g>
      <g id="Graphic-4" data-name="Graphic">
        <path id="Path-4" data-name="Path" d="M19.41,92.87l.34-.81.27-.7.4-1.06.43-1.21.47-1.34.76-2.29,1-3.07.93-3,.33-1.07,1,3.09.88,2.76.68,2.06.5,1.49.47,1.34.43,1.21.39,1.06.28.7.33.81a26.37,26.37,0,0,0,4.21,6.78l-.43.51a26.37,26.37,0,0,0-3.78,6.26l-.33.81-.28.7L28.25,109l-.43,1.2-.47,1.34-.76,2.29-1,3.07-.94,3-.33,1.07-1-3.09-.88-2.76L21.82,113l-.62-1.83-.35-1-.43-1.2-.4-1.07-.27-.7-.26-.62a1.08,1.08,0,0,0-.08-.19,26.34,26.34,0,0,0-3.77-6.26l-.43-.51A26.34,26.34,0,0,0,19.41,92.87Z" fill="#fd6" fill-rule="evenodd"/>
      </g>
    </symbol>
  </defs>
  <g id="Milestone_Mission_Sparkles" data-name="Milestone Mission Sparkles">
    <use width="327" height="218" xlink:href="#Backdrop"/>
    <use width="282" height="205" transform="translate(22.5 6.5)" xlink:href="#Blob_4-2"/>
    <use width="106.44" height="120" transform="translate(110.28 49)" xlink:href="#Mission"/>
    <use width="132.75" height="120.94" transform="translate(97.13 48.53)" xlink:href="#Sparkles"/>
  </g>
</svg>
