<svg xmlns="http://www.w3.org/2000/svg" xmlns:xlink="http://www.w3.org/1999/xlink" viewBox="0 0 327 218">
  <defs>
    <clipPath id="clip-path">
      <circle cx="90" cy="90" r="90" fill="none"/>
    </clipPath>
    <symbol id="Backdrop" data-name="Backdrop" viewBox="0 0 327 218">
      <rect id="Backdrop-3" data-name="Backdrop" width="327" height="218" rx="8" fill="#fff"/>
    </symbol>
    <symbol id="Confetti" data-name="Confetti" viewBox="0 0 180 180">
      <g clip-path="url(#clip-path)">
        <g style="isolation: isolate">
          <polygon points="13.85 20.6 12.99 17.6 16.49 18.78 15.62 20.41 13.85 20.6" fill="#d6de23" fill-rule="evenodd"/>
          <polygon points="160.57 52.8 164.07 52.66 163.44 55.66 161.22 54.5 160.57 52.8" fill="#d6de23" fill-rule="evenodd"/>
          <polygon points="96.78 82.7 94 80.3 96.63 79.7 97.5 81.67 96.78 82.7" fill="#d6de23" fill-rule="evenodd"/>
          <polygon points="134.56 80.38 133.7 77.38 137.2 78.56 136.33 80.19 134.56 80.38" fill="#d6de23" fill-rule="evenodd"/>
          <polygon points="62.57 21.97 59.24 20.7 61.2 18.97 62.74 20.6 62.57 21.97" fill="#d6de23" fill-rule="evenodd"/>
          <polygon points="89.74 10.6 86.37 9.26 88.29 7.59 89.87 9.25 89.74 10.6" fill="#d6de23" fill-rule="evenodd"/>
          <polygon points="110.42 56.66 109.55 53.66 113.05 54.84 112.19 56.47 110.42 56.66" fill="#d6de23" fill-rule="evenodd"/>
          <polygon points="140.03 62.77 136.7 61.5 138.65 59.77 140.2 61.4 140.03 62.77" fill="#d6de23" fill-rule="evenodd"/>
          <polygon points="30.39 39.06 27.02 37.73 28.94 36.06 30.52 37.71 30.39 39.06" fill="#d6de23" fill-rule="evenodd"/>
          <polygon points="18.9 70.84 18.14 67.84 21.64 68.98 20.7 70.63 18.9 70.84" fill="#d6de23" fill-rule="evenodd"/>
          <polygon points="48.5 21.14 45.71 18.66 48.34 18.14 49.21 20.13 48.5 21.14" fill="#d6de23" fill-rule="evenodd"/>
          <polygon points="8.26 57.2 5.48 54.71 8.1 54.2 8.98 56.19 8.26 57.2" fill="#d6de23" fill-rule="evenodd"/>
          <polygon points="58.11 99.36 57.25 96.36 60.75 97.54 59.88 99.17 58.11 99.36" fill="#d6de23" fill-rule="evenodd"/>
          <polygon points="64.14 29.14 63.28 26.14 66.78 27.32 65.92 28.95 64.14 29.14" fill="#d6de23" fill-rule="evenodd"/>
          <polygon points="47.47 9.41 45.24 11.56 43.97 9.02 46.09 8.56 47.47 9.41" fill="#d6de23" fill-rule="evenodd"/>
          <polygon points="138.7 56.17 135.2 56.32 135.83 53.32 138.05 54.48 138.7 56.17" fill="#d6de23" fill-rule="evenodd"/>
          <polygon points="89.73 20.07 86.4 18.8 88.36 17.07 89.9 18.7 89.73 20.07" fill="#d6de23" fill-rule="evenodd"/>
          <polygon points="113.44 13.95 112.57 10.95 116.07 12.13 115.21 13.77 113.44 13.95" fill="#d6de23" fill-rule="evenodd"/>
          <polygon points="122.49 16.8 121.63 13.8 125.13 14.98 124.26 16.62 122.49 16.8" fill="#d6de23" fill-rule="evenodd"/>
          <polygon points="94.77 36.22 91.4 34.88 93.32 33.22 94.9 34.87 94.77 36.22" fill="#d6de23" fill-rule="evenodd"/>
          <polygon points="138.61 31.94 137.84 28.94 141.34 30.07 140.41 31.73 138.61 31.94" fill="#d6de23" fill-rule="evenodd"/>
          <polygon points="165.74 14.9 164.88 11.9 168.38 13.08 167.52 14.72 165.74 14.9" fill="#d6de23" fill-rule="evenodd"/>
          <polygon points="170.8 45.22 170.03 42.22 173.53 43.36 172.6 45.01 170.8 45.22" fill="#d6de23" fill-rule="evenodd"/>
          <polygon points="63.26 51.43 59.76 51.57 60.39 48.57 62.61 49.73 63.26 51.43" fill="#d6de23" fill-rule="evenodd"/>
          <polygon points="43.1 18.32 39.6 18.37 40.22 15.37 42.45 16.6 43.1 18.32" fill="#d6de23" fill-rule="evenodd"/>
          <polygon points="119.85 88.84 119.02 91.42 116.35 89.39 118.07 88.42 119.85 88.84" fill="#d6de23" fill-rule="evenodd"/>
          <polygon points="102.45 32.55 98.95 32.6 99.57 29.61 101.8 30.83 102.45 32.55" fill="#d6de23" fill-rule="evenodd"/>
          <polygon points="104.5 54.41 101 54.27 101.63 57.27 103.85 56.1 104.5 54.41" fill="#d6de23" fill-rule="evenodd"/>
          <polygon points="21.29 37.56 20.39 40.17 17.79 38.19 19.53 37.17 21.29 37.56" fill="#d6de23" fill-rule="evenodd"/>
          <polygon points="80.84 31.6 84.34 31.66 83.72 28.66 81.49 29.88 80.84 31.6" fill="#d6de23" fill-rule="evenodd"/>
          <polygon points="14.93 24.01 11.43 24.07 12.06 21.07 14.28 22.29 14.93 24.01" fill="#d6de23" fill-rule="evenodd"/>
          <polygon points="51.15 93.28 47.65 93.33 48.27 90.33 50.49 91.56 51.15 93.28" fill="#d6de23" fill-rule="evenodd"/>
          <polygon points="67.24 11.68 63.74 11.73 64.36 8.73 66.59 9.96 67.24 11.68" fill="#d6de23" fill-rule="evenodd"/>
          <polygon points="113.55 73.25 110.05 73.4 110.69 70.4 112.91 71.56 113.55 73.25" fill="#d6de23" fill-rule="evenodd"/>
          <polygon points="132.66 35.3 129.16 35.44 129.8 32.44 132.02 33.6 132.66 35.3" fill="#d6de23" fill-rule="evenodd"/>
          <polygon points="67.08 59.39 67.99 62 70.58 60.02 68.84 59 67.08 59.39" fill="#d6de23" fill-rule="evenodd"/>
          <polygon points="13.29 46.65 9.92 45.32 11.84 43.65 13.42 45.3 13.29 46.65" fill="#d6de23" fill-rule="evenodd"/>
          <polygon points="16.87 106.95 16 103.95 19.5 105.13 18.64 106.76 16.87 106.95" fill="#d6de23" fill-rule="evenodd"/>
          <polygon points="50.06 82.28 49.2 79.28 52.7 80.46 51.84 82.09 50.06 82.28" fill="#d6de23" fill-rule="evenodd"/>
          <polygon points="156.13 22.92 153.35 20.52 155.98 19.92 156.85 21.89 156.13 22.92" fill="#d6de23" fill-rule="evenodd"/>
          <polygon points="163.01 84.47 160.88 86.59 159.51 84.02 161.61 83.59 163.01 84.47" fill="#d6de23" fill-rule="evenodd"/>
          <polygon points="12.24 35.66 11.33 38.27 8.74 36.3 10.48 35.27 12.24 35.66" fill="#d6de23" fill-rule="evenodd"/>
          <polygon points="150.77 24.86 147.27 25 147.9 22 150.12 23.16 150.77 24.86" fill="#d6de23" fill-rule="evenodd"/>
          <polygon points="114.34 5.59 115.18 3.02 117.84 5.04 116.12 6.02 114.34 5.59" fill="#d6de23" fill-rule="evenodd"/>
          <polygon points="159.78 8.83 156.28 8.88 156.91 5.88 159.13 7.11 159.78 8.83" fill="#d6de23" fill-rule="evenodd"/>
          <polygon points="171.85 10.73 168.35 10.78 168.98 7.78 171.2 9.01 171.85 10.73" fill="#d6de23" fill-rule="evenodd"/>
          <polygon points="153.11 56.14 149.75 54.81 151.66 53.14 153.25 54.79 153.11 56.14" fill="#d6de23" fill-rule="evenodd"/>
          <polygon points="126.63 99.01 130.1 97.2 130.13 100.2 126.63 99.01" fill="#ffc10e" fill-rule="evenodd"/>
          <polygon points="162.9 25.36 166.37 23.55 166.4 26.55 162.9 25.36" fill="#ffc10e" fill-rule="evenodd"/>
          <polygon points="85.26 54.66 88.76 54.73 86.62 51.73 85.26 54.66" fill="#ffc10e" fill-rule="evenodd"/>
          <polygon points="141.04 79.03 138.26 76.54 140.88 76.03 141.76 78.01 141.04 79.03" fill="#ffc10e" fill-rule="evenodd"/>
          <polygon points="67.75 42.59 70.34 39.59 66.84 40.43 67.75 42.59" fill="#ffc10e" fill-rule="evenodd"/>
          <polygon points="171.03 53.03 168.44 50.03 171.94 50.87 171.03 53.03" fill="#ffc10e" fill-rule="evenodd"/>
          <polygon points="156.47 43.37 155.83 40.37 159.33 42.96 156.47 43.37" fill="#ffc10e" fill-rule="evenodd"/>
          <polygon points="89.47 22.51 92.94 20.71 92.97 23.71 89.47 22.51" fill="#ffc10e" fill-rule="evenodd"/>
          <polygon points="76.41 11.15 79.91 9.32 79.8 12.32 76.41 11.15" fill="#ffc10e" fill-rule="evenodd"/>
          <polygon points="75.2 68.88 78.7 68.81 76.56 71.81 75.2 68.88" fill="#ffc10e" fill-rule="evenodd"/>
          <polygon points="159.92 50.26 163.42 48.43 163.3 51.43 159.92 50.26" fill="#ffc10e" fill-rule="evenodd"/>
          <polygon points="137.77 21.59 141.27 19.76 141.16 22.76 137.77 21.59" fill="#ffc10e" fill-rule="evenodd"/>
          <polygon points="95 7.51 98.5 5.68 98.38 8.68 95 7.51" fill="#ffc10e" fill-rule="evenodd"/>
          <polygon points="169.96 34.88 173.46 33.04 173.35 36.04 169.96 34.88" fill="#ffc10e" fill-rule="evenodd"/>
          <polygon points="167.95 25.39 171.45 23.55 171.34 26.55 167.95 25.39" fill="#ffc10e" fill-rule="evenodd"/>
          <polygon points="79.67 27.66 76.34 26.39 78.3 24.66 79.84 26.29 79.67 27.66" fill="#ffc10e" fill-rule="evenodd"/>
          <polygon points="6.81 31.03 5.95 28.03 9.45 29.21 8.58 30.85 6.81 31.03" fill="#ffc10e" fill-rule="evenodd"/>
          <polygon points="13.43 103.32 16.02 100.32 12.52 101.16 13.43 103.32" fill="#ffc10e" fill-rule="evenodd"/>
          <polygon points="23.69 88.92 23.05 85.92 26.55 88.51 23.69 88.92" fill="#ffc10e" fill-rule="evenodd"/>
          <polygon points="14.11 90.99 11.51 87.99 15.01 88.89 14.11 90.99" fill="#ffc10e" fill-rule="evenodd"/>
          <polygon points="61.95 83.19 61.36 80.19 64.86 82.74 61.95 83.19" fill="#ffc10e" fill-rule="evenodd"/>
          <polygon points="140.54 86.11 139.62 83.11 143.12 84.39 142.3 85.98 140.54 86.11" fill="#ffc10e" fill-rule="evenodd"/>
          <polygon points="23.25 17.53 19.75 19.36 19.87 16.36 23.25 17.53" fill="#ffc10e" fill-rule="evenodd"/>
          <polygon points="12.19 7.09 8.69 8.92 8.8 5.92 12.19 7.09" fill="#ffc10e" fill-rule="evenodd"/>
          <polygon points="153.78 79.62 150.28 79.69 152.42 76.69 153.78 79.62" fill="#ffc10e" fill-rule="evenodd"/>
          <polygon points="119.58 66.34 116.08 66.41 118.22 63.41 119.58 66.34" fill="#ffc10e" fill-rule="evenodd"/>
          <polygon points="44.28 34.05 41.69 31.05 45.19 31.89 44.28 34.05" fill="#ffc10e" fill-rule="evenodd"/>
          <polygon points="29.19 64.42 26.6 61.42 30.1 62.25 29.19 64.42" fill="#ffc10e" fill-rule="evenodd"/>
          <polygon points="15.64 117.39 15 114.39 18.5 116.98 15.64 117.39" fill="#ffc10e" fill-rule="evenodd"/>
          <polygon points="27.18 22.66 24.59 19.66 28.09 20.5 27.18 22.66" fill="#ffc10e" fill-rule="evenodd"/>
          <polygon points="63.93 36.73 63.28 33.73 66.78 36.32 63.93 36.73" fill="#ffc10e" fill-rule="evenodd"/>
          <polygon points="57.78 43.32 60.18 42.58 61.28 45.58 57.78 43.32" fill="#ffc10e" fill-rule="evenodd"/>
          <polygon points="102.63 65.46 99.13 63.41 102.17 62.46 102.63 65.46" fill="#ffc10e" fill-rule="evenodd"/>
          <polygon points="96.59 79.69 93.09 77.64 96.14 76.69 96.59 79.69" fill="#ffc10e" fill-rule="evenodd"/>
          <polygon points="164.55 43.34 163.96 40.34 167.46 42.88 164.55 43.34" fill="#ffc10e" fill-rule="evenodd"/>
          <polygon points="149.43 14.9 148.78 11.9 152.28 14.5 149.43 14.9" fill="#ffc10e" fill-rule="evenodd"/>
          <polygon points="147.91 53.13 145.84 55.83 144.41 52.83 147.91 53.13" fill="#ffc10e" fill-rule="evenodd"/>
          <polygon points="100.57 36.99 97.07 34.83 100.1 33.99 100.57 36.99" fill="#ffc10e" fill-rule="evenodd"/>
          <polygon points="140.81 74 137.31 71.84 140.34 71 140.81 74" fill="#ffc10e" fill-rule="evenodd"/>
          <polygon points="78.49 21.81 74.99 19.76 78.03 18.81 78.49 21.81" fill="#ffc10e" fill-rule="evenodd"/>
          <polygon points="140.4 40.5 139.78 37.5 143.28 40.06 140.4 40.5" fill="#ffc10e" fill-rule="evenodd"/>
          <polygon points="117.24 34.83 116.6 31.83 120.1 34.42 117.24 34.83" fill="#ffc10e" fill-rule="evenodd"/>
          <polygon points="126.29 42.42 125.65 39.42 129.15 42.02 126.29 42.42" fill="#ffc10e" fill-rule="evenodd"/>
          <polygon points="161.98 28.45 158.48 26.4 161.52 25.45 161.98 28.45" fill="#ffc10e" fill-rule="evenodd"/>
          <polygon points="125.29 67.09 124.64 64.09 128.14 66.69 125.29 67.09" fill="#ffc10e" fill-rule="evenodd"/>
          <polygon points="86.43 64.42 86.2 62.2 82.93 61.42 86.43 64.42" fill="#ffc10e" fill-rule="evenodd"/>
          <polygon points="30.53 56.67 33.12 59.67 29.62 58.83 30.53 56.67" fill="#ffc10e" fill-rule="evenodd"/>
          <polygon points="130.32 10.16 129.67 7.16 133.17 9.75 130.32 10.16" fill="#ffc10e" fill-rule="evenodd"/>
          <polygon points="166.3 93.83 167.91 93.08 164.41 90.83 166.3 93.83" fill="#ffc10e" fill-rule="evenodd"/>
          <polygon points="69.99 50.93 69.41 47.93 72.91 50.47 69.99 50.93" fill="#ffc10e" fill-rule="evenodd"/>
          <polygon points="101.36 71.84 100.5 68.84 104 70.02 103.14 71.65 101.36 71.84" fill="#ffc10e" fill-rule="evenodd"/>
          <polygon points="71.37 14.26 67.87 14.53 68.58 11.53 70.77 12.6 71.37 14.26" fill="#ffc10e" fill-rule="evenodd"/>
          <polygon points="156.87 34.19 153.37 34.46 154.09 31.46 156.27 32.53 156.87 34.19" fill="#ffc10e" fill-rule="evenodd"/>
          <polygon points="13.93 61.02 10.43 61.07 11.05 58.07 13.28 59.3 13.93 61.02" fill="#ffc10e" fill-rule="evenodd"/>
          <polygon points="55.65 25.51 57.26 24.76 53.76 22.51 55.65 25.51" fill="#f16522" fill-rule="evenodd"/>
          <polygon points="60.79 74.83 64.29 74.95 64.26 71.95 60.79 74.83" fill="#f16522" fill-rule="evenodd"/>
          <polygon points="146.97 47.34 148.8 46.49 145.3 44.34 146.97 47.34" fill="#f16522" fill-rule="evenodd"/>
          <polygon points="115.65 37.99 117.45 39.94 119.15 37.13 117.16 36.94 115.65 37.99" fill="#f16522" fill-rule="evenodd"/>
          <polygon points="86.62 48.28 88.44 47.44 84.94 45.28 86.62 48.28" fill="#f16522" fill-rule="evenodd"/>
          <polygon points="81.69 23.18 85.19 24.99 82.27 26.18 81.69 23.18" fill="#f16522" fill-rule="evenodd"/>
          <polygon points="100.99 42.53 100.64 45.53 97.49 44.24 100.99 42.53" fill="#f16522" fill-rule="evenodd"/>
          <polygon points="141.26 87.13 140.84 90.13 137.76 88.9 141.26 87.13" fill="#f16522" fill-rule="evenodd"/>
          <polygon points="106.83 18.02 103.5 19.29 105.46 21.02 107 19.39 106.83 18.02" fill="#f16522" fill-rule="evenodd"/>
          <polygon points="12.19 73.69 10.49 71.99 8.69 74.99 12.19 73.69" fill="#f16522" fill-rule="evenodd"/>
          <polygon points="49.41 14.95 47.64 13.16 45.91 16.16 49.41 14.95" fill="#f16522" fill-rule="evenodd"/>
          <polygon points="58.27 92.88 58.05 90.74 54.77 89.88 58.27 92.88" fill="#f16522" fill-rule="evenodd"/>
          <path d="M13.12,132.39l-1.61-1.64-.51.61-.43.54-.35.47-.19.28-.08.12-.13.23-.1.2a.36.36,0,0,0,0,.09l0,.15a.26.26,0,0,0,0,.24c.14.15.62,0,1.44-.31l.37-.16.42-.2.45-.22Z" fill="#f16522" fill-rule="evenodd"/>
          <polygon points="68.33 57.77 68.09 55.55 64.83 54.77 68.33 57.77" fill="#f16522" fill-rule="evenodd"/>
          <polygon points="74.89 45.28 78.39 46.38 77.31 48.28 74.89 45.28" fill="#f16522" fill-rule="evenodd"/>
          <polygon points="12.52 12.99 14.94 12.34 16.02 15.34 12.52 12.99" fill="#f16522" fill-rule="evenodd"/>
          <polygon points="11.51 28.17 13.93 27.52 15.01 30.52 11.51 28.17" fill="#f16522" fill-rule="evenodd"/>
          <polygon points="9.5 115.5 13 116.6 11.92 118.5 9.5 115.5" fill="#f16522" fill-rule="evenodd"/>
          <polygon points="14.53 83.17 16.93 82.44 18.03 85.44 14.53 83.17" fill="#f16522" fill-rule="evenodd"/>
          <polygon points="50.74 31.2 54.24 30.11 53.17 28.2 50.74 31.2" fill="#f16522" fill-rule="evenodd"/>
          <polygon points="161.06 76.71 159.01 75.92 157.56 78.92 161.06 76.71" fill="#f16522" fill-rule="evenodd"/>
          <polygon points="96.68 89.95 94.7 89.2 93.18 92.2 96.68 89.95" fill="#f16522" fill-rule="evenodd"/>
          <polygon points="10.26 52.96 11.71 50.28 13.76 53.28 10.26 52.96" fill="#f16522" fill-rule="evenodd"/>
          <polygon points="153.1 26.39 154.55 23.71 156.6 26.71 153.1 26.39" fill="#f16522" fill-rule="evenodd"/>
          <polygon points="144.29 60.47 147.79 61.56 146.72 63.47 144.29 60.47" fill="#f16522" fill-rule="evenodd"/>
          <polygon points="156.36 14.92 159.86 16.08 158.86 17.92 156.36 14.92" fill="#f16522" fill-rule="evenodd"/>
          <polygon points="51.75 3.53 55.25 4.63 54.17 6.53 51.75 3.53" fill="#f16522" fill-rule="evenodd"/>
          <polygon points="120.55 31.6 117.05 31.66 117.68 28.66 119.9 29.88 120.55 31.6" fill="#f16522" fill-rule="evenodd"/>
          <polygon points="89.64 11.19 87.66 10.44 86.14 13.44 89.64 11.19" fill="#f16522" fill-rule="evenodd"/>
          <polygon points="47.39 26.38 45.41 25.62 43.89 28.62 47.39 26.38" fill="#f16522" fill-rule="evenodd"/>
          <polygon points="17.21 8.38 15.17 7.6 13.71 10.6 17.21 8.38" fill="#f16522" fill-rule="evenodd"/>
          <polygon points="75.56 64.37 73.51 63.59 72.06 66.59 75.56 64.37" fill="#f16522" fill-rule="evenodd"/>
          <polygon points="108.08 77.7 111.58 76.61 110.5 74.7 108.08 77.7" fill="#f16522" fill-rule="evenodd"/>
          <polygon points="41.96 85.16 41.04 82.16 44.54 83.44 43.72 85.04 41.96 85.16" fill="#f16522" fill-rule="evenodd"/>
          <polygon points="153.01 95.61 151.25 93.82 149.51 96.82 153.01 95.61" fill="#f16522" fill-rule="evenodd"/>
          <polygon points="21.05 44.27 18.65 43.53 17.55 46.53 21.05 44.27" fill="#f16522" fill-rule="evenodd"/>
          <polygon points="43.7 56.83 47.2 55.67 46.2 53.83 43.7 56.83" fill="#f16522" fill-rule="evenodd"/>
          <polygon points="78.91 4.48 82.41 5.64 81.41 7.48 78.91 4.48" fill="#f16522" fill-rule="evenodd"/>
          <polygon points="28.33 75.63 29.77 73.06 31.83 76.06 28.33 75.63" fill="#f16522" fill-rule="evenodd"/>
          <polygon points="5.48 17.77 8.98 18.93 7.97 20.77 5.48 17.77" fill="#f16522" fill-rule="evenodd"/>
          <polygon points="22.33 25.44 23.78 22.77 25.83 25.77 22.33 25.44" fill="#f16522" fill-rule="evenodd"/>
          <polygon points="157.37 105.07 160.87 106.22 159.87 108.07 157.37 105.07" fill="#f16522" fill-rule="evenodd"/>
          <polygon points="151.09 38.73 152.53 36.05 154.59 39.05 151.09 38.73" fill="#f16522" fill-rule="evenodd"/>
          <polygon points="5.48 47.18 8.98 48.34 7.97 50.18 5.48 47.18" fill="#f16522" fill-rule="evenodd"/>
          <polygon points="165.13 83.22 166.58 80.66 168.63 83.66 165.13 83.22" fill="#f16522" fill-rule="evenodd"/>
          <polygon points="143.29 5.43 146.79 6.53 145.71 8.43 143.29 5.43" fill="#f16522" fill-rule="evenodd"/>
          <polygon points="138.26 9.23 141.76 10.38 140.75 12.23 138.26 9.23" fill="#f16522" fill-rule="evenodd"/>
          <polygon points="35.41 12.15 36.85 9.48 38.91 12.48 35.41 12.15" fill="#f16522" fill-rule="evenodd"/>
          <polygon points="173.95 72.01 173.72 69.79 170.45 69.01 173.95 72.01" fill="#f16522" fill-rule="evenodd"/>
          <polygon points="93.77 31.3 91.09 29.22 93.84 28.3 94.59 30.16 93.77 31.3" fill="#008daf" fill-rule="evenodd"/>
          <polygon points="69.61 18.96 66.99 16.98 69.82 15.96 70.49 17.8 69.61 18.96" fill="#008daf" fill-rule="evenodd"/>
          <polygon points="85.52 41.74 87.42 39.74 89.02 42.47 86.99 42.74 85.52 41.74" fill="#008daf" fill-rule="evenodd"/>
          <polygon points="79.11 56.58 82.61 56.38 81.97 59.38 79.75 58.26 79.11 56.58" fill="#008daf" fill-rule="evenodd"/>
          <polygon points="124.7 48.37 126.51 46.42 128.21 49.23 126.21 49.42 124.7 48.37" fill="#008daf" fill-rule="evenodd"/>
          <polygon points="27.81 67.02 31.31 66.82 30.66 69.82 28.45 68.7 27.81 67.02" fill="#008daf" fill-rule="evenodd"/>
          <polygon points="14.36 94.72 14.89 92.28 17.86 94.48 16.23 95.28 14.36 94.72" fill="#008daf" fill-rule="evenodd"/>
          <polygon points="57.61 63.41 58.15 60.97 61.11 63.16 59.48 63.97 57.61 63.41" fill="#008daf" fill-rule="evenodd"/>
          <polygon points="48.94 84.1 52.44 83.9 51.79 86.9 49.57 85.78 48.94 84.1" fill="#008daf" fill-rule="evenodd"/>
          <polygon points="159.21 58.66 159.74 56.23 162.71 58.42 161.08 59.23 159.21 58.66" fill="#008daf" fill-rule="evenodd"/>
          <polygon points="138.11 44.45 138.74 41.96 141.61 44.09 139.95 44.96 138.11 44.45" fill="#008daf" fill-rule="evenodd"/>
          <polygon points="112.94 21.66 113.47 19.22 116.44 21.41 114.81 22.22 112.94 21.66" fill="#008daf" fill-rule="evenodd"/>
          <polygon points="129.05 27.29 129.69 29.78 132.55 27.65 130.9 26.78 129.05 27.29" fill="#008daf" fill-rule="evenodd"/>
          <polygon points="101.3 49.9 104.8 49.63 104.08 52.63 101.9 51.56 101.3 49.9" fill="#008daf" fill-rule="evenodd"/>
          <polygon points="12.29 42.69 9.61 40.6 12.36 39.69 13.11 41.55 12.29 42.69" fill="#008daf" fill-rule="evenodd"/>
          <polygon points="27.92 19.65 27.05 16.65 30.55 17.85 29.7 19.48 27.92 19.65" fill="#008daf" fill-rule="evenodd"/>
          <polygon points="39.95 7.35 39.03 4.35 42.53 5.63 41.71 7.22 39.95 7.35" fill="#008daf" fill-rule="evenodd"/>
          <polygon points="42.17 21.44 40.37 23.39 38.67 20.59 40.67 20.39 42.17 21.44" fill="#008daf" fill-rule="evenodd"/>
          <polygon points="161.16 73.05 158.48 70.97 161.24 70.05 161.98 71.92 161.16 73.05" fill="#008daf" fill-rule="evenodd"/>
          <polygon points="48 53.85 47.08 50.85 50.58 52.13 49.76 53.72 48 53.85" fill="#008daf" fill-rule="evenodd"/>
          <polygon points="8.26 25.61 5.58 23.52 8.34 22.61 9.08 24.47 8.26 25.61" fill="#008daf" fill-rule="evenodd"/>
          <polygon points="74.55 9.16 72.85 7.46 71.05 10.46 74.55 9.16" fill="#008daf" fill-rule="evenodd"/>
          <polygon points="43.18 64.2 40.78 63.46 39.68 66.46 43.18 64.2" fill="#008daf" fill-rule="evenodd"/>
          <polygon points="159.38 63.31 162.88 64.41 161.81 66.31 159.38 63.31" fill="#008daf" fill-rule="evenodd"/>
          <polygon points="80.67 83.59 77.48 82.64 79.62 80.59 80.98 82.13 80.67 83.59" fill="#008daf" fill-rule="evenodd"/>
          <polygon points="112.42 64.25 111.55 61.25 115.05 62.45 114.19 64.08 112.42 64.25" fill="#008daf" fill-rule="evenodd"/>
          <polygon points="162.72 35.79 161.84 32.79 165.34 33.98 164.49 35.61 162.72 35.79" fill="#008daf" fill-rule="evenodd"/>
          <polygon points="40.46 70.32 37.21 69.3 39.27 67.32 40.71 68.89 40.46 70.32" fill="#008daf" fill-rule="evenodd"/>
          <polygon points="150.6 103.19 149.68 100.19 153.18 101.47 152.36 103.06 150.6 103.19" fill="#008daf" fill-rule="evenodd"/>
          <polygon points="109.36 38.67 108.44 35.67 111.94 36.95 111.12 38.54 109.36 38.67" fill="#008daf" fill-rule="evenodd"/>
          <polygon points="164.69 24.43 163.76 21.43 167.26 22.71 166.44 24.31 164.69 24.43" fill="#008daf" fill-rule="evenodd"/>
          <polygon points="45.99 41.51 45.06 38.51 48.56 39.79 47.74 41.39 45.99 41.51" fill="#008daf" fill-rule="evenodd"/>
          <polygon points="80.19 36.77 79.27 33.77 82.77 35.05 81.94 36.64 80.19 36.77" fill="#008daf" fill-rule="evenodd"/>
          <polygon points="170.06 76.67 169.53 79.11 166.56 76.92 168.19 76.11 170.06 76.67" fill="#008daf" fill-rule="evenodd"/>
          <polygon points="27.24 29.23 26.7 31.66 23.74 29.47 25.36 28.66 27.24 29.23" fill="#008daf" fill-rule="evenodd"/>
          <polygon points="31.13 14.26 27.63 14.53 28.34 11.53 30.53 12.6 31.13 14.26" fill="#008daf" fill-rule="evenodd"/>
          <polygon points="138.57 50.97 137.7 47.97 141.2 49.17 140.35 50.79 138.57 50.97" fill="#008daf" fill-rule="evenodd"/>
          <polygon points="105.82 10.52 102.63 9.58 104.77 7.52 106.13 9.06 105.82 10.52" fill="#008daf" fill-rule="evenodd"/>
          <polygon points="117.41 79.47 116.48 76.47 119.98 77.75 119.16 79.34 117.41 79.47" fill="#008daf" fill-rule="evenodd"/>
          <polygon points="122.44 24.43 121.51 21.43 125.01 22.71 124.19 24.31 122.44 24.43" fill="#008daf" fill-rule="evenodd"/>
          <polygon points="120.63 9.23 120.4 11.45 117.13 12.23 120.63 9.23" fill="#008daf" fill-rule="evenodd"/>
          <polygon points="147.63 31.99 146.75 28.99 150.25 30.19 149.4 31.82 147.63 31.99" fill="#008daf" fill-rule="evenodd"/>
          <polygon points="21.33 54.07 18.71 52.08 21.53 51.07 22.21 52.91 21.33 54.07" fill="#008daf" fill-rule="evenodd"/>
          <polygon points="22.08 64.55 18.58 64.82 19.29 61.82 21.48 62.9 22.08 64.55" fill="#008daf" fill-rule="evenodd"/>
          <polygon points="28.53 42.69 31.21 40.6 28.46 39.69 27.71 41.55 28.53 42.69" fill="#008daf" fill-rule="evenodd"/>
          <polygon points="26.6 52.84 29.02 52.19 30.1 55.19 26.6 52.84" fill="#008daf" fill-rule="evenodd"/>
          <polygon points="13.3 28.57 10.05 27.54 12.11 25.57 13.55 27.14 13.3 28.57" fill="#008daf" fill-rule="evenodd"/>
          <polygon points="137.97 81.33 139.42 78.76 141.47 81.76 137.97 81.33" fill="#008daf" fill-rule="evenodd"/>
          <polygon points="128.2 65.21 131.7 66.37 130.69 68.21 128.2 65.21" fill="#008daf" fill-rule="evenodd"/>
          <polygon points="92.99 11.12 96.49 12.22 95.42 14.12 92.99 11.12" fill="#008daf" fill-rule="evenodd"/>
        </g>
      </g>
    </symbol>
    <symbol id="Trophy" data-name="Trophy" viewBox="0 0 100.38 120">
      <path d="M97.39,12.1c-3.06-2.49-8.22-3-16-1.73l.43-6.09a4,4,0,0,0-4-4.28H23.22a4,4,0,0,0-4,4.28l.44,6.24C11.49,9,6.14,9.51,3,12.06a8.09,8.09,0,0,0-3,6.71c.15,9,2,15.05,4.39,22a27.3,27.3,0,0,0,6.48,11,15.63,15.63,0,0,0,11.38,4.54h2.3a34.59,34.59,0,0,0,5.72,10.19,26.15,26.15,0,0,0,14.48,9.07v9.49A22.18,22.18,0,0,0,29.58,98.73l-.5,1.27H24.75a7.5,7.5,0,0,0-7.5,7.5v5a7.5,7.5,0,0,0,7.5,7.5h50a7.5,7.5,0,0,0,7.5-7.5v-5a7.5,7.5,0,0,0-7.5-7.5H70.69l-.5-1.27A22.17,22.17,0,0,0,54.75,85V75.88a25.91,25.91,0,0,0,16-9.33,34.61,34.61,0,0,0,5.73-10.19h1.75a16.33,16.33,0,0,0,11.65-4.5,27.44,27.44,0,0,0,6.7-11,62.49,62.49,0,0,0,3.75-22A8.15,8.15,0,0,0,97.39,12.1ZM16.07,46.42a20.46,20.46,0,0,1-4.59-8.05c-2.25-6.56-3.85-11.82-4-19.72h0c0-.59.12-.69.19-.75s1-.73,3.93-.73A39.35,39.35,0,0,1,19,18l2,27.8c.1,1.06.25,2.07.43,3A8,8,0,0,1,16.07,46.42Zm73.49-8.11a20.43,20.43,0,0,1-4.75,8.06,8.62,8.62,0,0,1-5.9,2.48c.19-1,.34-2,.47-3.07L81.48,18c8.62-1.64,10.81-.34,11.18,0,.09.07.23.19.22.8C92.74,26.74,91.9,31.68,89.56,38.31Z" fill="#fd9757"/>
      <path d="M62.52,100H37.25a14.3,14.3,0,0,1,12.63-8.09A14.31,14.31,0,0,1,62.52,100Zm-37.77,7.5v5h50v-5ZM38,60.14a16,16,0,0,0,25.18,0,27.53,27.53,0,0,0,5.73-14L71.42,10H29.66l2.56,36.15A27.45,27.45,0,0,0,38,60.14Z" fill="#ff6607"/>
    </symbol>
    <symbol id="Star" data-name="Star" viewBox="0 0 9.53 8.69">
      <path d="M7.45,8.69a.45.45,0,0,1-.2,0L4.77,7.4,2.28,8.65a.45.45,0,0,1-.45,0,.43.43,0,0,1-.17-.4l.48-2.64-2-1.87A.39.39,0,0,1,0,3.29.43.43,0,0,1,.36,3l2.78-.38L4.38.23A.44.44,0,0,1,4.77,0a.43.43,0,0,1,.38.23l1.24,2.4L9.17,3a.43.43,0,0,1,.34.28.39.39,0,0,1-.11.42l-2,1.87L7.86,8.2a.28.28,0,0,1,0,.09.41.41,0,0,1-.42.4Z" fill="#ffc19b" fill-rule="evenodd"/>
    </symbol>
    <symbol id="Star_Active" data-name="Star Active" viewBox="0 0 9.53 8.69">
      <path d="M7.45,8.69a.45.45,0,0,1-.2,0L4.77,7.4,2.28,8.65a.45.45,0,0,1-.45,0,.43.43,0,0,1-.17-.4l.48-2.64-2-1.87A.39.39,0,0,1,0,3.29.43.43,0,0,1,.36,3l2.78-.38L4.38.23A.44.44,0,0,1,4.77,0a.43.43,0,0,1,.38.23l1.24,2.4L9.17,3a.43.43,0,0,1,.34.28.39.39,0,0,1-.11.42l-2,1.87L7.86,8.2a.28.28,0,0,1,0,.09.41.41,0,0,1-.42.4Z" fill="#fff" fill-rule="evenodd"/>
    </symbol>
    <symbol id="Star_Arch_2" data-name="Star Arch 2" viewBox="0 0 34.8 12.7">
      <use width="9.53" height="8.69" transform="translate(25.27 4.01)" xlink:href="#Star"/>
      <use width="9.53" height="8.69" transform="translate(0 3.97)" xlink:href="#Star_Active"/>
      <use width="9.53" height="8.69" transform="translate(12.66)" xlink:href="#Star_Active"/>
    </symbol>
  </defs>
  <g id="Milestone_Post_Quit_Week_2" data-name="Milestone Post Quit Week 2">
    <use width="327" height="218" xlink:href="#Backdrop"/>
    <path id="Blob" d="M183.35,25.6c26.9,0,66.67,17.45,66.67,74s-61.16,53.35-78.5,21.53S109.64,75.5,117.64,54.61,156.46,25.6,183.35,25.6Zm-106,97.82c-3.91-33,26-29.79,46.41-13.52l.61.48c20.1,15.76,32.55,15.17,45.42,38.67,13,23.74-11.34,44.5-32.17,43.3S81.24,156.46,77.33,123.42Z" fill="#fff1e8" fill-rule="evenodd"/>
    <use width="180" height="180" transform="translate(73.5 19.99)" xlink:href="#Confetti"/>
    <use width="100.38" height="120" transform="translate(113.31 49)" xlink:href="#Trophy"/>
    <use width="34.8" height="12.7" transform="translate(146.1 64.87)" xlink:href="#Star_Arch_2"/>
  </g>
</svg>
