<svg xmlns="http://www.w3.org/2000/svg" xmlns:xlink="http://www.w3.org/1999/xlink" viewBox="0 0 327 218">
  <defs>
    <symbol id="Backdrop" data-name="Backdrop" viewBox="0 0 327 218">
      <rect id="Backdrop-3" data-name="Backdrop" width="327" height="218" rx="8" fill="#fff"/>
    </symbol>
    <symbol id="Lungs" data-name="Lungs" viewBox="0 0 145.07 118.28">
      <g id="Lungs-3" data-name="Lungs">
        <path id="Path" d="M22.68,116.93l15.88-2.82c9-1.6,15.6-9.9,15.6-19.62v-70c0-4.23-4.18-7.65-9.34-7.65H43c-18.92,0-34.86,15.07-37.1,35.09L1.06,95A20.67,20.67,0,0,0,6.72,111.7,17.93,17.93,0,0,0,22.68,116.93Z" fill="#ffc09a"/>
        <path id="Path-2" data-name="Path" d="M44.1,107.66l-3.54.64a26.3,26.3,0,0,1-23.68-7.9A31.55,31.55,0,0,1,8.51,75.12L11.8,45.06a41.7,41.7,0,0,1,7.76-19.35A40.81,40.81,0,0,0,4.88,52.57L.13,95.89a21,21,0,0,0,5.58,16.85A17.55,17.55,0,0,0,21.5,118l15.69-2.84a18.55,18.55,0,0,0,13-9.85A17.31,17.31,0,0,1,44.1,107.66Z" fill="#fd9757"/>
        <path id="Path-3" data-name="Path" d="M123.32,116.93l-15.87-2.82c-9-1.6-15.61-9.9-15.61-19.62v-70c0-4.23,4.18-7.65,9.34-7.65H103c18.92,0,34.86,15.07,37.1,35.09l4.81,43a20.7,20.7,0,0,1-5.65,16.75A18,18,0,0,1,123.32,116.93Z" fill="#ffc09a"/>
        <path id="Path-4" data-name="Path" d="M129.89,109.45l-.26,0C111.82,106.19,98.77,89.55,98.76,70v-53c-4,.85-6.92,3.59-6.92,7.16V94.42c0,9.76,6.53,18.08,15.43,19.68L123,116.93c7.63,1.38,15.25-2.55,19.07-9.82A17.18,17.18,0,0,1,129.89,109.45Z" fill="#fd9757"/>
        <rect id="Rectangle" x="65.94" width="14.13" height="42.58" fill="#ffc09a"/>
        <path id="Path-5" data-name="Path" d="M73,28.39V0H65.94V42.58H80.06V34.07H77.71C75.11,34.07,73,31.52,73,28.39Z" fill="#fd9757"/>
        <polygon id="Path-6" data-name="Path" points="65.94 26.1 54.16 37.87 54.16 54.36 65.94 42.58 65.94 26.1" fill="#ffc09a"/>
        <polygon id="Path-7" data-name="Path" points="61.23 47.29 65.94 42.58 65.94 26.1 61.23 30.81 61.23 47.29" fill="#fd9757"/>
        <polygon id="Path-8" data-name="Path" points="80.06 26.1 91.84 37.87 91.84 54.36 80.06 42.58 80.06 26.1" fill="#ffc09a"/>
        <polygon id="Path-9" data-name="Path" points="84.77 47.29 80.06 42.58 80.06 26.1 84.77 30.81 84.77 47.29" fill="#fd9757"/>
      </g>
    </symbol>
    <symbol id="Sparkles" data-name="Sparkles" viewBox="0 0 132.75 120.94">
      <g id="Graphic">
        <path id="Path-10" data-name="Path" d="M118.71,22.64l.33-.81.28-.7.39-1.06.43-1.21.47-1.34.76-2.29,1-3.07.94-3,.32-1.07,1,3.09.89,2.76.67,2.06.5,1.49.47,1.34.43,1.21.39,1.06.28.7.33.82a26.76,26.76,0,0,0,4.21,6.77l-.43.51a26.71,26.71,0,0,0-3.78,6.26l-.33.81-.28.7-.39,1.07-.43,1.2-.47,1.35-.76,2.28-1,3.07-.94,3-.33,1.06-1-3.08-.89-2.77-.67-2.06L120.49,41l-.35-1-.43-1.2-.39-1.07L119,37l-.25-.62c0-.07-.06-.13-.08-.19a26.71,26.71,0,0,0-3.78-6.26l-.43-.51A26.37,26.37,0,0,0,118.71,22.64Z" fill="#fd6" fill-rule="evenodd"/>
      </g>
      <g id="Graphic-2" data-name="Graphic">
        <path id="Path-11" data-name="Path" d="M88,70.48l.19-.46.16-.4L88.6,69l.25-.69.28-.77.44-1.3.58-1.75.54-1.71.2-.6L91.45,64,92,65.53l.39,1.17.29.85.28.77.25.69.23.61.16.4.2.46a14.5,14.5,0,0,0,2.45,3.87l-.25.3a14.94,14.94,0,0,0-2.2,3.57l-.2.47-.16.4-.23.61-.25.68-.28.77-.44,1.31-.58,1.75-.54,1.7-.19.61-.56-1.76-.52-1.58L89.42,82l-.36-1-.21-.57-.25-.68-.23-.61-.16-.4-.15-.36,0-.11a15.3,15.3,0,0,0-2.21-3.57l-.25-.3A14.78,14.78,0,0,0,88,70.48Z" fill="#fd6" fill-rule="evenodd"/>
      </g>
      <g id="Graphic-3" data-name="Graphic">
        <path id="Path-12" data-name="Path" d="M3.5,11.93l.28-.67L4,10.68l.33-.87.36-1,.39-1.1.64-1.88.82-2.52L7.33.87,7.6,0l.8,2.53L9.14,4.8,9.7,6.49l.42,1.23.39,1.1.35,1,.34.87.22.58.28.67a22,22,0,0,0,3.51,5.56l-.36.42a21.51,21.51,0,0,0-3.15,5.14l-.28.67-.22.58-.34.87-.35,1-.39,1.1-.64,1.88-.82,2.52-.78,2.45L7.6,35l-.8-2.53-.73-2.27-.56-1.69L5,27l-.29-.82-.36-1L4,24.3l-.23-.58-.21-.51a.77.77,0,0,0-.07-.16A21.67,21.67,0,0,0,.36,17.91L0,17.49A21.64,21.64,0,0,0,3.5,11.93Z" fill="#fd6" fill-rule="evenodd"/>
      </g>
      <g id="Graphic-4" data-name="Graphic">
        <path id="Path-13" data-name="Path" d="M19.41,92.87l.34-.81.27-.7.4-1.06.43-1.21.47-1.34.76-2.29,1-3.07.93-3,.33-1.07,1,3.09.88,2.76.68,2.06.5,1.49.47,1.34.43,1.21.39,1.06.28.7.33.81a26.37,26.37,0,0,0,4.21,6.78l-.43.51a26.37,26.37,0,0,0-3.78,6.26l-.33.81-.28.7L28.25,109l-.43,1.2-.47,1.34-.76,2.29-1,3.07-.94,3-.33,1.07-1-3.09-.88-2.76L21.82,113l-.62-1.83-.35-1-.43-1.2-.4-1.07-.27-.7-.26-.62a1.08,1.08,0,0,0-.08-.19,26.34,26.34,0,0,0-3.77-6.26l-.43-.51A26.34,26.34,0,0,0,19.41,92.87Z" fill="#fd6" fill-rule="evenodd"/>
      </g>
    </symbol>
  </defs>
  <g id="Milestone_Lung_Recovery" data-name="Milestone Lung Recovery">
    <use width="327" height="218" transform="translate(-0.37 0.56) rotate(-0.2)" xlink:href="#Backdrop"/>
    <path id="Blob" d="M245.42,194.81c68.7-40.08,70.86-73.58,40.13-116.36S189.7,44.88,139.07,14.27,22.5,48.37,22.5,123.91,176.71,234.89,245.42,194.81Z" fill="#fff1e8" fill-rule="evenodd"/>
    <use width="145.07" height="118.28" transform="translate(90.97 49.86)" xlink:href="#Lungs"/>
    <use width="132.75" height="120.94" transform="translate(102.13 53.53)" xlink:href="#Sparkles"/>
  </g>
</svg>
