<svg xmlns="http://www.w3.org/2000/svg" xmlns:xlink="http://www.w3.org/1999/xlink" viewBox="0 0 327 218">
  <defs>
    <symbol id="Backdrop" data-name="Backdrop" viewBox="0 0 327 218">
      <rect id="Backdrop-3" data-name="Backdrop" width="327" height="218" rx="8" fill="#fff"/>
    </symbol>
    <symbol id="Blob_1-2" data-name="Blob 1" viewBox="0 0 293 184">
      <path id="Blob" d="M189.42,176.39C269.66,152.28,327,44.81,270,9.79S149.57,44.94,96.4,44.94,0,57.88,0,111,109.17,200.51,189.42,176.39Z" fill="#fff1e8" fill-rule="evenodd"/>
    </symbol>
    <symbol id="Wall_Shelf" data-name="Wall Shelf" viewBox="0 0 100 42">
      <g id="Wall_Shelf-3" data-name="Wall Shelf">
        <g id="Picture_Frame" data-name="Picture Frame">
          <path id="Frame" d="M42.43,0H40.72L37.79,29.83H60.94L63.87,0Zm1.45,25.83H42.21L44.35,4H59.46L57.32,25.83Z" fill="#ffcbab"/>
          <polygon id="Picture" points="43.33 24.5 56.38 24.5 58.33 5.33 45.29 5.33 43.33 24.5" fill="#ffcbab" fill-rule="evenodd"/>
        </g>
        <g id="Picture_Frame-2" data-name="Picture Frame">
          <path id="Frame-2" data-name="Frame" d="M67.83,8.33h-2l-2.21,21.5H91.67l2.21-21.5Zm2.22,17.5h-2l1.39-13.5h20l-1.39,13.5Z" fill="#ffcbab"/>
          <polygon id="Picture-2" data-name="Picture" points="86.83 13.83 85.73 24.67 71 24.67 72.1 13.83 86.83 13.83" fill="#ffad7a" fill-rule="evenodd"/>
        </g>
        <g id="Book">
          <path d="M28,22a1.25,1.25,0,1,1,0-2.5h7.77l0,.05V22l0,.05H28m8.66-3.33H13.42a2.5,2.5,0,1,0,0,5H36.67v-5" fill="#ffae7c"/>
          <path d="M28,19.5A1.25,1.25,0,1,0,28,22h7.77a0,0,0,0,0,0-.05v-2.4a0,0,0,0,0,0-.05Z" fill="#ffcbab"/>
        </g>
        <g id="Book-2" data-name="Book">
          <path d="M33.29,22.83h-25V24.5H18.55a1.26,1.26,0,1,1,0,2.5H8.33v.83h25a2.5,2.5,0,1,0,0-5Z" fill="#ffae7c"/>
          <path d="M20,25.75a1.36,1.36,0,0,0-1.45-1.25H8.33V27H18.55A1.36,1.36,0,0,0,20,25.75Z" fill="#ffcbab"/>
        </g>
        <g id="Shelf">
          <g id="Shade_2" data-name="Shade 2">
            <rect x="85.83" y="28.67" width="14.17" height="3.33" fill="#ffa770"/>
            <polygon points="27.5 42 27.5 32 21.06 32 27.5 42" fill="#ffa770" fill-rule="evenodd"/>
            <polygon points="76.67 42 76.67 32 70.23 32 76.67 42" fill="#ffa770" fill-rule="evenodd"/>
          </g>
          <polyline id="Shade_1" data-name="Shade 1" points="85.83 28.67 0 28.67 0 32 17.5 32 23.94 42 27.5 42 21.06 32 66.67 32 73.11 42 76.67 42 70.23 32 85.83 32 85.83 28.67" fill="#ffbf97"/>
        </g>
      </g>
    </symbol>
    <symbol id="Clock" data-name="Clock" viewBox="0 0 33.08 30">
      <g>
        <path d="M18.08,0c-.52,0-1,0-1.54.08h.22a14.92,14.92,0,0,1,7.72,3.28h0l0,0a15,15,0,0,1-8,26.51c.5,0,1,.08,1.54.08a15,15,0,0,0,0-30" fill="#ffb07e"/>
        <path d="M15,26.15a11.15,11.15,0,0,1,0-22.3c.29,0,.57,0,.86,0h0l.37,0a11.16,11.16,0,0,1,9.87,10,8.71,8.71,0,0,1,0,1V15a9.29,9.29,0,0,1,0,1.06,11.16,11.16,0,0,1-9.87,10l-.37,0A11.23,11.23,0,0,1,6.15,15h0a11.23,11.23,0,0,0,9.71,11.11c-.29,0-.57,0-.86,0M15,0a15,15,0,0,0,0,30c.52,0,1,0,1.54-.08a15,15,0,0,0,8-26.51l0,0h0A14.92,14.92,0,0,0,16.76.1h-.22C16,0,15.52,0,15,0" fill="#ffbe95"/>
        <path d="M15,3.85a11.15,11.15,0,0,0,0,22.3c.29,0,.57,0,.86,0A11.23,11.23,0,0,1,6.15,15h0A11.23,11.23,0,0,1,15.86,3.89c-.29,0-.57,0-.86,0" fill="#ffb181"/>
        <path d="M17.13,14.72,14.47,8.88l1.83-.83,2.3,5.07.66-.72,1.48,1.35L19.5,15.1l.64,1.41-1.82.83L18,16.7,12.28,23,10.8,21.63l6.33-6.91M15.86,3.89h0A11.23,11.23,0,0,0,6.15,15h0a11.23,11.23,0,0,0,9.71,11.11l.37,0a11.16,11.16,0,0,0,9.87-10,9.29,9.29,0,0,0,0-1.06V15a8.71,8.71,0,0,0,0-1,11.16,11.16,0,0,0-9.87-10l-.37,0" fill="#ffc6a2"/>
        <path d="M17.13,14.72,10.8,21.63,12.28,23,18,16.7l-.9-2m2.13-2.32-.66.72.9,2,1.24-1.35L19.26,12.4" fill="#ffb181"/>
        <polyline points="16.3 8.05 14.47 8.88 17.13 14.72 18.03 16.7 18.32 17.34 20.14 16.51 19.5 15.1 18.6 13.12 16.3 8.05" fill="#ffb181"/>
      </g>
    </symbol>
    <symbol id="Chair" data-name="Chair" viewBox="0 0 94.78 71">
      <g id="Chair-3" data-name="Chair">
        <polygon id="Leg" points="15.48 56.35 9.26 71 6.43 71 10.18 55.64 15.48 56.35" fill="#fd9757" fill-rule="evenodd"/>
        <polygon id="Leg-2" data-name="Leg" points="45.54 56.35 39.32 71 36.49 71 40.24 55.64 45.54 56.35" fill="#fd9757" fill-rule="evenodd"/>
        <polygon id="Leg-3" data-name="Leg" points="94.78 71 91.96 71 85.74 56.35 91.04 55.64 94.78 71" fill="#fd9757" fill-rule="evenodd"/>
        <polygon id="Leg-4" data-name="Leg" points="62.98 71 60.16 71 53.94 56.35 59.24 55.64 62.98 71" fill="#fd9757" fill-rule="evenodd"/>
        <path id="Arm" d="M91.78,20.54V56L55,56.08,48.92,21Zm-3,3.46-36.87.4L57,54l31.76-.07Z" fill="#fd9757" fill-rule="evenodd"/>
        <g>
          <polygon id="Shadow" points="50.23 0 62.81 57 11.71 57 0 0 50.23 0" fill="#ffb78a" fill-rule="evenodd"/>
          <polygon id="Cushion" points="50.29 0 59.16 37 20.91 37 12.04 0 50.29 0" fill="#ffe9db" fill-rule="evenodd"/>
          <polygon id="Cushion-2" data-name="Cushion" points="91.78 57 46.78 57 46.78 37 91.78 37 91.78 57" fill="#ffe9db" fill-rule="evenodd"/>
        </g>
        <path id="Arm-2" data-name="Arm" d="M46.78,21.54V57L10,57.08,3.92,22Zm-3,3.46-36.87.4L12,55l31.76-.07Z" fill="#fd9757" fill-rule="evenodd"/>
      </g>
    </symbol>
    <symbol id="Plant_1" data-name="Plant 1" viewBox="0 0 49.58 100">
      <g id="Plant">
        <ellipse id="Leaf" cx="26" cy="12.5" rx="9" ry="12.5" fill="#fd9757"/>
        <ellipse id="Leaf-2" data-name="Leaf" cx="9.5" cy="37" rx="8.25" ry="11.05" transform="translate(-21.49 14.66) rotate(-39.81)" fill="#fd9757"/>
        <path id="Leaf-3" data-name="Leaf" d="M47.43,39.5,30.25,56.68c3.56,3.55,10.29,2.59,15-2.15S51,43.05,47.43,39.5Z" fill="#fd9757" fill-rule="evenodd"/>
        <polygon id="Branch" points="44.5 48.48 39.55 43.37 30 53.23 30 43.2 40.41 32.44 35.46 27.33 30 32.97 30 13 23 13 23 43.95 12.63 33.23 7.68 38.35 23 54.17 23 59.98 16.72 53.49 11.77 58.61 23 70.21 23 78 30 78 30 63.46 44.5 48.48" fill="#ffcbab"/>
        <g id="Planter">
          <path id="Pot" d="M31,100H21A14,14,0,0,1,7,86.09V73H45V86.09A14,14,0,0,1,31,100" fill="#ffe9db" fill-rule="evenodd"/>
          <rect id="Stripe" x="7" y="76" width="38" height="7" fill="#ffcbab"/>
          <rect id="Stripe-2" data-name="Stripe" x="7" y="84" width="38" height="7" fill="#ffcbab"/>
        </g>
      </g>
    </symbol>
  </defs>
  <g id="Sitting_Room" data-name="Sitting Room">
    <use width="327" height="218" xlink:href="#Backdrop"/>
    <use id="Blob_1-4" data-name="Blob 1" width="293" height="184" transform="translate(17 17)" xlink:href="#Blob_1-2"/>
    <use width="100" height="42" transform="translate(177 41)" xlink:href="#Wall_Shelf"/>
    <use width="33.08" height="30" transform="translate(144 4)" xlink:href="#Clock"/>
    <use width="94.78" height="71" transform="translate(28 118)" xlink:href="#Chair"/>
    <use width="49.58" height="100" transform="translate(247 100)" xlink:href="#Plant_1"/>
  </g>
</svg>
