<svg xmlns="http://www.w3.org/2000/svg" viewBox="0 0 24 24">
  <g id="Book">
    <path d="M20.24,21.43a.44.44,0,0,1-.44.43h-16V2.14H5.93V12a1.09,1.09,0,0,0,1.85.76l1.4-1.38,1.4,1.38a1.12,1.12,0,0,0,.77.31,1,1,0,0,0,.41-.08,1.06,1.06,0,0,0,.67-1V2.14H19.8a.44.44,0,0,1,.44.43ZM8.1,2.14h2.17V9.43L10,9.11a1.09,1.09,0,0,0-1.53,0l-.32.32Zm14.3.43A2.58,2.58,0,0,0,19.8,0H2.54A1.08,1.08,0,0,0,1.6,1.07V22.93A1.07,1.07,0,0,0,2.68,24H19.8a2.58,2.58,0,0,0,2.6-2.54h0V2.57Z" fill-rule="evenodd"/>
  </g>
</svg>
