<svg xmlns="http://www.w3.org/2000/svg" viewBox="0 0 24 24">
  <g id="Copy">
    <path d="M15.4,16.86v-8h0V8.8a.13.13,0,0,0,0-.06V8.69s0,0,0-.06v0a.14.14,0,0,0,0-.06v0l0-.06,0,0,0-.06,0,0-.05-.07v0l-.08-.09L12.32,5.31A1,1,0,0,0,12,5.09h0l-.08,0h0l-.07,0H10.72V2.17H19V3.92A1.06,1.06,0,0,0,20.07,5h1.71V16.86Zm-13.18,5V7.14h8.29V8.89A1.06,1.06,0,0,0,11.57,10h1.71V21.83ZM23.91,3.92s0,0,0,0v0a.13.13,0,0,0,0-.06v0s0,0,0-.06v0a.14.14,0,0,0,0-.06v0l0-.06,0,0,0-.06,0,0-.05-.07h0l-.08-.1L20.82.34a1,1,0,0,0-.33-.22h0l-.08,0h0l-.07,0H9.52A1.07,1.07,0,0,0,8.6,1.1V5H1A1.08,1.08,0,0,0,.09,6.07V22.9A1.07,1.07,0,0,0,1.16,24H14.34a1.06,1.06,0,0,0,.88-.47.53.53,0,0,0,.06-.1,1.06,1.06,0,0,0,.12-.5h0V19h7.44a1.06,1.06,0,0,0,.88-.47l.06-.1a1.06,1.06,0,0,0,.13-.5h0v-14Z" fill-rule="evenodd"/>
  </g>
</svg>
