<svg xmlns="http://www.w3.org/2000/svg" viewBox="0 0 24 24">
  <g id="Direction_Down" data-name="Direction Down">
    <path d="M12.71,18.49l3.36-3.32a1.06,1.06,0,0,0,0-1.5,1.07,1.07,0,0,0-1.52,0L13,15.18V6.26a1.07,1.07,0,0,0-2.14,0v8.91l-1.51-1.5a1.07,1.07,0,0,0-1.52,0,1.06,1.06,0,0,0,0,1.5l3.34,3.32A1.06,1.06,0,0,0,12.71,18.49ZM24,12A12,12,0,1,0,12,23.91,12,12,0,0,0,24,12Zm-2.14,0A9.71,9.71,0,0,1,19,18.92,9.92,9.92,0,0,1,5,18.92,9.73,9.73,0,0,1,5,5.08,9.92,9.92,0,0,1,19,5.08,9.71,9.71,0,0,1,21.86,12Z" fill-rule="evenodd"/>
  </g>
</svg>
