<svg xmlns="http://www.w3.org/2000/svg" viewBox="0 0 24 24">
  <g id="Doclist">
    <path d="M19,16.8A1.17,1.17,0,0,1,18,18.05H6.05A1.16,1.16,0,0,1,5,16.8a1.16,1.16,0,0,1,1.06-1.25H18A1.17,1.17,0,0,1,19,16.8Zm0-4.75A1.17,1.17,0,0,1,18,13.3H6.05A1.16,1.16,0,0,1,5,12.05,1.16,1.16,0,0,1,6.05,10.8H18A1.17,1.17,0,0,1,19,12.05ZM5,7.3A1.16,1.16,0,0,1,6.05,6.05H18A1.17,1.17,0,0,1,19,7.3,1.17,1.17,0,0,1,18,8.55H6.05A1.16,1.16,0,0,1,5,7.3Zm-2.77-5H21.78V21.5H2.22ZM22.84,0H1.05a1.18,1.18,0,0,0-1,1.24v21.5A1.17,1.17,0,0,0,1.16,24H22.84a1.17,1.17,0,0,0,1.07-1.25V1.25A1.17,1.17,0,0,0,22.84,0Z" fill-rule="evenodd"/>
  </g>
</svg>
