<svg xmlns="http://www.w3.org/2000/svg" viewBox="0 0 24 24">
  <g id="Filter">
    <path d="M12,23a1.1,1.1,0,1,0-1.07-1.09A1.08,1.08,0,0,0,12,23ZM21.43,7.18a1.08,1.08,0,0,1-1.07,1.1H3.64a1.1,1.1,0,0,1,0-2.19H20.36A1.08,1.08,0,0,1,21.43,7.18Zm-6,10.3a1.08,1.08,0,0,1-1.07,1.09H9.64a1.1,1.1,0,0,1,0-2.19h4.72A1.08,1.08,0,0,1,15.43,17.48Zm3.43-5a1.08,1.08,0,0,1-1.07,1.09H6.21a1.1,1.1,0,0,1,0-2.19H17.79A1.08,1.08,0,0,1,18.86,12.44ZM24,2.14a1.08,1.08,0,0,1-1.07,1.1H1.07A1.08,1.08,0,0,1,0,2.14,1.08,1.08,0,0,1,1.07,1.05H22.93A1.08,1.08,0,0,1,24,2.14Z" fill-rule="evenodd"/>
  </g>
</svg>
