<svg xmlns="http://www.w3.org/2000/svg" viewBox="0 0 24 24">
  <g id="Globe">
    <path d="M19,18.93A9.76,9.76,0,0,1,15.84,21a11,11,0,0,0,.61-1.42,22.84,22.84,0,0,0,1.1-6.52H21.8A9.67,9.67,0,0,1,19,18.93ZM2.2,13.08H6.45a22.84,22.84,0,0,0,1.1,6.52A11,11,0,0,0,8.16,21a9.79,9.79,0,0,1-6-7.94ZM5,5.1A9.68,9.68,0,0,1,8.12,3a10.53,10.53,0,0,0-.57,1.35A22.93,22.93,0,0,0,6.45,11H2.2A9.65,9.65,0,0,1,5,5.1ZM8.59,11c.17-4.66,1.49-8.34,3.14-8.71h.54c1.65.37,3,4.05,3.14,8.71ZM12,21.77c-1.76,0-3.22-3.81-3.41-8.69h6.82C15.22,18,13.76,21.77,12,21.77ZM21.8,11H17.55a22.93,22.93,0,0,0-1.1-6.58A10.53,10.53,0,0,0,15.88,3,9.83,9.83,0,0,1,21.8,11ZM12.51.12a3.27,3.27,0,0,0-1,0,12,12,0,1,0,1,0Z" fill-rule="evenodd"/>
  </g>
</svg>
