<svg xmlns="http://www.w3.org/2000/svg" viewBox="0 0 24 24">
  <g id="Graph_Bars" data-name="Graph Bars">
    <path d="M1.25,15.67A1.15,1.15,0,0,0,.09,16.81v5a1.16,1.16,0,0,0,2.31,0v-5A1.15,1.15,0,0,0,1.25,15.67ZM12,8.33a1.16,1.16,0,0,0-1.16,1.15V21.85a1.16,1.16,0,0,0,2.31,0V9.48A1.16,1.16,0,0,0,12,8.33Zm5.38-3.66a1.14,1.14,0,0,0-1.15,1.14v16a1.15,1.15,0,1,0,2.3,0v-16A1.14,1.14,0,0,0,17.37,4.67ZM22.75,1A1.15,1.15,0,0,0,21.6,2.15v19.7a1.16,1.16,0,0,0,2.31,0V2.15A1.15,1.15,0,0,0,22.75,1ZM6.6,12a1.14,1.14,0,0,1,1.15,1.15v8.7a1.15,1.15,0,0,1-2.3,0v-8.7A1.14,1.14,0,0,1,6.6,12Z" fill-rule="evenodd"/>
  </g>
</svg>
