<svg xmlns="http://www.w3.org/2000/svg" viewBox="0 0 24 24">
  <g id="Grid">
    <path d="M15.75,8.25V2.5H21.5V8.25ZM22.91,0H14.34a1.24,1.24,0,0,0-1.09,1.24V9.5a1.25,1.25,0,0,0,1.25,1.25h8.25a1.27,1.27,0,0,0,1-.55v0l.05-.09h0A1.2,1.2,0,0,0,24,9.5V1.25A1.24,1.24,0,0,0,22.91,0ZM15.75,21.5V15.75H21.5V21.5Zm7.16-8.24H14.34a1.24,1.24,0,0,0-1.09,1.24v8.25A1.25,1.25,0,0,0,14.5,24h8.25a1.27,1.27,0,0,0,1-.55v0a.56.56,0,0,0,.05-.08h0a1.2,1.2,0,0,0,.15-.59V14.5A1.24,1.24,0,0,0,22.91,13.26ZM2.5,8.25V2.5H8.25V8.25ZM9.66,0H1.09A1.24,1.24,0,0,0,0,1.25V9.5a1.25,1.25,0,0,0,1.25,1.25H9.5a1.27,1.27,0,0,0,1-.55v0a.7.7,0,0,0,.06-.09h0a1.2,1.2,0,0,0,.15-.59V1.25A1.25,1.25,0,0,0,9.66,0ZM2.5,21.5V15.75H8.25V21.5Zm7.16-8.24H1.09A1.24,1.24,0,0,0,0,14.5v8.25A1.25,1.25,0,0,0,1.25,24H9.5a1.27,1.27,0,0,0,1-.55v0l.06-.08h0a1.2,1.2,0,0,0,.15-.59V14.5A1.25,1.25,0,0,0,9.66,13.26Z" fill-rule="evenodd"/>
  </g>
</svg>
