<svg xmlns="http://www.w3.org/2000/svg" viewBox="0 0 24 24">
  <g id="Heart">
    <path d="M22.18,3.28a5.64,5.64,0,0,0-2-1.29,7.42,7.42,0,0,0-2.7-.46,4.79,4.79,0,0,0-1.53.24,7.28,7.28,0,0,0-1.43.64,9.94,9.94,0,0,0-1.33.89,11.72,11.72,0,0,0-1.15,1c-.36-.35-.75-.68-1.16-1a10.42,10.42,0,0,0-1.31-.89,6.81,6.81,0,0,0-1.46-.64,4.77,4.77,0,0,0-1.54-.24A7.34,7.34,0,0,0,3.86,2a5.69,5.69,0,0,0-2,1.29,5.46,5.46,0,0,0-1.28,2A7.61,7.61,0,0,0,.09,8,6.19,6.19,0,0,0,.34,9.7,8.83,8.83,0,0,0,1,11.33a11.49,11.49,0,0,0,1,1.49,14.94,14.94,0,0,0,1.15,1.31l8.13,8a1.1,1.1,0,0,0,.75.3,1,1,0,0,0,.72-.3l8.13-8A12.12,12.12,0,0,0,22,12.85a10.6,10.6,0,0,0,1-1.51,7.75,7.75,0,0,0,.67-1.64A5.78,5.78,0,0,0,23.91,8a7.61,7.61,0,0,0-.45-2.68A5.34,5.34,0,0,0,22.18,3.28Z" fill-rule="evenodd"/>
  </g>
</svg>
