<svg xmlns="http://www.w3.org/2000/svg" viewBox="0 0 24 24">
  <g id="Notification">
    <path d="M12,18.43H4.37l.39-.52a3.3,3.3,0,0,0,.67-1.56v-.06H18.56v.06a3.4,3.4,0,0,0,.67,1.56l.39.52ZM12.85,21a.84.84,0,1,1-1.55-.44h1.42A.84.84,0,0,1,12.85,21ZM5.56,10A6.45,6.45,0,0,1,12,3.86h0A6.45,6.45,0,0,1,18.44,10v4.16H5.55V10Zm16.91,8.65-1.55-2.08a2.64,2.64,0,0,1-.32-1.3h0V9.89h0a8.59,8.59,0,0,0-6.88-8,1,1,0,0,0,0-.17,1.73,1.73,0,0,0-3.45,0,.91.91,0,0,0,0,.17,8.58,8.58,0,0,0-6.87,8h0v5.37h0a2.64,2.64,0,0,1-.32,1.3L1.53,18.64a1.27,1.27,0,0,0-.44.87,1.07,1.07,0,0,0,1.08,1.07H9.05A3.15,3.15,0,0,0,9,21a3,3,0,0,0,6,0,3.15,3.15,0,0,0,0-.44h6.86a1.07,1.07,0,0,0,1.08-1.07A1.27,1.27,0,0,0,22.47,18.64Z" fill-rule="evenodd"/>
  </g>
</svg>
