<svg xmlns="http://www.w3.org/2000/svg" viewBox="0 0 24 24">
  <g id="Paperclip">
    <path d="M21.54,8.21a4.74,4.74,0,0,0-.05-6.71,4.88,4.88,0,0,0-6.85,0h0L3,13H3l-.07.07,0,0A6.31,6.31,0,0,0,3,22a6.52,6.52,0,0,0,8.31.69,1,1,0,0,0,.37-.24l.45-.44h0l7.77-7.68a1.05,1.05,0,0,0,0-1.5,1.07,1.07,0,0,0-1.52,0l-7.78,7.68a4.33,4.33,0,0,1-6.08,0,4.21,4.21,0,0,1,0-6L16.16,3h0A2.74,2.74,0,0,1,20,3a2.64,2.64,0,0,1,0,3.76h0l-7.54,7.45h0l-2.16,2.13h0a1.09,1.09,0,0,1-1.52,0,1.05,1.05,0,0,1,0-1.5h0l2.15-2.12h0l3.68-3.63a1.05,1.05,0,0,0,0-1.5,1.09,1.09,0,0,0-1.53,0l-5.9,5.83-.09.1a3.16,3.16,0,0,0,.17,4.33A3.26,3.26,0,0,0,11.6,18l.11-.09.07-.08,9.7-9.58h0l0,0Z" fill-rule="evenodd"/>
  </g>
</svg>
