<svg xmlns="http://www.w3.org/2000/svg" viewBox="0 0 24 24">
  <g id="Pencil">
    <path d="M2.66,21.34,3,20.17l.85.86Zm3.21-1.27L3.92,18.12,16.38,5.67l1.95,1.94Zm14-14L17.88,4.17l1.5-1.51,2,2Zm3.77-.75a1.07,1.07,0,0,0,.19-1.25,1.15,1.15,0,0,0-.19-.26l0,0L20.14.41h0A1,1,0,0,0,19.38.1a1.05,1.05,0,0,0-.75.31h0L1.72,17.32a1.11,1.11,0,0,0-.33.52L.13,22.57a1,1,0,0,0,.27,1,1.06,1.06,0,0,0,.75.31,1.33,1.33,0,0,0,.28,0L6.15,22.6a1,1,0,0,0,.5-.3L20.51,8.45a.6.6,0,0,0,.08-.08l.08-.09,2.86-2.86Z" fill-rule="evenodd"/>
  </g>
</svg>
