<svg xmlns="http://www.w3.org/2000/svg" viewBox="0 0 24 24">
  <g id="Print">
    <path d="M17.09,19.23A1.06,1.06,0,0,1,16,20.29H7.94a1.06,1.06,0,1,1,0-2.12H16A1.06,1.06,0,0,1,17.09,19.23ZM16,14.55a1.07,1.07,0,1,1,0,2.13H7.94a1.07,1.07,0,0,1,0-2.13Zm5.76-6V15H20.49V12A1.06,1.06,0,0,0,19.56,11H4.41A1.05,1.05,0,0,0,3.48,12v3H2.22V8.6ZM5.61,21.78V13.06H18.36v8.72Zm0-19.56h10V4.06a1.07,1.07,0,0,0,1.06,1h1.71V6.47H5.61ZM23,6.48H20.49V3.92s0,0,0-.06v-.1s0,0,0-.06a.08.08,0,0,1,0,0l0-.07v0l0-.06v0l0-.06,0,0a.18.18,0,0,0,0-.07h0a.39.39,0,0,0-.08-.1L17.4.41a.94.94,0,0,0-.33-.23h0L17,.15h0l-.07,0h0l-.08,0H4.4a1.07,1.07,0,0,0-.92,1.06V6.47H1A1.07,1.07,0,0,0,.09,7.54V16A1.06,1.06,0,0,0,1.16,17.1H3.48v5.74a1.07,1.07,0,0,0,1.06,1.07H19.42a1.09,1.09,0,0,0,.89-.47v0a.18.18,0,0,0,.05-.07h0a1.06,1.06,0,0,0,.13-.5h0V17.1h2.35a1,1,0,0,0,.88-.47h0l.05-.07h0a1.06,1.06,0,0,0,.13-.5h0V7.54A1.08,1.08,0,0,0,23,6.48Z" fill-rule="evenodd"/>
  </g>
</svg>
