<svg xmlns="http://www.w3.org/2000/svg" viewBox="0 0 24 24">
  <g id="Profile">
    <path d="M11.55,4a2.07,2.07,0,1,1-2.1,2.07A2.09,2.09,0,0,1,11.55,4Zm0,4.39a3.48,3.48,0,0,1,3.5,3.38V12h-7A3.49,3.49,0,0,1,11.55,8.4Zm5.73,5.85a.52.52,0,0,1,.51.54.54.54,0,0,1-.51.54H6.72a.55.55,0,0,1-.51-.54.53.53,0,0,1,.51-.54Zm0,2.37a.51.51,0,0,1,.51.51.52.52,0,0,1-.51.54H6.72a.53.53,0,0,1-.51-.54.52.52,0,0,1,.51-.51Zm0,2.34a.54.54,0,0,1,0,1.08H6.72a.54.54,0,0,1,0-1.08ZM19.44,2.13H4.14V21.87h15.3a.44.44,0,0,0,.42-.42V2.58A.44.44,0,0,0,19.44,2.13Zm0-2.13a2.53,2.53,0,0,1,2.49,2.55V21.47A2.54,2.54,0,0,1,19.44,24H3.12a1,1,0,0,1-1-1.08V1.08A1,1,0,0,1,2.37.32,1,1,0,0,1,3.12,0Z" fill-rule="evenodd"/>
  </g>
</svg>
