<svg xmlns="http://www.w3.org/2000/svg" viewBox="0 0 24 24">
  <g id="Reply">
    <path d="M16.48,9.53H3.66L8.25,4.91a1.09,1.09,0,0,0,0-1.53,1.06,1.06,0,0,0-1.51,0L.32,9.84l-.08.08L.18,10l0,.09,0,.1v.05a.08.08,0,0,0,0,0s0,.08,0,.1,0,.09,0,.1a.81.81,0,0,0,0,.22s0,.08,0,.1,0,.09,0,.1,0,.09,0,.1l.05.1,0,0,.05.09.12.13,6.42,6.46a1.06,1.06,0,0,0,1.51,0,1.07,1.07,0,0,0,0-1.52L3.66,11.68H16.28a5.6,5.6,0,0,1,5.58,5.59h0v2.59a1.08,1.08,0,0,0,2.15,0V17.28h0A7.74,7.74,0,0,0,16.48,9.53Z" fill-rule="evenodd"/>
  </g>
</svg>
