<svg xmlns="http://www.w3.org/2000/svg" viewBox="0 0 24 24">
  <g id="Share">
    <path d="M16.09,3.65,12.79.31A1,1,0,0,0,12,0h-.29l0,0h0l-.05,0-.05,0,0,0,0,0,0,0-.06,0,0,0-.08.07L7.94,3.65a1.08,1.08,0,0,0,0,1.51,1.05,1.05,0,0,0,1.5,0l1.49-1.5V15.43a1.06,1.06,0,1,0,2.12,0V3.61l1.54,1.55a1.05,1.05,0,0,0,1.5,0A1.06,1.06,0,0,0,16.09,3.65Zm6.12,19.28A1.07,1.07,0,0,1,21.15,24H2.89a1.06,1.06,0,0,1-1.06-1.07V8.2a.84.84,0,0,1,0-.27A1.07,1.07,0,0,1,2.85,6.86H7.59A1.07,1.07,0,1,1,7.59,9H4V21.86H20.09V9H16.41a1.07,1.07,0,0,1,0-2.14h4.74a1.07,1.07,0,0,1,1.06,1.07v15Z" fill-rule="evenodd"/>
  </g>
</svg>
