<svg xmlns="http://www.w3.org/2000/svg" viewBox="0 0 24 24">
  <g id="Support">
    <path d="M12,21.86a9.82,9.82,0,0,1-5.65-1.78l2.48-2.49a6.4,6.4,0,0,0,6.34,0l2.48,2.49A9.82,9.82,0,0,1,12,21.86ZM3.92,6.35,6.41,8.83a6.4,6.4,0,0,0,0,6.34L3.92,17.65a9.86,9.86,0,0,1,0-11.3ZM17.65,3.92,15.17,6.41a6.4,6.4,0,0,0-6.34,0L6.35,3.92a9.86,9.86,0,0,1,11.3,0ZM9,15a4.27,4.27,0,1,1,3,1.26A4.29,4.29,0,0,1,9,15Zm11.11,2.62-2.49-2.48a6.4,6.4,0,0,0,0-6.34l2.49-2.48a9.86,9.86,0,0,1,0,11.3Zm.41-14.14a12,12,0,1,0,0,17A12,12,0,0,0,20.49,3.51Z" fill-rule="evenodd"/>
  </g>
</svg>
