<svg xmlns="http://www.w3.org/2000/svg" viewBox="0 0 24 24">
  <g id="Trashcan">
    <path d="M10.94,16.89V10.51A1.05,1.05,0,0,1,12,9.45a1.06,1.06,0,0,1,1.07,1.06v6.38A1.06,1.06,0,0,1,12,18,1.05,1.05,0,0,1,10.94,16.89Zm-4.29,0V10.51a1.07,1.07,0,0,1,2.14,0v6.38a1.07,1.07,0,0,1-2.14,0Zm8.57,0V10.51a1.07,1.07,0,0,1,2.14,0v6.38a1.07,1.07,0,0,1-2.14,0Zm3.48,4.89H5.31L4,6.47h16.1ZM9,2.22h6V4.35H9ZM22.92,4.35H17.15V1.16A1.08,1.08,0,0,0,16.22.1H7.8a1.08,1.08,0,0,0-.94,1.06V4.35H1.08a1.06,1.06,0,1,0,0,2.12h.73L3.25,22.84h0a1.07,1.07,0,0,0,1.07,1.07H19.69a1.07,1.07,0,0,0,1.07-1.07h0L22.21,6.47h.71a1.06,1.06,0,1,0,0-2.12Z" fill-rule="evenodd"/>
  </g>
</svg>
