<svg xmlns="http://www.w3.org/2000/svg" viewBox="0 0 24 24">
  <g id="Unlock">
    <path d="M13.08,16.82v1.56a1.08,1.08,0,0,1-2.16,0V16.82a1.7,1.7,0,0,1-.66-1.34,1.74,1.74,0,0,1,3.47,0A1.71,1.71,0,0,1,13.08,16.82ZM3.79,11.36H20.23v10.5H3.79ZM22.4,22.81V10.29c0-.06,0-.11,0-.16a.13.13,0,0,1,0-.06,1,1,0,0,0-.28-.52l0,0s0,0,0,0l0,0,0,0a1,1,0,0,0-.22-.13l-.06,0a1.22,1.22,0,0,0-.38-.07h-15V7.72A5.65,5.65,0,0,1,17.19,5.55h0a1.09,1.09,0,0,0,2.09-.41,1.15,1.15,0,0,0-.07-.36s0,0,0-.06a7.82,7.82,0,0,0-15,3V9.21H2.7a1.09,1.09,0,0,0-1.08,1V22.7a.85.85,0,0,0,0,.23A1.08,1.08,0,0,0,2.68,24H21.32a1.08,1.08,0,0,0,1.09-1.07S22.4,22.85,22.4,22.81Z" fill-rule="evenodd"/>
  </g>
</svg>
